<svg width="100%" height="100%" viewBox="0 0 417 417" version="1.1" xmlns="http://www.w3.org/2000/svg" xmlns:xlink="http://www.w3.org/1999/xlink" xml:space="preserve" style="fill-rule:evenodd;clip-rule:evenodd;stroke-linejoin:round;stroke-miterlimit:1.41421;">
    <path d="M393.671,416.67C406.369,416.67 416.667,406.372 416.667,393.674L416.667,22.998C416.667,10.294 406.369,0 393.671,0L22.996,0C10.293,0 0,10.294 0,22.998L0,393.674C0,406.372 10.293,416.67 22.996,416.67L393.671,416.67Z" style="fill:#3c5a9a;fill-rule:nonzero;"/>
    <path d="M287.492,416.67L287.492,255.315L341.654,255.315L349.763,192.43L287.492,192.43L287.492,152.282C287.492,134.075 292.547,121.669 318.657,121.669L351.956,121.653L351.956,65.41C346.196,64.645 326.43,62.933 303.434,62.933C255.423,62.933 222.555,92.237 222.555,146.056L222.555,192.43L168.256,192.43L168.256,255.315L222.555,255.315L222.555,416.67L287.492,416.67Z" style="fill:#fff;fill-rule:nonzero;"/>
</svg>