<svg width="100%" height="100%" viewBox="0 0 100 21" version="1.1" xmlns="http://www.w3.org/2000/svg" xmlns:xlink="http://www.w3.org/1999/xlink" xml:space="preserve" style="fill-rule:evenodd;clip-rule:evenodd;stroke-linejoin:round;stroke-miterlimit:1.41421;">
    <path id="path10" d="M53.369,9.965C52.513,9.965 51.896,10.246 51.27,10.532L51.27,17.002C51.87,17.059 52.213,17.059 52.782,17.059C54.836,17.059 55.118,16.118 55.118,14.805L55.118,11.714C55.118,10.744 54.796,9.965 53.369,9.965ZM39.724,9.612C38.299,9.612 37.973,10.395 37.973,11.364L37.973,11.908L41.473,11.908L41.473,11.364C41.473,10.395 41.148,9.612 39.724,9.612ZM13.292,16.347C13.292,17.114 13.654,17.512 14.452,17.512C15.309,17.512 15.816,17.233 16.441,16.946L16.441,15.411L14.568,15.411C13.681,15.411 13.292,15.576 13.292,16.347ZM66.642,9.965C65.214,9.965 64.719,10.744 64.719,11.714L64.719,15.254C64.719,16.227 65.214,17.009 66.642,17.009C68.066,17.009 68.564,16.227 68.564,15.254L68.564,11.714C68.564,10.744 68.066,9.965 66.642,9.965ZM6.295,20.317L2.098,20.317L2.098,10.157L0,10.157L0,6.656L2.098,6.656L2.098,4.554C2.098,1.698 3.281,0 6.646,0L9.447,0L9.447,3.502L7.696,3.502C6.386,3.502 6.3,3.991 6.3,4.904L6.295,6.656L9.466,6.656L9.095,10.157L6.295,10.157L6.295,20.317L6.295,20.317ZM20.639,20.343L17.141,20.343L16.99,19.458C15.392,20.343 13.967,20.486 13.026,20.486C10.461,20.486 9.095,18.772 9.095,16.402C9.095,13.606 10.689,12.608 13.539,12.608L16.441,12.608L16.441,12.004C16.441,10.577 16.277,10.157 14.082,10.157L10.493,10.157L10.844,6.656L14.767,6.656C19.583,6.656 20.639,8.178 20.639,12.032L20.639,20.343ZM32.535,10.414C30.358,10.041 29.733,9.959 28.686,9.959C26.804,9.959 26.236,10.374 26.236,11.972L26.236,14.994C26.236,16.592 26.804,17.009 28.686,17.009C29.733,17.009 30.358,16.925 32.535,16.55L32.535,19.965C30.628,20.393 29.386,20.505 28.336,20.505C23.83,20.505 22.038,18.135 22.038,14.712L22.038,12.259C22.038,8.833 23.83,6.459 28.336,6.459C29.386,6.459 30.628,6.572 32.535,7.001L32.535,10.414ZM45.67,14.712L37.973,14.712L37.973,14.994C37.973,16.592 38.542,17.009 40.423,17.009C42.114,17.009 43.146,16.925 45.319,16.55L45.319,19.965C43.224,20.393 42.132,20.505 40.075,20.505C35.569,20.505 33.777,18.135 33.777,14.712L33.777,11.908C33.777,8.913 35.106,6.459 39.724,6.459C44.342,6.459 45.67,8.884 45.67,11.908L45.67,14.712ZM59.314,14.776C59.314,18.085 58.369,20.499 52.64,20.499C50.571,20.499 49.358,20.317 47.074,19.965L47.074,1.051L51.27,0.351L51.27,6.967C52.177,6.63 53.351,6.459 54.419,6.459C58.615,6.459 59.314,8.34 59.314,11.364L59.314,14.776ZM72.765,14.849C72.765,17.703 71.587,20.471 66.656,20.471C61.723,20.471 60.522,17.703 60.522,14.849L60.522,12.093C60.522,9.237 61.723,6.468 66.656,6.468C71.587,6.468 72.765,9.237 72.765,12.093L72.765,14.849ZM86.206,14.849C86.206,17.703 85.026,20.471 80.097,20.471C75.164,20.471 73.963,17.703 73.963,14.849L73.963,12.093C73.963,9.237 75.164,6.468 80.097,6.468C85.026,6.468 86.206,9.237 86.206,12.093L86.206,14.849ZM100,20.317L95.452,20.317L91.605,13.896L91.605,20.317L87.408,20.317L87.408,1.051L91.605,0.351L91.605,12.753L95.452,6.656L100,6.656L95.801,13.31L100,20.317ZM80.082,9.965C78.657,9.965 78.162,10.744 78.162,11.714L78.162,15.254C78.162,16.227 78.657,17.009 80.082,17.009C81.506,17.009 82.01,16.227 82.01,15.254L82.01,11.714C82.01,10.744 81.506,9.965 80.082,9.965Z" style="fill:#3b5998;fill-rule:nonzero;"/>
</svg>