<svg width="100%" height="100%" viewBox="0 0 417 417" version="1.1" xmlns="http://www.w3.org/2000/svg" xmlns:xlink="http://www.w3.org/1999/xlink" xml:space="preserve" style="fill-rule:evenodd;clip-rule:evenodd;stroke-linejoin:round;stroke-miterlimit:1.41421;">
    <path d="M393.671,0L22.996,0C10.294,0 0,10.294 0,22.996L0,393.671C0,406.371 10.294,416.668 22.996,416.668L222.556,416.668L222.556,255.312L168.255,255.312L168.255,192.428L222.556,192.428L222.556,146.054C222.556,92.237 255.424,62.932 303.434,62.932C326.431,62.932 346.195,64.643 351.955,65.408L351.955,121.651L318.658,121.667C292.549,121.667 287.492,134.073 287.492,152.28L287.492,192.428L349.763,192.428L341.656,255.312L287.492,255.312L287.492,416.668L393.671,416.668C406.371,416.668 416.667,406.371 416.667,393.671L416.667,22.996C416.667,10.294 406.371,0 393.671,0" style="fill:#fff;fill-rule:nonzero;"/>
</svg>