<svg width="100%" height="100%" viewBox="0 0 100 13" version="1.1" xmlns="http://www.w3.org/2000/svg" xmlns:xlink="http://www.w3.org/1999/xlink" xml:space="preserve" style="fill-rule:evenodd;clip-rule:evenodd;stroke-linejoin:round;stroke-miterlimit:1.41421;">
    <path d="M99.112,10.914c-0.258,0.006 -0.47,0.092 -0.636,0.256c-0.167,0.165 -0.253,0.371 -0.259,0.618c0.006,0.245 0.092,0.45 0.259,0.616c0.166,0.165 0.378,0.251 0.636,0.258c0.251,-0.007 0.46,-0.093 0.628,-0.258c0.167,-0.166 0.254,-0.371 0.26,-0.616c-0.006,-0.247 -0.093,-0.453 -0.26,-0.618c-0.166,-0.164 -0.376,-0.25 -0.628,-0.256Zm0,1.555c-0.196,-0.005 -0.358,-0.071 -0.485,-0.199c-0.128,-0.128 -0.194,-0.289 -0.198,-0.482c0.004,-0.194 0.07,-0.355 0.198,-0.482c0.127,-0.127 0.289,-0.193 0.485,-0.197c0.192,0.004 0.351,0.07 0.477,0.197c0.127,0.127 0.192,0.288 0.197,0.482c-0.005,0.193 -0.07,0.354 -0.197,0.482c-0.126,0.128 -0.285,0.194 -0.477,0.199Zm0.051,-1.09l-0.375,0l0,0.811l0.174,0l0,-0.304l0.079,0l0.246,0.304l0.208,0l-0.266,-0.306c0.083,-0.01 0.147,-0.037 0.192,-0.08c0.044,-0.044 0.067,-0.099 0.067,-0.166c0,-0.08 -0.028,-0.143 -0.084,-0.189c-0.056,-0.046 -0.137,-0.069 -0.241,-0.07Zm-0.002,0.152c0.046,0 0.083,0.009 0.109,0.027c0.027,0.018 0.04,0.044 0.041,0.08c-0.001,0.036 -0.014,0.064 -0.041,0.082c-0.026,0.018 -0.063,0.027 -0.109,0.027l-0.199,0l0,-0.216l0.199,0Z"/>
    <path d="M1.858,12.104l-1.858,0l0,-8.674l1.821,0l0,1.057c0,0 1.6,-1.292 2.55,-1.276c1.847,0.032 2.95,1.604 2.95,1.604c0,0 0.895,-1.604 2.914,-1.604c2.986,0 3.424,2.734 3.424,2.734l0,6.123l-1.785,0l0,-5.394c0,0 0.006,-1.64 -1.93,-1.64c-2.003,0 -2.186,1.64 -2.186,1.64l0,5.394l-1.857,0l0,-5.431c0,0 -0.179,-1.713 -1.858,-1.713c-2.181,0 -2.222,1.75 -2.222,1.75l0.037,5.43Z"/>
    <path d="M58.349,3.21c-0.95,-0.016 -2.549,1.276 -2.549,1.276l0,-1.055l-1.823,0l0,8.672l1.858,0l-0.035,-5.43c0,0 0.041,-1.746 2.222,-1.746c0.405,0 0.719,0.099 0.968,0.25l0,-0.007l0.606,-1.689c-0.366,-0.154 -0.781,-0.263 -1.247,-0.271Z"/>
    <path d="M84.517,3.21c-0.95,-0.016 -2.55,1.276 -2.55,1.276l0,-1.055l-1.823,0l0,8.672l1.859,0l-0.036,-5.43c0,0 0.041,-1.746 2.222,-1.746c0.405,0 0.72,0.099 0.969,0.25l0,-0.007l0.605,-1.689c-0.365,-0.154 -0.781,-0.263 -1.246,-0.271l0,0Z"/>
    <path d="M19.665,3.174c-2.78,0 -4.251,2.501 -4.258,4.59c-0.008,2.141 1.674,4.61 4.337,4.61c1.553,0 2.829,-1.147 2.829,-1.147l-0.004,0.883l1.829,0l0,-8.682l-1.835,0l0,1.093c0,0 -1.198,-1.347 -2.898,-1.347l0,0Zm0.356,1.768c1.494,0 2.707,1.3 2.707,2.9c0,1.6 -1.213,2.893 -2.707,2.893c-1.493,0 -2.699,-1.293 -2.699,-2.893c0,-1.6 1.206,-2.9 2.699,-2.9Z"/>
    <path d="M72.989,3.174c-2.78,0 -4.251,2.501 -4.258,4.59c-0.008,2.141 1.675,4.61 4.337,4.61c1.553,0 2.829,-1.147 2.829,-1.147l-0.004,0.883l1.829,0l0,-8.682l-1.835,0l0,1.093c0,0 -1.198,-1.347 -2.898,-1.347l0,0Zm0.356,1.768c1.494,0 2.707,1.3 2.707,2.9c0,1.6 -1.213,2.893 -2.707,2.893c-1.493,0 -2.699,-1.293 -2.699,-2.893c0,-1.6 1.206,-2.9 2.699,-2.9Z"/>
    <path d="M90.546,3.174c-2.78,0 -4.252,2.501 -4.259,4.59c-0.008,2.141 1.675,4.61 4.337,4.61c1.553,0 2.829,-1.147 2.829,-1.147l-0.004,0.883l1.829,0l0,-12.11l-1.835,0l0,4.521c0,0 -1.198,-1.347 -2.897,-1.347l0,0Zm0.356,1.768c1.493,0 2.706,1.3 2.706,2.9c0,1.6 -1.213,2.893 -2.706,2.893c-1.494,0 -2.699,-1.293 -2.699,-2.893c0,-1.6 1.205,-2.9 2.699,-2.9Z"/>
    <path d="M29.977,12.396c-1.894,0 -3.643,-1.167 -3.643,-1.167l0.802,-1.239c0,0 1.654,0.766 2.841,0.766c0.771,0 2.06,-0.249 2.076,-1.021c0.016,-0.815 -2.167,-1.057 -2.167,-1.057c0,0 -3.26,-0.044 -3.26,-2.733c0,-1.691 1.628,-2.77 3.715,-2.77c1.206,0 3.46,1.057 3.46,1.057l-0.911,1.421c0,0 -1.74,-0.696 -2.658,-0.729c-0.776,-0.028 -1.712,0.344 -1.712,1.021c0,1.839 5.427,-0.144 5.427,3.571c0,2.438 -2.211,2.88 -3.97,2.88Z"/>
    <path d="M36.963,0.916l0,2.522l-1.616,0l0,1.824l1.616,0l0,4.361c0,0 -0.143,2.951 3.027,2.951c0.876,0 2.592,-0.649 2.592,-0.649l-0.733,-1.895c0,0 -0.683,0.582 -1.453,0.563c-1.465,-0.037 -1.424,-0.977 -1.424,-0.977l0,-4.354l3.019,0l0,-1.824l-3.019,0l0,-2.522l-2.009,0Z"/>
    <path d="M47.966,3.281c-2.981,0 -4.47,2.457 -4.458,4.589c0.013,2.193 1.356,4.661 4.636,4.661c1.404,0 3.376,-1.233 3.376,-1.233l-0.848,-1.475c0,0 -1.345,0.955 -2.528,0.955c-2.368,0 -2.521,-2.316 -2.521,-2.316l6.338,0c0,0 0.473,-5.181 -3.995,-5.181Zm-0.27,1.703c0.07,-0.004 0.145,0 0.22,0c2.231,0 2.215,2.11 2.215,2.11l-4.508,0c0,0 -0.106,-1.986 2.073,-2.11Z"/>
    <path d="M66.819,9.801l0.85,1.701c0,0 -1.347,0.876 -2.859,0.876c-3.13,0 -4.868,-2.357 -4.868,-4.588c0,-3.505 2.766,-4.535 4.636,-4.535c1.698,0 3.168,0.979 3.168,0.979l-0.953,1.701c0,0 -0.577,-0.902 -2.266,-0.902c-1.686,0 -2.576,1.454 -2.576,2.835c0,1.547 1.036,2.86 2.602,2.86c1.228,0 2.266,-0.927 2.266,-0.927Z"/>
</svg>