<svg width="100%" height="100%" viewBox="0 0 100 78" version="1.1" xmlns="http://www.w3.org/2000/svg" xmlns:xlink="http://www.w3.org/1999/xlink" xml:space="preserve" style="fill-rule:evenodd;clip-rule:evenodd;stroke-linejoin:round;stroke-miterlimit:1.41421;">
    <g class="svg-text">
        <path d="M98.754,76.218c-0.244,0.006 -0.444,0.086 -0.601,0.242c-0.158,0.155 -0.239,0.35 -0.245,0.583c0.006,0.232 0.087,0.426 0.245,0.582c0.157,0.156 0.357,0.237 0.601,0.244c0.237,-0.007 0.435,-0.088 0.593,-0.244c0.158,-0.156 0.24,-0.35 0.246,-0.582c-0.006,-0.233 -0.088,-0.428 -0.245,-0.583c-0.158,-0.156 -0.356,-0.236 -0.594,-0.242Zm0,1.469c-0.186,-0.005 -0.338,-0.068 -0.459,-0.189c-0.12,-0.121 -0.182,-0.272 -0.186,-0.455c0.004,-0.183 0.066,-0.335 0.186,-0.455c0.121,-0.12 0.273,-0.182 0.459,-0.186c0.181,0.004 0.331,0.066 0.451,0.186c0.119,0.12 0.181,0.272 0.186,0.455c-0.005,0.183 -0.067,0.334 -0.186,0.455c-0.12,0.121 -0.27,0.184 -0.451,0.189Zm0.048,-1.03l-0.354,0l0,0.767l0.164,0l0,-0.288l0.075,0l0.232,0.288l0.197,0l-0.251,-0.29c0.078,-0.01 0.138,-0.035 0.181,-0.076c0.042,-0.041 0.063,-0.093 0.063,-0.157c0,-0.075 -0.027,-0.135 -0.08,-0.178c-0.053,-0.043 -0.128,-0.066 -0.227,-0.066Zm-0.002,0.143c0.044,0 0.079,0.009 0.103,0.026c0.025,0.017 0.038,0.042 0.039,0.075c-0.001,0.035 -0.014,0.061 -0.039,0.078c-0.024,0.017 -0.059,0.026 -0.103,0.026l-0.188,0l0,-0.205l0.188,0Z"/>
        <path d="M6.879,77.342l-1.754,0l0,-8.194l1.72,0l0,0.998c0,0 1.511,-1.22 2.409,-1.205c1.745,0.03 2.787,1.515 2.787,1.515c0,0 0.845,-1.515 2.752,-1.515c2.821,0 3.235,2.582 3.235,2.582l0,5.785l-1.686,0l0,-5.096c0,0 0.006,-1.549 -1.824,-1.549c-1.892,0 -2.064,1.549 -2.064,1.549l0,5.096l-1.755,0l0,-5.13c0,0 -0.169,-1.619 -1.755,-1.619c-2.06,0 -2.099,1.653 -2.099,1.653l0.034,5.13Z"/>
        <path d="M60.246,68.94c-0.897,-0.015 -2.408,1.205 -2.408,1.205l0,-0.996l-1.723,0l0,8.192l1.756,0l-0.033,-5.129c0,0 0.039,-1.65 2.099,-1.65c0.382,0 0.679,0.093 0.915,0.236l0,-0.007l0.571,-1.595c-0.345,-0.146 -0.737,-0.249 -1.177,-0.256Z"/>
        <path d="M84.966,68.94c-0.897,-0.015 -2.408,1.205 -2.408,1.205l0,-0.996l-1.723,0l0,8.192l1.756,0l-0.033,-5.129c0,0 0.038,-1.65 2.099,-1.65c0.382,0 0.679,0.093 0.915,0.236l0,-0.007l0.571,-1.595c-0.345,-0.146 -0.737,-0.249 -1.177,-0.256l0,0Z"/>
        <path d="M23.702,68.906c-2.626,0 -4.016,2.362 -4.023,4.336c-0.007,2.022 1.582,4.355 4.097,4.355c1.467,0 2.672,-1.084 2.672,-1.084l-0.003,0.835l1.728,0l0,-8.203l-1.734,0l0,1.034c0,0 -1.132,-1.273 -2.737,-1.273l0,0Zm0.336,1.67c1.411,0 2.557,1.228 2.557,2.74c0,1.511 -1.146,2.733 -2.557,2.733c-1.411,0 -2.549,-1.222 -2.549,-2.733c0,-1.512 1.138,-2.74 2.549,-2.74Z"/>
        <path d="M74.076,68.906c-2.626,0 -4.016,2.362 -4.023,4.336c-0.007,2.022 1.582,4.355 4.097,4.355c1.468,0 2.673,-1.084 2.673,-1.084l-0.003,0.835l1.727,0l0,-8.203l-1.733,0l0,1.034c0,0 -1.132,-1.273 -2.738,-1.273l0,0Zm0.337,1.67c1.411,0 2.556,1.228 2.556,2.74c0,1.511 -1.145,2.733 -2.556,2.733c-1.411,0 -2.55,-1.222 -2.55,-2.733c0,-1.512 1.139,-2.74 2.55,-2.74Z"/>
        <path d="M90.661,68.906c-2.626,0 -4.016,2.362 -4.023,4.336c-0.007,2.022 1.582,4.355 4.097,4.355c1.468,0 2.673,-1.084 2.673,-1.084l-0.003,0.835l1.727,0l0,-11.441l-1.733,0l0,4.272c0,0 -1.132,-1.273 -2.738,-1.273l0,0Zm0.337,1.67c1.411,0 2.556,1.228 2.556,2.74c0,1.511 -1.145,2.733 -2.556,2.733c-1.411,0 -2.55,-1.222 -2.55,-2.733c0,-1.512 1.139,-2.74 2.55,-2.74Z"/>
        <path d="M33.443,77.617c-1.789,0 -3.441,-1.101 -3.441,-1.101l0.757,-1.171c0,0 1.563,0.723 2.684,0.723c0.728,0 1.947,-0.235 1.961,-0.964c0.016,-0.77 -2.047,-0.998 -2.047,-0.998c0,0 -3.08,-0.042 -3.08,-2.583c0,-1.597 1.538,-2.616 3.51,-2.616c1.139,0 3.269,0.998 3.269,0.998l-0.86,1.343c0,0 -1.645,-0.657 -2.512,-0.689c-0.733,-0.026 -1.617,0.325 -1.617,0.964c0,1.738 5.126,-0.135 5.126,3.374c0,2.303 -2.088,2.72 -3.75,2.72Z"/>
        <path d="M40.043,66.772l0,2.383l-1.527,0l0,1.724l1.527,0l0,4.12c0,0 -0.135,2.786 2.859,2.786c0.828,0 2.449,-0.612 2.449,-0.612l-0.693,-1.791c0,0 -0.644,0.55 -1.372,0.532c-1.384,-0.035 -1.346,-0.922 -1.346,-0.922l0,-4.113l2.853,0l0,-1.724l-2.853,0l0,-2.383l-1.897,0Z"/>
        <path d="M50.437,69.007c-2.816,0 -4.223,2.321 -4.211,4.336c0.012,2.071 1.281,4.402 4.38,4.402c1.326,0 3.188,-1.165 3.188,-1.165l-0.8,-1.393c0,0 -1.271,0.902 -2.388,0.902c-2.237,0 -2.382,-2.188 -2.382,-2.188l5.988,0c0,0 0.446,-4.894 -3.775,-4.894Zm-0.255,1.609c0.066,-0.004 0.137,0 0.208,0c2.108,0 2.093,1.993 2.093,1.993l-4.259,0c0,0 -0.101,-1.876 1.958,-1.993Z"/>
        <path d="M68.247,75.166l0.803,1.607c0,0 -1.272,0.828 -2.7,0.828c-2.957,0 -4.599,-2.227 -4.599,-4.334c0,-3.311 2.613,-4.285 4.38,-4.285c1.603,0 2.992,0.925 2.992,0.925l-0.9,1.607c0,0 -0.546,-0.852 -2.141,-0.852c-1.593,0 -2.433,1.374 -2.433,2.678c0,1.461 0.978,2.702 2.457,2.702c1.161,0 2.141,-0.876 2.141,-0.876Z"/>
    </g>
    <path d="M99.942,47.453l0,-1.107l-0.289,0l-0.332,0.761l-0.332,-0.761l-0.289,0l0,1.107l0.204,0l0,-0.835l0.312,0.72l0.211,0l0.311,-0.722l0,0.837l0.204,0Zm-1.828,0l0,-0.918l0.369,0l0,-0.187l-0.941,0l0,0.187l0.37,0l0,0.918l0.202,0Z" style="fill:#f79f1a;"/>
    <path d="M100,31.003c0,17.122 -13.845,31.002 -30.925,31.002c-17.079,0 -30.925,-13.88 -30.925,-31.002c0,-17.123 13.846,-31.003 30.925,-31.003c17.08,0 30.925,13.88 30.925,31.003Z" style="fill:#f79f1a;"/>
    <path d="M61.85,31.003c0,17.122 -13.846,31.002 -30.925,31.002c-17.079,0 -30.925,-13.88 -30.925,-31.002c0,-17.123 13.846,-31.003 30.925,-31.003c17.079,0 30.925,13.88 30.925,31.003Z" style="fill:#ea001b;"/>
    <path d="M50,6.597c-7.215,5.676 -11.847,14.495 -11.847,24.403c0,9.907 4.632,18.734 11.847,24.409c7.216,-5.675 11.847,-14.502 11.847,-24.409c0,-9.908 -4.631,-18.727 -11.847,-24.403Z" style="fill:#ff5f01;"/>
</svg>