<svg width="100%" height="100%" viewBox="0 0 100 63" version="1.1" xmlns="http://www.w3.org/2000/svg" xmlns:xlink="http://www.w3.org/1999/xlink" xml:space="preserve" style="fill-rule:evenodd;clip-rule:evenodd;stroke-linejoin:round;stroke-miterlimit:1.41421;">
    <path d="M99.942,47.453l0,-1.107l-0.289,0l-0.332,0.761l-0.332,-0.761l-0.289,0l0,1.107l0.204,0l0,-0.835l0.312,0.72l0.211,0l0.311,-0.722l0,0.837l0.204,0Zm-1.828,0l0,-0.918l0.369,0l0,-0.187l-0.941,0l0,0.187l0.37,0l0,0.918l0.202,0Z" style="fill:#f79f1a;"/>
    <path d="M100,31.003c0,17.122 -13.845,31.002 -30.925,31.002c-17.079,0 -30.925,-13.88 -30.925,-31.002c0,-17.123 13.846,-31.003 30.925,-31.003c17.08,0 30.925,13.88 30.925,31.003Z" style="fill:#f79f1a;"/>
    <path d="M61.85,31.003c0,17.122 -13.846,31.002 -30.925,31.002c-17.079,0 -30.925,-13.88 -30.925,-31.002c0,-17.123 13.846,-31.003 30.925,-31.003c17.079,0 30.925,13.88 30.925,31.003Z" style="fill:#ea001b;"/>
    <path d="M50,6.597c-7.215,5.676 -11.847,14.495 -11.847,24.403c0,9.907 4.632,18.734 11.847,24.409c7.216,-5.675 11.847,-14.502 11.847,-24.409c0,-9.908 -4.631,-18.727 -11.847,-24.403Z" style="fill:#ff5f01;"/>
</svg>