<svg width="100%" height="100%" viewBox="0 0 100 100" version="1.1" xmlns="http://www.w3.org/2000/svg" xmlns:xlink="http://www.w3.org/1999/xlink" xml:space="preserve" xmlns:serif="http://www.serif.com/" style="fill-rule:evenodd;clip-rule:evenodd;stroke-linejoin:round;stroke-miterlimit:1.41421;">
    <path d="M50,100C22.291,100 0,77.709 0,50C0,22.291 22.291,0 50,0C77.709,0 100,22.291 100,50C100,77.709 77.709,100 50,100ZM50,80.209L53.75,76.459L50,62.084L46.25,76.459L50,80.209ZM45.209,80L43.334,87.084L47.709,82.709L45.209,80ZM54.791,80L52.291,82.5L56.666,86.875L54.791,80ZM58.334,92.916L50,84.584L41.666,92.916C44.375,93.334 47.084,93.75 50,93.75C52.916,93.75 55.625,93.541 58.334,92.916ZM50,6.25C25.834,6.25 6.25,25.834 6.25,50C6.25,69.166 18.541,85.416 35.625,91.25L45,56.459C42.916,55 41.666,52.5 41.666,49.791C41.666,45.209 45.416,41.459 50,41.459C54.584,41.459 58.334,45.209 58.334,49.791C58.334,52.5 57.084,54.791 55,56.459L64.375,91.25C81.459,85.416 93.75,69.166 93.75,50C93.75,25.834 74.166,6.25 50,6.25ZM78.541,71.666C77.5,72.916 75.625,73.334 74.166,72.291C72.709,71.25 72.5,69.375 73.541,68.125C73.541,68.125 79.166,60.625 79.166,50C79.166,39.375 73.541,31.875 73.541,31.875C72.5,30.625 72.709,28.75 74.166,27.709C75.625,26.666 77.5,27.084 78.541,28.334C78.959,28.75 85.416,37.291 85.416,50C85.416,62.709 78.959,71.25 78.541,71.666ZM63.334,63.541C62.084,62.291 62.291,60 63.541,58.75C63.541,58.75 66.666,55.416 66.666,50C66.666,44.584 63.541,41.459 63.541,41.25C62.291,40 62.291,37.916 63.334,36.459C64.584,35 66.459,35 67.709,36.25C67.916,36.459 72.916,41.666 72.916,50C72.916,58.334 67.916,63.541 67.709,63.75C66.459,65 64.584,64.791 63.334,63.541ZM36.666,63.541C35.416,64.791 33.541,65 32.291,63.75C32.084,63.334 27.084,58.334 27.084,50C27.084,41.666 32.084,36.666 32.291,36.25C33.541,35 35.625,35 36.666,36.459C37.916,37.709 37.709,40 36.459,41.25C36.459,41.459 33.334,44.584 33.334,50C33.334,55.416 36.459,58.75 36.459,58.75C37.709,60 37.916,62.084 36.666,63.541ZM25.834,72.291C24.375,73.334 22.5,72.916 21.459,71.666C21.041,71.25 14.584,62.709 14.584,50C14.584,37.291 21.041,28.75 21.459,28.334C22.5,27.084 24.375,26.666 25.834,27.709C27.291,28.75 27.5,30.625 26.459,31.875C26.459,31.875 20.834,39.375 20.834,50C20.834,60.625 26.459,68.125 26.459,68.125C27.5,69.375 27.084,71.25 25.834,72.291Z" style="fill:#fc7e0f;"/>
</svg>