<svg width="100%" height="100%" viewBox="0 0 100 36" version="1.1" xmlns="http://www.w3.org/2000/svg" xmlns:xlink="http://www.w3.org/1999/xlink" xml:space="preserve" style="fill-rule:evenodd;clip-rule:evenodd;stroke-linejoin:round;stroke-miterlimit:1.41421;">
    <path d="M97.387,35.617L97.387,0L100,0L100,35.617L97.387,35.617ZM82.836,11.873L85.433,11.873L85.433,23.165L82.707,23.165L78.641,15.905L78.641,23.165L76.028,23.165L76.028,11.873L78.754,11.873L82.836,19.229L82.836,11.873ZM65.72,11.582C69.462,11.582 71.689,14.422 71.689,17.519C71.689,20.616 69.462,23.455 65.72,23.455C61.961,23.455 59.735,20.616 59.735,17.519C59.735,14.422 61.961,11.582 65.72,11.582ZM69.027,17.519C69.027,15.664 67.769,13.938 65.72,13.938C63.655,13.938 62.413,15.664 62.413,17.519C62.413,19.374 63.655,21.1 65.72,21.1C67.769,21.1 69.027,19.374 69.027,17.519ZM23.52,14.131L23.52,11.873L31.247,11.873L31.247,14.131L28.682,14.131L28.682,23.165L26.069,23.165L26.069,14.131L23.52,14.131ZM51.218,16.535L55.493,16.535L55.493,18.584L51.218,18.584L51.218,21.067L55.493,21.067L55.493,23.165L48.605,23.165L48.605,11.873L55.493,11.873L55.493,13.97L51.218,13.97L51.218,16.535ZM40.055,11.873C42.555,11.873 44.168,13.76 44.168,15.954C44.168,17.535 43.329,18.938 41.926,19.6L44.185,23.165L41.152,23.165L39.151,20.035L37.925,20.035L37.925,23.165L35.312,23.165L35.312,11.873L40.055,11.873ZM41.523,15.954C41.523,14.906 40.813,14.002 39.716,14.002L37.925,14.002L37.925,17.906L39.716,17.906C40.813,17.906 41.523,17.003 41.523,15.954ZM18.407,21.794L14.39,21.794L13.954,23.165L11.163,23.165L15.196,11.873L17.6,11.873L21.681,23.165L18.842,23.165L18.407,21.794ZM16.406,15.099L15.018,19.745L17.761,19.745L16.406,15.099ZM4.726,11.873C7.227,11.873 8.84,13.76 8.84,15.954C8.84,18.148 7.227,20.035 4.726,20.035L2.613,20.035L2.613,23.165L0,23.165L0,11.873L4.726,11.873ZM6.211,15.954C6.211,14.906 5.501,14.002 4.404,14.002L2.613,14.002L2.613,17.906L4.404,17.906C5.501,17.906 6.211,17.003 6.211,15.954Z" style="fill:#052d49;"/>
</svg>
