<svg width="100%" height="100%" viewBox="0 0 100 27" version="1.1" xmlns="http://www.w3.org/2000/svg" xml:space="preserve" style="fill-rule:evenodd;clip-rule:evenodd;stroke-linejoin:round;stroke-miterlimit:1.41421;">
    <path d="M12,0.001l-7.778,0c-0.532,0 -0.985,0.387 -1.068,0.912l-3.146,19.945c-0.062,0.394 0.242,0.749 0.642,0.749l3.713,0c0.532,0 0.985,-0.387 1.068,-0.914l0.848,-5.379c0.082,-0.527 0.536,-0.913 1.067,-0.913l2.462,0c5.124,0 8.081,-2.48 8.853,-7.393c0.348,-2.149 0.015,-3.838 -0.991,-5.021c-1.106,-1.299 -3.067,-1.986 -5.67,-1.986Zm0.897,7.285c-0.425,2.791 -2.557,2.791 -4.619,2.791l-1.174,0l0.823,-5.213c0.049,-0.315 0.322,-0.547 0.641,-0.547l0.538,0c1.404,0 2.729,0 3.414,0.801c0.408,0.478 0.533,1.187 0.377,2.168Z" style="fill:#253b80;fill-rule:nonzero;"/>
    <path d="M35.25,7.196l-3.725,0c-0.317,0 -0.591,0.232 -0.64,0.547l-0.165,1.042l-0.26,-0.378c-0.807,-1.17 -2.605,-1.561 -4.399,-1.561c-4.116,0 -7.632,3.117 -8.316,7.49c-0.356,2.181 0.15,4.267 1.387,5.722c1.135,1.337 2.759,1.894 4.692,1.894c3.316,0 5.155,-2.132 5.155,-2.132l-0.166,1.035c-0.063,0.396 0.242,0.751 0.639,0.751l3.355,0c0.534,0 0.984,-0.387 1.068,-0.914l2.013,-12.748c0.064,-0.392 -0.24,-0.748 -0.638,-0.748Zm-5.192,7.249c-0.359,2.128 -2.048,3.556 -4.202,3.556c-1.082,0 -1.946,-0.346 -2.501,-1.004c-0.55,-0.653 -0.76,-1.582 -0.585,-2.617c0.336,-2.11 2.053,-3.585 4.174,-3.585c1.058,0 1.918,0.352 2.484,1.015c0.568,0.67 0.793,1.605 0.63,2.635Z" style="fill:#253b80;fill-rule:nonzero;"/>
    <path d="M55.087,7.196l-3.743,0c-0.357,0 -0.692,0.177 -0.895,0.474l-5.162,7.604l-2.188,-7.307c-0.138,-0.457 -0.56,-0.771 -1.037,-0.771l-3.679,0c-0.447,0 -0.757,0.437 -0.615,0.857l4.123,12.099l-3.876,5.472c-0.305,0.431 0.002,1.023 0.529,1.023l3.738,0c0.355,0 0.687,-0.173 0.888,-0.464l12.449,-17.969c0.298,-0.43 -0.007,-1.018 -0.532,-1.018Z" style="fill:#253b80;fill-rule:nonzero;"/>
    <path d="M67.479,0.001l-7.779,0c-0.531,0 -0.984,0.387 -1.067,0.912l-3.145,19.945c-0.063,0.394 0.242,0.749 0.639,0.749l3.992,0c0.37,0 0.688,-0.271 0.746,-0.639l0.893,-5.654c0.081,-0.527 0.535,-0.913 1.066,-0.913l2.462,0c5.124,0 8.08,-2.48 8.854,-7.393c0.349,-2.149 0.013,-3.838 -0.993,-5.021c-1.105,-1.299 -3.064,-1.986 -5.668,-1.986Zm0.898,7.285c-0.424,2.791 -2.557,2.791 -4.62,2.791l-1.173,0l0.825,-5.213c0.049,-0.315 0.32,-0.547 0.639,-0.547l0.538,0c1.404,0 2.73,0 3.414,0.801c0.409,0.478 0.533,1.187 0.377,2.168Z" style="fill:#179bd7;fill-rule:nonzero;"/>
    <path d="M90.728,7.196l-3.722,0c-0.32,0 -0.591,0.232 -0.639,0.547l-0.165,1.042l-0.262,-0.378c-0.806,-1.17 -2.603,-1.561 -4.398,-1.561c-4.116,0 -7.63,3.117 -8.315,7.49c-0.354,2.181 0.149,4.267 1.387,5.722c1.137,1.337 2.759,1.894 4.691,1.894c3.317,0 5.156,-2.132 5.156,-2.132l-0.166,1.035c-0.063,0.396 0.242,0.751 0.641,0.751l3.354,0c0.531,0 0.984,-0.387 1.067,-0.914l2.014,-12.748c0.061,-0.392 -0.243,-0.748 -0.643,-0.748Zm-5.191,7.249c-0.358,2.128 -2.049,3.556 -4.203,3.556c-1.079,0 -1.946,-0.346 -2.501,-1.004c-0.55,-0.653 -0.757,-1.582 -0.584,-2.617c0.337,-2.11 2.052,-3.585 4.174,-3.585c1.057,0 1.917,0.352 2.483,1.015c0.57,0.67 0.795,1.605 0.631,2.635Z" style="fill:#179bd7;fill-rule:nonzero;"/>
    <path d="M95.12,0.548l-3.193,20.31c-0.062,0.394 0.242,0.749 0.639,0.749l3.21,0c0.533,0 0.986,-0.387 1.068,-0.914l3.148,-19.944c0.062,-0.393 -0.242,-0.749 -0.639,-0.749l-3.594,0c-0.318,0.001 -0.591,0.233 -0.639,0.548Z" style="fill:#179bd7;fill-rule:nonzero;"/>
</svg>