<svg width="100%" height="100%" viewBox="0 0 100 118" version="1.1" xmlns="http://www.w3.org/2000/svg" xml:space="preserve" style="fill-rule:evenodd;clip-rule:evenodd;stroke-linejoin:round;stroke-miterlimit:1.41421;">
    <path d="M28.409,113.988l2.045,-12.988l-4.555,-0.106l-21.751,0l15.116,-95.842c0.047,-0.29 0.199,-0.56 0.422,-0.751c0.223,-0.192 0.508,-0.297 0.806,-0.297l36.674,0c12.175,0 20.578,2.533 24.965,7.534c2.056,2.346 3.366,4.797 3.999,7.495c0.665,2.831 0.677,6.213 0.028,10.338l-0.047,0.301l0,2.643l2.056,1.165c1.732,0.919 3.109,1.971 4.164,3.175c1.76,2.006 2.898,4.555 3.378,7.577c0.497,3.109 0.333,6.807 -0.48,10.995c-0.939,4.817 -2.456,9.012 -4.505,12.445c-1.884,3.163 -4.285,5.786 -7.135,7.82c-2.721,1.931 -5.955,3.397 -9.611,4.336c-3.542,0.922 -7.581,1.388 -12.011,1.388l-2.854,0c-2.041,0 -4.023,0.735 -5.579,2.052c-1.56,1.345 -2.592,3.183 -2.909,5.193l-0.215,1.169l-3.613,22.892l-0.164,0.841c-0.043,0.265 -0.117,0.398 -0.227,0.488c-0.098,0.082 -0.238,0.137 -0.375,0.137l-17.622,0Z" style="fill:#253b80;fill-rule:nonzero;"/>
    <path d="M90.114,29.977c-0.109,0.7 -0.234,1.415 -0.375,2.15c-4.836,24.832 -21.383,33.41 -42.516,33.41l-10.76,0c-2.584,0 -4.762,1.877 -5.165,4.426l-5.509,34.939l-1.56,9.903c-0.262,1.674 1.029,3.183 2.718,3.183l19.084,0c2.26,0 4.179,-1.642 4.535,-3.871l0.188,-0.97l3.593,-22.802l0.231,-1.251c0.352,-2.236 2.275,-3.879 4.535,-3.879l2.854,0c18.49,0 32.964,-7.507 37.195,-29.23c1.767,-9.074 0.852,-16.652 -3.824,-21.981c-1.415,-1.607 -3.171,-2.94 -5.224,-4.027Z" style="fill:#179bd7;fill-rule:nonzero;"/>
    <path d="M85.055,27.959c-0.739,-0.215 -1.501,-0.41 -2.283,-0.586c-0.786,-0.172 -1.592,-0.325 -2.42,-0.458c-2.902,-0.469 -6.08,-0.692 -9.486,-0.692l-28.745,0c-0.708,0 -1.38,0.161 -1.982,0.45c-1.326,0.637 -2.311,1.892 -2.55,3.429l-6.115,38.731l-0.176,1.13c0.403,-2.549 2.581,-4.426 5.165,-4.426l10.76,0c21.133,0 37.68,-8.582 42.516,-33.41c0.145,-0.735 0.266,-1.45 0.375,-2.15c-1.223,-0.649 -2.549,-1.204 -3.976,-1.677c-0.352,-0.118 -0.715,-0.231 -1.083,-0.341Z" style="fill:#222d65;fill-rule:nonzero;"/>
    <path d="M37.589,30.102c0.239,-1.537 1.224,-2.792 2.55,-3.425c0.606,-0.289 1.274,-0.45 1.982,-0.45l28.745,0c3.406,0 6.584,0.223 9.486,0.692c0.828,0.133 1.634,0.286 2.42,0.458c0.782,0.176 1.544,0.371 2.283,0.586c0.368,0.11 0.731,0.223 1.087,0.337c1.427,0.473 2.753,1.032 3.976,1.677c1.439,-9.177 -0.011,-15.424 -4.973,-21.082c-5.47,-6.228 -15.342,-8.895 -27.975,-8.895l-36.675,0c-2.58,0 -4.781,1.877 -5.18,4.43l-15.276,96.828c-0.301,1.915 1.177,3.644 3.108,3.644l22.642,0l5.685,-36.069l6.115,-38.731Z" style="fill:#253b80;fill-rule:nonzero;"/>
</svg>