<svg width="100%" height="100%" viewBox="0 0 100 25" version="1.1" xmlns="http://www.w3.org/2000/svg" xml:space="preserve" style="fill-rule:evenodd;clip-rule:evenodd;stroke-linejoin:round;stroke-miterlimit:1.41421;">
    <path d="M37.392,5.461l-5.534,0c-0.379,0 -0.701,0.275 -0.76,0.649l-2.238,14.19c-0.044,0.28 0.172,0.532 0.456,0.532l2.642,0c0.379,0 0.701,-0.275 0.76,-0.649l0.604,-3.828c0.058,-0.374 0.381,-0.649 0.759,-0.649l1.751,0c3.646,0 5.75,-1.764 6.299,-5.26c0.248,-1.529 0.01,-2.731 -0.706,-3.572c-0.786,-0.924 -2.181,-1.413 -4.033,-1.413Zm0.638,5.183c-0.302,1.985 -1.82,1.985 -3.287,1.985l-0.835,0l0.586,-3.708c0.035,-0.224 0.229,-0.389 0.456,-0.389l0.382,0c1,0 1.942,0 2.429,0.569c0.291,0.34 0.38,0.845 0.269,1.543Z" style="fill:#253b80;fill-rule:nonzero;"/>
    <path d="M53.933,10.58l-2.65,0c-0.226,0 -0.421,0.165 -0.455,0.389l-0.118,0.741l-0.185,-0.269c-0.574,-0.832 -1.853,-1.111 -3.13,-1.111c-2.928,0 -5.429,2.218 -5.916,5.33c-0.254,1.551 0.107,3.035 0.987,4.07c0.807,0.952 1.963,1.348 3.338,1.348c2.359,0 3.668,-1.517 3.668,-1.517l-0.119,0.737c-0.044,0.281 0.173,0.534 0.455,0.534l2.387,0c0.38,0 0.7,-0.275 0.76,-0.65l1.432,-9.07c0.045,-0.279 -0.171,-0.532 -0.454,-0.532Zm-3.694,5.157c-0.255,1.514 -1.457,2.53 -2.989,2.53c-0.77,0 -1.385,-0.246 -1.78,-0.714c-0.391,-0.465 -0.54,-1.126 -0.416,-1.862c0.239,-1.501 1.461,-2.55 2.97,-2.55c0.752,0 1.364,0.25 1.767,0.721c0.404,0.477 0.564,1.142 0.448,1.875Z" style="fill:#253b80;fill-rule:nonzero;"/>
    <path d="M68.046,10.58l-2.662,0c-0.255,0 -0.493,0.126 -0.637,0.337l-3.673,5.41l-1.557,-5.199c-0.098,-0.325 -0.398,-0.548 -0.738,-0.548l-2.617,0c-0.318,0 -0.538,0.31 -0.437,0.61l2.933,8.608l-2.758,3.892c-0.217,0.307 0.002,0.729 0.377,0.729l2.659,0c0.253,0 0.489,-0.123 0.632,-0.331l8.857,-12.784c0.212,-0.306 -0.006,-0.724 -0.379,-0.724Z" style="fill:#253b80;fill-rule:nonzero;"/>
    <path d="M76.863,5.461l-5.535,0c-0.378,0 -0.7,0.275 -0.759,0.649l-2.238,14.19c-0.044,0.28 0.173,0.532 0.455,0.532l2.84,0c0.264,0 0.49,-0.192 0.531,-0.454l0.635,-4.023c0.058,-0.374 0.381,-0.649 0.759,-0.649l1.751,0c3.646,0 5.749,-1.764 6.299,-5.26c0.249,-1.529 0.01,-2.731 -0.706,-3.572c-0.786,-0.924 -2.18,-1.413 -4.032,-1.413Zm0.638,5.183c-0.301,1.985 -1.819,1.985 -3.286,1.985l-0.835,0l0.587,-3.708c0.035,-0.224 0.227,-0.389 0.455,-0.389l0.382,0c0.999,0 1.942,0 2.43,0.569c0.29,0.34 0.378,0.845 0.267,1.543Z" style="fill:#179bd7;fill-rule:nonzero;"/>
    <path d="M93.404,10.58l-2.649,0c-0.227,0 -0.42,0.165 -0.454,0.389l-0.118,0.741l-0.186,-0.269c-0.574,-0.832 -1.852,-1.111 -3.129,-1.111c-2.928,0 -5.428,2.218 -5.916,5.33c-0.252,1.551 0.106,3.035 0.987,4.07c0.809,0.952 1.963,1.348 3.338,1.348c2.359,0 3.667,-1.517 3.667,-1.517l-0.118,0.737c-0.044,0.281 0.173,0.534 0.457,0.534l2.386,0c0.378,0 0.7,-0.275 0.759,-0.65l1.433,-9.07c0.044,-0.279 -0.173,-0.532 -0.457,-0.532Zm-3.694,5.157c-0.254,1.514 -1.457,2.53 -2.99,2.53c-0.768,0 -1.384,-0.246 -1.779,-0.714c-0.392,-0.465 -0.539,-1.126 -0.416,-1.862c0.24,-1.501 1.46,-2.55 2.969,-2.55c0.753,0 1.365,0.25 1.768,0.721c0.405,0.477 0.565,1.142 0.448,1.875Z" style="fill:#179bd7;fill-rule:nonzero;"/>
    <path d="M96.528,5.85l-2.272,14.45c-0.044,0.28 0.173,0.532 0.455,0.532l2.284,0c0.379,0 0.701,-0.275 0.759,-0.649l2.24,-14.19c0.045,-0.28 -0.172,-0.533 -0.455,-0.533l-2.556,0c-0.226,0.001 -0.42,0.166 -0.455,0.39Z" style="fill:#179bd7;fill-rule:nonzero;"/>
    <path d="M5.879,23.59l0.423,-2.688l-0.942,-0.022l-4.501,0l3.128,-19.835c0.009,-0.059 0.041,-0.115 0.087,-0.155c0.046,-0.04 0.105,-0.061 0.167,-0.061l7.59,0c2.519,0 4.258,0.524 5.166,1.559c0.426,0.485 0.697,0.993 0.828,1.551c0.137,0.586 0.14,1.286 0.005,2.139l-0.009,0.063l0,0.547l0.425,0.241c0.359,0.19 0.644,0.408 0.862,0.657c0.364,0.415 0.6,0.942 0.699,1.568c0.103,0.643 0.069,1.409 -0.099,2.275c-0.194,0.997 -0.508,1.865 -0.932,2.576c-0.39,0.654 -0.887,1.197 -1.477,1.618c-0.563,0.4 -1.232,0.703 -1.989,0.897c-0.733,0.191 -1.569,0.288 -2.486,0.288l-0.59,0c-0.423,0 -0.833,0.152 -1.155,0.425c-0.323,0.278 -0.537,0.658 -0.602,1.074l-0.045,0.242l-0.747,4.738l-0.034,0.174c-0.009,0.055 -0.025,0.082 -0.047,0.101c-0.02,0.017 -0.05,0.028 -0.078,0.028l-3.647,0Z" style="fill:#253b80;fill-rule:nonzero;"/>
    <path d="M18.649,6.204c-0.022,0.145 -0.048,0.293 -0.077,0.445c-1.001,5.139 -4.426,6.914 -8.799,6.914l-2.227,0c-0.535,0 -0.985,0.388 -1.069,0.916l-1.14,7.231l-0.323,2.049c-0.054,0.346 0.213,0.659 0.563,0.659l3.949,0c0.468,0 0.865,-0.34 0.939,-0.801l0.039,-0.201l0.743,-4.719l0.048,-0.259c0.073,-0.463 0.471,-0.803 0.939,-0.803l0.59,0c3.827,0 6.822,-1.553 7.698,-6.049c0.365,-1.878 0.176,-3.446 -0.792,-4.549c-0.293,-0.332 -0.656,-0.608 -1.081,-0.833Z" style="fill:#179bd7;fill-rule:nonzero;"/>
    <path d="M17.602,5.786c-0.153,-0.044 -0.31,-0.085 -0.472,-0.121c-0.163,-0.036 -0.33,-0.067 -0.501,-0.095c-0.601,-0.097 -1.258,-0.143 -1.963,-0.143l-5.949,0c-0.146,0 -0.286,0.033 -0.41,0.093c-0.275,0.132 -0.478,0.392 -0.528,0.71l-1.265,8.015l-0.037,0.234c0.084,-0.528 0.534,-0.916 1.069,-0.916l2.227,0c4.373,0 7.798,-1.776 8.799,-6.914c0.03,-0.152 0.055,-0.3 0.077,-0.445c-0.253,-0.135 -0.527,-0.249 -0.823,-0.347c-0.072,-0.025 -0.148,-0.048 -0.224,-0.071Z" style="fill:#222d65;fill-rule:nonzero;"/>
    <path d="M7.779,6.23c0.05,-0.318 0.253,-0.578 0.528,-0.709c0.125,-0.06 0.264,-0.093 0.41,-0.093l5.949,0c0.705,0 1.362,0.046 1.963,0.143c0.171,0.028 0.338,0.059 0.501,0.095c0.162,0.036 0.319,0.077 0.472,0.121c0.076,0.023 0.152,0.046 0.225,0.07c0.296,0.098 0.57,0.213 0.823,0.347c0.298,-1.899 -0.002,-3.192 -1.029,-4.363c-1.132,-1.289 -3.175,-1.841 -5.79,-1.841l-7.589,0c-0.534,0 -0.99,0.388 -1.073,0.917l-3.161,20.038c-0.062,0.397 0.244,0.755 0.643,0.755l4.686,0l1.177,-7.465l1.265,-8.015Z" style="fill:#253b80;fill-rule:nonzero;"/>
</svg>