<svg width="100%" height="100%" viewBox="0 0 100 25" version="1.1" xmlns="http://www.w3.org/2000/svg" xmlns:xlink="http://www.w3.org/1999/xlink" xml:space="preserve" style="fill-rule:evenodd;clip-rule:evenodd;stroke-linejoin:round;stroke-miterlimit:1.41421;">
    <path d="M77.011,5.426l-5.499,0c-0.376,0 -0.696,0.273 -0.755,0.645l-2.223,14.099c-0.044,0.278 0.171,0.53 0.453,0.53l2.821,0c0.263,0 0.487,-0.192 0.528,-0.452l0.631,-3.997c0.058,-0.371 0.378,-0.645 0.754,-0.645l1.74,0c3.622,0 5.712,-1.753 6.259,-5.227c0.246,-1.519 0.01,-2.713 -0.702,-3.548c-0.782,-0.92 -2.168,-1.405 -4.007,-1.405Zm0.634,5.149c-0.3,1.974 -1.807,1.974 -3.266,1.974l-0.829,0l0.582,-3.685c0.035,-0.223 0.227,-0.387 0.452,-0.387l0.381,0c0.992,0 1.93,0 2.413,0.565c0.289,0.339 0.377,0.84 0.267,1.533Z" style="fill:#fff;fill-rule:nonzero;"/>
    <path d="M37.793,5.426l-5.498,0c-0.376,0 -0.696,0.273 -0.755,0.645l-2.224,14.099c-0.044,0.278 0.171,0.53 0.453,0.53l2.626,0c0.376,0 0.696,-0.274 0.754,-0.645l0.6,-3.804c0.059,-0.371 0.379,-0.645 0.755,-0.645l1.74,0c3.622,0 5.712,-1.753 6.258,-5.227c0.246,-1.519 0.01,-2.713 -0.701,-3.548c-0.782,-0.92 -2.169,-1.405 -4.008,-1.405Zm0.635,5.149c-0.301,1.974 -1.808,1.974 -3.266,1.974l-0.83,0l0.582,-3.685c0.035,-0.223 0.227,-0.387 0.453,-0.387l0.38,0c0.993,0 1.93,0 2.413,0.565c0.289,0.339 0.377,0.84 0.268,1.533Z" style="fill:#fff;fill-rule:nonzero;"/>
    <path d="M54.228,10.512l-2.633,0c-0.226,0 -0.418,0.164 -0.453,0.387l-0.116,0.736l-0.184,-0.267c-0.57,-0.827 -1.841,-1.104 -3.11,-1.104c-2.908,0 -5.394,2.205 -5.877,5.296c-0.252,1.542 0.105,3.017 0.98,4.045c0.803,0.946 1.95,1.339 3.316,1.339c2.345,0 3.645,-1.506 3.645,-1.506l-0.117,0.732c-0.045,0.278 0.17,0.53 0.452,0.53l2.371,0c0.376,0 0.696,-0.274 0.755,-0.645l1.423,-9.013c0.044,-0.279 -0.171,-0.53 -0.452,-0.53Zm-3.67,5.125c-0.254,1.504 -1.448,2.514 -2.972,2.514c-0.763,0 -1.375,-0.246 -1.768,-0.711c-0.389,-0.461 -0.536,-1.117 -0.412,-1.849c0.237,-1.491 1.451,-2.533 2.951,-2.533c0.747,0 1.354,0.247 1.755,0.717c0.403,0.473 0.562,1.134 0.446,1.862Z" style="fill:#fff;fill-rule:nonzero;"/>
    <path d="M93.445,10.512l-2.632,0c-0.226,0 -0.418,0.164 -0.453,0.387l-0.116,0.736l-0.184,-0.267c-0.57,-0.827 -1.841,-1.104 -3.11,-1.104c-2.909,0 -5.394,2.205 -5.877,5.296c-0.252,1.542 0.105,3.017 0.98,4.045c0.803,0.946 1.95,1.339 3.316,1.339c2.344,0 3.645,-1.506 3.645,-1.506l-0.118,0.732c-0.044,0.278 0.171,0.53 0.453,0.53l2.371,0c0.376,0 0.696,-0.274 0.755,-0.645l1.423,-9.013c0.044,-0.279 -0.171,-0.53 -0.453,-0.53Zm-3.669,5.125c-0.254,1.504 -1.448,2.514 -2.971,2.514c-0.764,0 -1.375,-0.246 -1.769,-0.711c-0.389,-0.461 -0.536,-1.117 -0.412,-1.849c0.237,-1.491 1.45,-2.533 2.95,-2.533c0.748,0 1.355,0.247 1.756,0.717c0.403,0.473 0.561,1.134 0.446,1.862Z" style="fill:#fff;fill-rule:nonzero;"/>
    <path d="M68.251,10.512l-2.647,0c-0.253,0 -0.489,0.126 -0.632,0.335l-3.65,5.376l-1.547,-5.166c-0.097,-0.323 -0.395,-0.545 -0.732,-0.545l-2.602,0c-0.314,0 -0.535,0.309 -0.434,0.606l2.914,8.554l-2.74,3.867c-0.216,0.303 0.002,0.723 0.374,0.723l2.643,0c0.251,0 0.486,-0.123 0.628,-0.329l8.802,-12.702c0.21,-0.303 -0.007,-0.719 -0.377,-0.719Z" style="fill:#fff;fill-rule:nonzero;"/>
    <path d="M96.549,5.813l-2.257,14.357c-0.044,0.278 0.171,0.53 0.453,0.53l2.269,0c0.376,0 0.696,-0.274 0.755,-0.645l2.225,-14.099c0.044,-0.279 -0.171,-0.53 -0.452,-0.53l-2.54,0c-0.226,0 -0.418,0.164 -0.453,0.387Z" style="fill:#fff;fill-rule:nonzero;"/>
    <path d="M18.529,6.164c0.297,-1.887 -0.001,-3.171 -1.022,-4.335c-1.124,-1.28 -3.155,-1.829 -5.752,-1.829l-7.541,0c-0.531,0 -0.983,0.386 -1.066,0.911l-3.14,19.911c-0.062,0.393 0.242,0.748 0.639,0.748l4.656,0l-0.322,2.038c-0.054,0.344 0.212,0.654 0.56,0.654l3.924,0c0.464,0 0.859,-0.338 0.932,-0.797l0.038,-0.199l0.74,-4.688l0.047,-0.259c0.073,-0.458 0.468,-0.797 0.932,-0.797l0.587,0c3.802,0 6.778,-1.544 7.648,-6.01c0.364,-1.867 0.176,-3.425 -0.786,-4.52c-0.29,-0.331 -0.652,-0.604 -1.074,-0.828" style="fill:#fff;fill-opacity:0.68;fill-rule:nonzero;"/>
    <path d="M18.529,6.164c0.297,-1.887 -0.001,-3.171 -1.022,-4.335c-1.124,-1.28 -3.155,-1.829 -5.752,-1.829l-7.541,0c-0.531,0 -0.983,0.386 -1.066,0.911l-3.14,19.911c-0.062,0.393 0.242,0.748 0.639,0.748l4.656,0l1.169,-7.415l-0.036,0.232c0.082,-0.524 0.531,-0.911 1.062,-0.911l2.212,0c4.346,0 7.748,-1.765 8.742,-6.871c0.03,-0.15 0.055,-0.297 0.077,-0.441" style="fill:#fff;fill-opacity:0.7;fill-rule:nonzero;"/>
    <path d="M7.728,6.189c0.05,-0.315 0.253,-0.574 0.525,-0.704c0.124,-0.059 0.263,-0.092 0.408,-0.092l5.911,0c0.7,0 1.353,0.045 1.95,0.142c0.17,0.027 0.336,0.059 0.498,0.094c0.161,0.036 0.318,0.076 0.469,0.121c0.076,0.022 0.15,0.045 0.224,0.069c0.293,0.098 0.566,0.212 0.817,0.346c0.296,-1.888 -0.002,-3.172 -1.023,-4.336c-1.124,-1.28 -3.155,-1.829 -5.752,-1.829l-7.541,0c-0.531,0 -0.983,0.386 -1.066,0.911l-3.14,19.911c-0.062,0.393 0.242,0.748 0.639,0.748l4.656,0l1.169,-7.415l1.256,-7.966Z" style="fill:#fff;fill-rule:nonzero;"/>
</svg>