<svg width="100%" height="100%" viewBox="0 0 100 100" version="1.1" xmlns="http://www.w3.org/2000/svg" xmlns:xlink="http://www.w3.org/1999/xlink" xml:space="preserve" xmlns:serif="http://www.serif.com/" style="fill-rule:evenodd;clip-rule:evenodd;stroke-linejoin:round;stroke-miterlimit:1.41421;">
    <path d="M50,100C77.614,100 100,77.614 100,50C100,22.386 77.614,0 50,0C22.386,0 0,22.386 0,50C0,77.614 22.386,100 50,100Z" style="fill:#f44336;fill-rule:nonzero;"/>
    <path d="M49.414,75.334C35.958,74.884 25.187,63.834 25.187,50.268C25.187,36.5 36.5,25.187 50.268,25.187C63.834,25.187 74.884,35.958 75.334,49.414C75.35,49.891 75.745,50.268 76.222,50.268L83.518,50.268C84.02,50.268 84.421,49.853 84.408,49.351C83.922,30.913 68.823,16.116 50.268,16.115C31.374,16.115 16.115,31.374 16.115,50.268C16.116,68.823 30.913,83.922 49.351,84.408C49.853,84.421 50.268,84.02 50.268,83.519L50.268,76.222C50.268,75.745 49.891,75.35 49.414,75.334ZM50.268,30.523C39.331,30.523 30.523,39.331 30.523,50.268C30.524,60.861 38.865,69.505 49.338,69.99C49.844,70.014 50.268,69.608 50.268,69.101L50.268,63.311C50.268,62.856 49.896,62.455 49.442,62.425C43.098,62 38.083,56.72 38.083,50.268C38.083,43.53 43.53,38.083 50.268,38.083C56.72,38.083 62,43.098 62.425,49.442C62.455,49.896 62.856,50.268 63.311,50.268L69.101,50.268C69.608,50.268 70.014,49.844 69.99,49.338C69.505,38.865 60.861,30.524 50.268,30.523Z" style="fill:#fff;fill-rule:nonzero;"/>
</svg>