<svg width="100%" height="100%" viewBox="0 0 100 82" version="1.1" xmlns="http://www.w3.org/2000/svg" xmlns:xlink="http://www.w3.org/1999/xlink" xml:space="preserve" style="fill-rule:evenodd;clip-rule:evenodd;stroke-linejoin:round;stroke-miterlimit:1.41421;">
    <path d="M31.448,81.255C69.184,81.255 89.824,49.991 89.824,22.879C89.824,21.991 89.824,21.107 89.764,20.227C93.779,17.323 97.246,13.727 100,9.607C96.256,11.266 92.283,12.354 88.216,12.835C92.498,10.272 95.705,6.237 97.236,1.487C93.209,3.877 88.802,5.561 84.208,6.467C80.329,2.342 74.911,0 69.248,0C57.982,0 48.712,9.27 48.712,20.536C48.712,22.099 48.891,23.657 49.244,25.179C32.756,24.352 17.373,16.554 6.96,3.743C1.545,13.065 4.347,25.145 13.312,31.131C10.047,31.034 6.853,30.154 4,28.563C4,28.647 4,28.735 4,28.823C4.003,38.552 10.923,47.009 20.46,48.935C17.44,49.759 14.27,49.879 11.196,49.287C13.877,57.624 21.608,63.371 30.364,63.535C23.1,69.244 14.122,72.344 4.884,72.335C3.252,72.332 1.621,72.233 0,72.039C9.382,78.06 20.301,81.254 31.448,81.239" style="fill:#1da1f2;fill-rule:nonzero;"/>
</svg>