<svg width="100%" height="100%" viewBox="0 0 417 94" version="1.1" xmlns="http://www.w3.org/2000/svg" xmlns:xlink="http://www.w3.org/1999/xlink" xml:space="preserve" style="fill-rule:evenodd;clip-rule:evenodd;stroke-linejoin:round;stroke-miterlimit:1.41421;">
    <path d="M53.152,66.442L53.152,26.577L87.676,46.51L53.152,66.442ZM130.107,14.525C128.578,8.808 124.076,4.305 118.359,2.777C107.995,0 66.441,0 66.441,0C66.441,0 24.888,0 14.524,2.777C8.808,4.305 4.304,8.808 2.776,14.525C0,24.888 0,46.51 0,46.51C0,46.51 0,68.131 2.776,78.493C4.304,84.211 8.808,88.714 14.524,90.242C24.888,93.018 66.441,93.018 66.441,93.018C66.441,93.018 107.995,93.018 118.359,90.242C124.076,88.714 128.578,84.211 130.107,78.493C132.884,68.131 132.884,46.51 132.884,46.51C132.884,46.51 132.884,24.888 130.107,14.525Z" style="fill:#fff;fill-rule:nonzero;"/>
    <path d="M207.61,75.499C208.337,73.6 208.703,70.496 208.703,66.188L208.703,48.037C208.703,43.856 208.337,40.8 207.61,38.867C206.881,36.935 205.598,35.968 203.762,35.968C201.987,35.968 200.735,36.935 200.008,38.867C199.279,40.8 198.915,43.856 198.915,48.037L198.915,66.188C198.915,70.496 199.263,73.6 199.961,75.499C200.656,77.4 201.923,78.35 203.762,78.35C205.598,78.35 206.881,77.4 207.61,75.499ZM192.881,84.623C190.251,82.851 188.381,80.093 187.274,76.355C186.165,72.618 185.612,67.645 185.612,61.436L185.612,52.978C185.612,46.706 186.244,41.669 187.512,37.869C188.778,34.068 190.757,31.297 193.451,29.554C196.143,27.813 199.675,26.941 204.047,26.941C208.355,26.941 211.807,27.828 214.405,29.602C217.001,31.375 218.902,34.148 220.107,37.916C221.309,41.687 221.912,46.706 221.912,52.978L221.912,61.436C221.912,67.645 221.325,72.635 220.154,76.403C218.981,80.173 217.08,82.929 214.452,84.67C211.822,86.412 208.26,87.283 203.762,87.283C199.136,87.283 195.509,86.396 192.881,84.623Z" style="fill:#fff;fill-rule:nonzero;"/>
    <path d="M396.377,37.057C395.713,37.881 395.268,39.227 395.047,41.095C394.824,42.964 394.716,45.8 394.716,49.601L394.716,53.782L404.312,53.782L404.312,49.601C404.312,45.863 404.185,43.028 403.932,41.095C403.679,39.163 403.22,37.803 402.555,37.01C401.889,36.218 400.86,35.822 399.466,35.822C398.072,35.822 397.042,36.234 396.377,37.057ZM394.716,61.575L394.716,64.521C394.716,68.259 394.824,71.062 395.047,72.93C395.268,74.799 395.726,76.162 396.425,77.018C397.122,77.872 398.197,78.301 399.657,78.301C401.619,78.301 402.966,77.539 403.695,76.019C404.422,74.498 404.818,71.965 404.882,68.417L416.191,69.082C416.254,69.59 416.286,70.286 416.286,71.172C416.286,76.558 414.814,80.581 411.867,83.241C408.922,85.902 404.755,87.233 399.371,87.233C392.91,87.233 388.379,85.206 385.782,81.15C383.183,77.097 381.885,70.825 381.885,62.335L381.885,52.166C381.885,43.424 383.232,37.043 385.925,33.018C388.617,28.995 393.226,26.984 399.752,26.984C404.248,26.984 407.702,27.807 410.109,29.455C412.516,31.103 414.211,33.668 415.193,37.152C416.176,40.637 416.667,45.452 416.667,51.596L416.667,61.575L394.716,61.575Z" style="fill:#fff;fill-rule:nonzero;"/>
    <path d="M160.948,60.483L146.028,6.602L159.047,6.602L164.273,31.024C165.605,37.045 166.586,42.176 167.219,46.419L167.6,46.419C168.043,43.378 169.025,38.28 170.545,31.119L175.962,6.602L188.981,6.602L173.872,60.483L173.872,86.333L160.948,86.333L160.948,60.483Z" style="fill:#fff;fill-rule:nonzero;"/>
    <path d="M264.254,28.081L264.254,86.333L253.99,86.333L252.849,79.206L252.565,79.206C249.777,84.591 245.595,87.283 240.021,87.283C236.157,87.283 233.306,86.016 231.468,83.482C229.631,80.949 228.713,76.988 228.713,71.604L228.713,28.081L241.827,28.081L241.827,70.843C241.827,73.442 242.112,75.295 242.682,76.402C243.252,77.512 244.203,78.065 245.533,78.065C246.674,78.065 247.766,77.718 248.811,77.02C249.857,76.323 250.632,75.437 251.14,74.36L251.14,28.081L264.254,28.081Z" style="fill:#fff;fill-rule:nonzero;"/>
    <path d="M331.52,28.081L331.52,86.333L321.256,86.333L320.116,79.206L319.832,79.206C317.042,84.591 312.861,87.283 307.287,87.283C303.423,87.283 300.572,86.016 298.734,83.482C296.897,80.949 295.979,76.988 295.979,71.604L295.979,28.081L309.093,28.081L309.093,70.843C309.093,73.442 309.377,75.295 309.947,76.402C310.518,77.512 311.469,78.065 312.799,78.065C313.94,78.065 315.032,77.718 316.077,77.02C317.123,76.323 317.898,75.437 318.406,74.36L318.406,28.081L331.52,28.081Z" style="fill:#fff;fill-rule:nonzero;"/>
    <path d="M299.888,17.152L286.87,17.152L286.87,86.333L274.041,86.333L274.041,17.152L261.023,17.152L261.023,6.603L299.888,6.603L299.888,17.152Z" style="fill:#fff;fill-rule:nonzero;"/>
    <path d="M362.902,61.154C362.902,65.399 362.726,68.725 362.378,71.132C362.03,73.54 361.444,75.251 360.62,76.263C359.796,77.277 358.686,77.783 357.295,77.783C356.216,77.783 355.219,77.531 354.301,77.023C353.381,76.517 352.638,75.756 352.067,74.742L352.067,41.673C352.51,40.09 353.271,38.79 354.348,37.776C355.425,36.765 356.596,36.256 357.864,36.256C359.195,36.256 360.223,36.779 360.953,37.824C361.68,38.869 362.187,40.627 362.473,43.099C362.758,45.569 362.902,49.084 362.902,53.646L362.902,61.154ZM374.922,37.393C374.129,33.719 372.846,31.058 371.073,29.41C369.298,27.764 366.859,26.94 363.756,26.94C361.348,26.94 359.1,27.621 357.009,28.983C354.919,30.345 353.302,32.135 352.163,34.352L352.066,34.352L352.067,3.658L339.429,3.658L339.429,86.332L350.261,86.332L351.593,80.821L351.877,80.821C352.89,82.784 354.41,84.336 356.438,85.477C358.465,86.617 360.715,87.188 363.186,87.188C367.619,87.188 370.882,85.144 372.974,81.058C375.064,76.972 376.11,70.59 376.11,61.91L376.11,52.693C376.11,46.168 375.713,41.068 374.922,37.393Z" style="fill:#fff;fill-rule:nonzero;"/>
</svg>