<svg width="100%" height="100%" viewBox="0 0 417 292" version="1.1" xmlns="http://www.w3.org/2000/svg" xmlns:xlink="http://www.w3.org/1999/xlink" xml:space="preserve" style="fill-rule:evenodd;clip-rule:evenodd;stroke-linejoin:round;stroke-miterlimit:1.41421;">
    <path d="M407.958,45.544C403.167,27.617 389.05,13.5 371.123,8.708C338.625,0 208.332,0 208.332,0C208.332,0 78.038,0 45.541,8.708C27.617,13.5 13.496,27.617 8.705,45.544C0,78.038 0,145.834 0,145.834C0,145.834 0,213.631 8.705,246.121C13.496,264.048 27.617,278.169 45.541,282.96C78.038,291.665 208.332,291.665 208.332,291.665C208.332,291.665 338.625,291.665 371.123,282.96C389.05,278.169 403.167,264.048 407.958,246.121C416.667,213.631 416.667,145.834 416.667,145.834C416.667,145.834 416.667,78.038 407.958,45.544Z" style="fill:#ed1f24;fill-rule:nonzero;"/>
    <path d="M166.663,208.335L274.914,145.834L166.663,83.333L166.663,208.335Z" style="fill:#fff;fill-rule:nonzero;"/>
</svg>