<svg width="100%" height="100%" viewBox="0 0 417 294" version="1.1" xmlns="http://www.w3.org/2000/svg" xmlns:xlink="http://www.w3.org/1999/xlink" xml:space="preserve" style="fill-rule:evenodd;clip-rule:evenodd;stroke-linejoin:round;stroke-miterlimit:1.41421;">
    <path d="M165.72,208.733L165.72,84.83L274.621,146.783L165.72,208.733ZM407.959,45.84C403.168,27.798 389.048,13.587 371.122,8.764C338.629,0 208.333,0 208.333,0C208.333,0 78.037,0 45.542,8.764C27.616,13.587 13.497,27.798 8.705,45.84C0,78.546 0,146.78 0,146.78C0,146.78 0,215.017 8.705,247.72C13.497,265.765 27.616,279.974 45.542,284.799C78.037,293.561 208.333,293.561 208.333,293.561C208.333,293.561 338.629,293.561 371.122,284.799C389.048,279.974 403.168,265.765 407.959,247.72C416.667,215.017 416.667,146.78 416.667,146.78C416.667,146.78 416.667,78.546 407.959,45.84Z" style="fill:#fff;fill-rule:nonzero;"/>
</svg>