<svg xmlns="http://www.w3.org/2000/svg" fill="none" viewBox="0 0 900 600" title="Flag of Canada">
    <path fill="#fff" d="M179.075 0h541.85v600h-541.85z"/>
    <path fill="#b0313f" d="M0 0h179.075v600H0z"/>
    <path fill="#b0313f" d="M720.925 0H900v600H720.925z"/>
    <path fill="#b0313f" class="srp-emblem" d="M455.291 445.875l5.622 107.875h-22.487l5.622-107.875a11.885 11.885 0 00-4.001-9.449 11.862 11.862 0 00-9.867-2.801L322.864 452.5l14.492-40a8.13 8.13 0 00-2.498-9.125l-117.56-95.25 26.485-12.375a8.128 8.128 0 004.248-9.875l-23.238-71.5 67.713 14.375a8.113 8.113 0 005.407-.747 8.126 8.126 0 003.713-4.003l13.118-30.875 52.846 56.75a8.117 8.117 0 0013.194-2.033 8.126 8.126 0 00.673-5.092l-25.486-131.5 40.853 23.625a8.12 8.12 0 009.323-.783 8.121 8.121 0 002.045-2.592L449.67 50l41.477 81.5a8.121 8.121 0 008.241 4.431 8.12 8.12 0 003.127-1.056l40.853-23.625-25.486 131.5a8.123 8.123 0 009.339 9.544 8.117 8.117 0 004.528-2.419l52.846-56.75L597.713 224a8.126 8.126 0 003.713 4.003 8.113 8.113 0 005.407.747l67.713-14.375-23.238 71.5a8.129 8.129 0 004.248 9.875l26.486 12.375-117.561 95.25a8.131 8.131 0 00-2.498 9.125l14.492 40-107.316-18.875a11.857 11.857 0 00-9.867 2.801 11.897 11.897 0 00-3.073 4.27 11.896 11.896 0 00-.928 5.179z"/>
</svg>