<svg class="bell" xmlns="http://www.w3.org/2000/svg" width="10" height="12" viewBox="0 0 10 12" fill="#e4bda9" >
  <path fill-rule="evenodd" d="M799.4,1163.36c-0.689-.62-1.181-2.28-1.181-4.24a3.365,3.365,0,0,0-2.16-3.18,1.061,1.061,0,0,0-2.108,0,3.365,3.365,0,0,0-2.16,3.18c0,1.95-.492,3.61-1.18,4.24a1.884,1.884,0,0,0-.606,1.39,1.1,1.1,0,0,0,1.072,1.12h2.857a1.073,1.073,0,1,0,2.143,0h2.857a1.1,1.1,0,0,0,1.071-1.12A1.886,1.886,0,0,0,799.4,1163.36Zm-8.323,1.39a0.732,0.732,0,0,1,.234-0.54c0.957-.87,1.551-2.82,1.551-5.09a2.145,2.145,0,1,1,4.286,0c0,2.27.594,4.22,1.551,5.09a0.733,0.733,0,0,1,.235.54h-7.857Z" transform="translate(-790 -1155)"/>
</svg>