<svg class="cart" version="1.1" xmlns="http://www.w3.org/2000/svg" xmlns:xlink="http://www.w3.org/1999/xlink" x="0px" y="0px"
	 viewBox="0 0 20 28" style="enable-background:new 0 0 20 28;" xml:space="preserve">
<path d="M10,0C7.1,0,4.7,2.4,4.7,5.4v0.3H2.5c-1,0-1.8,0.9-1.9,1.9L0,26.1C0,27.1,0.8,28,1.9,28h16.2c1,0,1.9-0.9,1.9-1.9L19.4,7.6
	c0-1-0.8-1.9-1.9-1.9h-2.2V5.4C15.3,2.4,12.9,0,10,0z M10,1.3c2.3,0,4.1,1.8,4.1,4.1v0.3H5.9V5.4C5.9,3.1,7.7,1.3,10,1.3z M2.5,7
	h2.2v1.7C4,9,3.4,9.7,3.4,10.5c0,1,0.8,1.9,1.9,1.9c1,0,1.9-0.9,1.9-1.9c0-0.8-0.5-1.5-1.2-1.8V7h8.1v1.7c-0.7,0.3-1.2,1-1.2,1.8
	c0,1,0.8,1.9,1.9,1.9c1,0,1.9-0.9,1.9-1.9c0-0.8-0.5-1.5-1.2-1.8V7h2.2c0.4,0,0.6,0.3,0.6,0.7l0.6,18.5c0,0.3-0.3,0.6-0.6,0.6H1.9
	c-0.4,0-0.6-0.3-0.6-0.6L1.9,7.7C1.9,7.3,2.1,7,2.5,7z M5.3,9.9c0.4,0,0.6,0.3,0.6,0.6c0,0.4-0.3,0.6-0.6,0.6
	c-0.4,0-0.6-0.3-0.6-0.6C4.7,10.1,5,9.9,5.3,9.9z M14.7,9.9c0.4,0,0.6,0.3,0.6,0.6c0,0.4-0.3,0.6-0.6,0.6c-0.4,0-0.6-0.3-0.6-0.6
	C14.1,10.1,14.3,9.9,14.7,9.9z"/>
</svg>
