<svg width="100%" height="100%" viewBox="0 0 100 101" version="1.1" xmlns="http://www.w3.org/2000/svg" xmlns:xlink="http://www.w3.org/1999/xlink" xml:space="preserve" style="fill-rule:evenodd;clip-rule:evenodd;stroke-linecap:round;stroke-linejoin:round;stroke-miterlimit:1.5;">
    <circle cx="50.083" cy="50.11" r="47.016" style="fill:none;stroke:#000;stroke-width:3.5px;"/>
    <path d="M49.927,77.289C51.689,77.289 54.368,74.938 54.332,74.822L76.694,52.883C77.664,51.297 77.664,49.359 76.783,47.773C75.902,46.187 74.228,45.219 72.378,45.219L62.043,45.219L62.043,28.041C62.043,25.223 60.087,22.931 57.268,22.931L43.028,22.931C40.208,22.931 38.253,25.223 38.253,28.041L38.253,45.219L27.79,45.219C25.94,45.219 24.266,46.187 23.385,47.773C22.503,49.359 22.503,51.297 23.473,52.883L45.698,74.822C45.664,74.919 48.165,77.289 49.927,77.289Z" style="fill-rule:nonzero;"/>
</svg>