<svg class="google" version="1.1" xmlns="http://www.w3.org/2000/svg" xmlns:xlink="http://www.w3.org/1999/xlink" x="0px" y="0px"
	 viewBox="0 0 67.6 68.8" style="enable-background:new 0 0 67.6 68.8;" xml:space="preserve">
	<path d="M5.1,32.9C5.3,17.8,19.2,4.5,34.4,5c7.3-0.3,14.1,2.8,19.6,7.3c-2.4,2.7-4.8,5.3-7.4,7.7c-6.7-4.6-16.2-5.9-22.9-0.6
		c-9.6,6.6-10,22.2-0.8,29.3c8.9,8.1,25.8,4.1,28.3-8.3c-5.6-0.1-11.2,0-16.8-0.2c0-3.3,0-6.7,0-10c9.4,0,18.7,0,28.1,0
		c0.6,7.9-0.5,16.2-5.3,22.7c-7.3,10.3-22,13.3-33.4,8.9C12.2,57.4,4.1,45.3,5.1,32.9z"/>
</svg>