<svg width="100%" height="100%" viewBox="0 0 100 100" version="1.1" xmlns="http://www.w3.org/2000/svg" xmlns:xlink="http://www.w3.org/1999/xlink" xml:space="preserve" style="fill-rule:evenodd;clip-rule:evenodd;stroke-linejoin:round;stroke-miterlimit:1.41421;">
    <path d="M62.142,68.791C61.244,70.229 60.165,71.487 59.089,72.745L38.778,93.054C29.453,102.378 15.328,102.133 6.608,93.413C-2.326,84.479 -2.196,70.403 6.968,61.243L27.276,40.934C37.738,30.464 56.15,32.383 63.221,46.506C63.58,47.225 63.4,47.944 62.861,48.483C60.48,50.864 57.834,52.104 54.594,51.179C53.875,50.999 53.156,50.46 52.617,49.921C48.954,44.428 40.198,43.111 34.825,48.483L14.336,68.791C9.574,73.552 9.02,80.728 13.977,85.683C18.815,90.521 26.322,90.286 30.871,85.326L48.124,68.071C52.764,69.521 57.804,69.661 62.142,68.791ZM93.234,6.608C84.298,-2.326 70.224,-2.195 61.064,6.967L40.576,27.276C39.318,28.534 38.419,29.792 37.52,31.229C42.722,30.191 46.886,30.755 51.359,31.948L68.614,14.695C73.423,9.884 80.591,9.417 85.506,14.336C90.344,19.174 90.109,26.681 85.148,31.229L64.838,51.538C59.295,57.086 50.649,55.332 47.047,49.922C46.508,49.203 45.969,48.844 45.07,48.664C41.837,47.74 39.192,48.972 36.803,51.36C36.264,51.899 36.084,52.798 36.444,53.337C42.497,65.441 58.616,70.704 72.388,58.91L92.697,38.602C100.948,30.347 102.833,16.575 93.234,6.608Z" style="fill-rule:nonzero;"/>
</svg>