<svg width="100%" height="100%" viewBox="0 0 100 100" version="1.1" xmlns="http://www.w3.org/2000/svg" xmlns:xlink="http://www.w3.org/1999/xlink" xml:space="preserve" style="fill-rule:evenodd;clip-rule:evenodd;stroke-linejoin:round;stroke-miterlimit:1.41421;">
    <path d="M6.624,61.316C-2.208,70.148 -2.208,84.544 6.624,93.376C15.455,102.208 29.852,102.208 38.684,93.376L57.543,74.517C65.992,66.068 66.399,52.536 58.663,43.635C58.602,43.564 58.538,43.495 58.471,43.429C56.916,41.874 54.356,41.874 52.801,43.429C51.315,44.915 51.236,47.33 52.623,48.91C57.663,54.71 57.429,63.316 51.886,68.859L33.026,87.718C27.231,93.514 18.077,93.514 12.282,87.719C6.486,81.923 6.486,72.769 12.282,66.974L31.141,48.114C31.154,48.101 31.168,48.088 31.181,48.075C32.733,46.523 32.733,43.968 31.181,42.416C29.629,40.864 27.075,40.864 25.523,42.416C25.51,42.43 25.496,42.443 25.483,42.457L6.624,61.316L6.624,61.316ZM42.457,25.483C34.008,33.932 33.601,47.464 41.337,56.365C41.396,56.433 41.458,56.499 41.522,56.563C43.077,58.119 45.637,58.119 47.192,56.563C48.676,55.08 48.757,52.67 47.377,51.09C42.337,45.29 42.571,36.684 48.114,31.141L66.973,12.282C72.769,6.486 81.923,6.486 87.719,12.282C93.514,18.077 93.514,27.231 87.718,33.026L68.859,51.886C68.846,51.898 68.833,51.911 68.82,51.924C67.268,53.476 67.268,56.03 68.82,57.582C70.372,59.134 72.926,59.134 74.478,57.582C74.491,57.57 74.504,57.557 74.517,57.544L93.376,38.684C102.208,29.852 102.208,15.455 93.376,6.624C84.545,-2.208 70.148,-2.208 61.316,6.624L42.457,25.483L42.457,25.483Z" style="fill-rule:nonzero;"/>
</svg>