<svg class="lock" version="1.1" xmlns="http://www.w3.org/2000/svg" xmlns:xlink="http://www.w3.org/1999/xlink" x="0px" y="0px"
	 viewBox="0 0 21 25.1" style="enable-background:new 0 0 21 25.1;" xml:space="preserve">
<path style="fill: #fefefe;stroke:#382527;stroke-linecap:round;stroke-linejoin:round;stroke-miterlimit:10;" d="M16.7,9.5v-3c0-3.3-2.8-6-6.2-6c-3.4,0-6.2,2.7-6.2,6v3H2c-0.9,0-1.5,0.7-1.5,1.5v12.1c0,0.8,0.7,1.5,1.5,1.5
	H19c0.9,0,1.5-0.7,1.5-1.5V11.1c0-0.8-0.7-1.5-1.5-1.5H16.7z M6.7,6.5c0-2.1,1.7-3.8,3.9-3.8s3.9,1.7,3.9,3.8v3H6.7V6.5z M18.2,22.4
	H2.8V11.8h15.4V22.4z"/>
</svg>