<svg class="mail" xmlns="http://www.w3.org/2000/svg" width="17" height="14" viewBox="0 0 17 14">
  <path fill="#382527" style="fill-rule: evenodd;" d="M1061.06,772a1.072,1.072,0,0,0-1.06,1.077v11.846a1.072,1.072,0,0,0,1.06,1.077h14.88a1.072,1.072,0,0,0,1.06-1.077V773.077a1.072,1.072,0,0,0-1.06-1.077h-14.88Zm14.35,1.616v0.422l-6.91,5.874-6.91-5.874v-0.422h13.82Zm-13.82,10.769v-8.238l6.23,5.293a1.035,1.035,0,0,0,.68.252,1.054,1.054,0,0,0,.68-0.252l6.23-5.293v8.238h-13.82Z" transform="translate(-1060 -772)"/>
</svg>