<svg width="100%" height="100%" viewBox="0 0 71 100" version="1.1" xmlns="http://www.w3.org/2000/svg" xmlns:xlink="http://www.w3.org/1999/xlink" xml:space="preserve" style="fill-rule:evenodd;clip-rule:evenodd;stroke-linejoin:round;stroke-miterlimit:1.41421;">
    <path d="M23.333,88.333C23.333,94.792 18.125,100 11.667,100C5.208,100 0,94.792 0,88.333L0,11.667C0,5.208 5.208,0 11.667,0C18.125,0 23.333,5.208 23.333,11.667L23.333,88.333ZM70.208,88.333C70.208,94.792 65,100 58.542,100C52.083,100 46.875,94.792 46.875,88.333L46.875,11.667C46.875,5.208 52.083,0 58.542,0C65,0 70.208,5.208 70.208,11.667L70.208,88.333Z" style="fill-rule:nonzero;"/>
</svg>