<svg width="100%" height="100%" viewBox="0 0 100 101" version="1.1" xmlns="http://www.w3.org/2000/svg" xmlns:xlink="http://www.w3.org/1999/xlink" xml:space="preserve" style="fill-rule:evenodd;clip-rule:evenodd;stroke-linecap:round;stroke-linejoin:round;stroke-miterlimit:1.5;">
    <circle cx="50.083" cy="50.11" r="47.016" style="fill:none;stroke:#000;stroke-width:3.5px;"/>
    <path d="M43.669,71.001C43.669,74.52 40.83,77.358 37.311,77.358C33.791,77.358 30.953,74.52 30.953,71.001L30.953,29.22C30.953,25.7 33.791,22.862 37.311,22.862C40.83,22.862 43.669,25.7 43.669,29.22L43.669,71.001ZM69.214,71.001C69.214,74.52 66.376,77.358 62.856,77.358C59.337,77.358 56.498,74.52 56.498,71.001L56.498,29.22C56.498,25.7 59.337,22.862 62.856,22.862C66.376,22.862 69.214,25.7 69.214,29.22L69.214,71.001Z" style="fill-rule:nonzero;"/>
</svg>