<svg xmlns="http://www.w3.org/2000/svg" viewBox="0 0 310.05 310.05"><path d="M245.3 31.8C224 11.3 194.3 0 162 0c-49 0-79.5 20.2-96.2 37.2-20.7 21-32.5 48.6-32.5 76 0 34.6 14.4 61 38.6 71 1.6.6 3.2 1 4.8 1 5 0 9.2-3.4 10.6-8.7l3.5-14c1.8-6.4.4-9.6-3.5-14-7-8.4-10.2-18.2-10.2-31 0-37.7 28-78 80.3-78 41.4 0 67.2 23.6 67.2 61.5 0 24-5.2 46-14.5 62.4-6.5 11.3-18 24.8-35.5 24.8-7.6 0-14.4-3-18.7-8.5-4-5.2-5.4-11.8-3.8-18.7 2-7.8 4.4-16 6.8-24 4.4-14.3 8.6-28 8.6-38.7 0-18.6-11.4-31-28.3-31-21.5 0-38.4 22-38.4 49.8 0 14 3.7 24 5.3 28l-22 93c-1.8 7.5-12.5 67 5.2 71.7 19.8 5.3 37.6-52.6 39.4-59.2l9.7-37.8c9.6 9.2 25 15.4 40 15.4 28.3 0 53.7-12.6 71.6-35.7 17.3-22.4 27-53.7 27-88 0-26.8-11.7-53.2-31.7-72.5z"/></svg>