<svg class="pinterest" xmlns="http://www.w3.org/2000/svg" xmlns:xlink="http://www.w3.org/1999/xlink" viewbox="0 0 12 16" preserveAspectRatio="xMidYMid meet">
<path fill="rgb(27,31,35)" fill-rule="evenodd" d="M 4.93 10.58C 4.53 12.78 4.03 14.9 2.57 16 2.12 12.67 3.23 10.17 3.75 7.52 2.87 5.97 3.86 2.87 5.72 3.63 8.01 4.57 3.73 9.37 6.61 9.97 9.61 10.59 10.83 4.57 8.97 2.61 6.29-0.22 1.15 2.54 1.78 6.6 1.93 7.59 2.92 7.89 2.17 9.25 0.45 8.86-0.06 7.45 0.01 5.57 0.11 2.5 2.67 0.35 5.23 0.05 8.47-0.32 11.51 1.29 11.93 4.45 12.4 8.02 10.47 11.88 7 11.6 6.06 11.53 5.67 11.05 4.93 10.58Z"/>
</svg>