<svg width="100%" height="100%" viewBox="0 0 40 40" version="1.1" xmlns="http://www.w3.org/2000/svg" xmlns:xlink="http://www.w3.org/1999/xlink" xml:space="preserve" xmlns:serif="http://www.serif.com/" style="fill-rule:evenodd;clip-rule:evenodd;stroke-linejoin:round;stroke-miterlimit:1.41421;">
    <path d="M24.901,0.422C24.893,0.422 24.886,0.422 24.878,0.422C16.835,0.422 10.216,7.037 10.216,15.076C10.216,18.341 11.307,21.514 13.316,24.088L0.948,36.431C0.246,37.153 0.246,38.318 0.948,39.04C1.296,39.383 1.765,39.576 2.254,39.578C2.743,39.582 3.214,39.388 3.559,39.04L15.894,26.698C18.469,28.693 21.636,29.777 24.893,29.777C32.949,29.777 39.578,23.151 39.578,15.099C39.578,7.05 32.954,0.426 24.901,0.422ZM24.901,26.107C24.895,26.107 24.89,26.107 24.885,26.107C18.843,26.107 13.871,21.138 13.871,15.099C13.871,9.06 18.843,4.091 24.885,4.091C30.926,4.091 35.898,9.06 35.898,15.099C35.898,21.132 30.937,26.099 24.901,26.107Z"/>
</svg>