<svg xmlns="http://www.w3.org/2000/svg" xmlns:xlink="http://www.w3.org/1999/xlink" x="0px" y="0px"
	 viewBox="0 0 20 18" enable-background="new 0 0 20 18" xml:space="preserve">
<path d="M10.2,0L10.2,0C10.2,0,10.2,0,10.2,0L10.2,0c0,0-0.4,0-0.4,0C9,0,6.2,0.2,4.9,3.1C4.4,4,4.5,5.6,4.6,6.9c0,0.2,0,0.3,0,0.5
	c-0.1,0-0.2,0.1-0.4,0.1C4,7.5,3.7,7.4,3.3,7.2C3.2,7.2,3.1,7.2,3,7.2c-0.4,0-0.9,0.3-1,0.6C2,8.1,2.1,8.5,3,8.8
	c0.1,0,0.2,0.1,0.3,0.1c0.4,0.1,1,0.3,1.1,0.6c0.1,0.2,0,0.4-0.1,0.7c0,0,0,0,0,0c-0.1,0.1-1.3,2.8-4,3.2c-0.2,0-0.4,0.2-0.3,0.4
	c0,0.1,0,0.1,0,0.2c0.2,0.5,1.1,0.8,2.6,1c0.1,0.1,0.1,0.3,0.1,0.5c0,0.1,0.1,0.3,0.1,0.4c0,0.2,0.2,0.3,0.5,0.3
	c0.1,0,0.3,0,0.5-0.1c0.3,0,0.6-0.1,1.1-0.1c0.2,0,0.5,0,0.8,0.1c0.5,0.1,0.9,0.4,1.4,0.7c0.7,0.5,1.5,1,2.7,1c0,0,0.1,0,0.1,0
	c0,0,0.1,0,0.1,0c1.2,0,2-0.5,2.7-1c0.5-0.3,0.9-0.6,1.4-0.7c0.3,0,0.5-0.1,0.8-0.1c0.4,0,0.8,0.1,1.1,0.1c0.2,0,0.3,0.1,0.5,0.1
	l0,0h0c0.2,0,0.4-0.1,0.5-0.3c0-0.2,0.1-0.3,0.1-0.4c0-0.1,0.1-0.4,0.1-0.5c1.6-0.2,2.4-0.6,2.6-1c0-0.1,0-0.1,0-0.2
	c0-0.2-0.1-0.4-0.3-0.4c-2.7-0.4-3.9-3.1-4-3.2c0,0,0,0,0,0c-0.1-0.3-0.2-0.5-0.1-0.7c0.2-0.4,0.7-0.5,1.1-0.6
	c0.1,0,0.2-0.1,0.3-0.1c0.7-0.3,1-0.6,1-0.9c0-0.3-0.2-0.5-0.6-0.7l0,0c-0.1,0-0.3-0.1-0.4-0.1c-0.1,0-0.2,0-0.4,0.1
	c-0.3,0.1-0.6,0.2-0.9,0.2c-0.2,0-0.3,0-0.3-0.1c0-0.1,0-0.3,0-0.4l0-0.1c0.1-1.3,0.2-2.9-0.3-3.9C13.8,0.2,11,0,10.2,0L10.2,0z"/>
</svg>