<svg class="star" version="1.1" xmlns="http://www.w3.org/2000/svg" xmlns:xlink="http://www.w3.org/1999/xlink"
	 viewBox="0 0 12 12"  xml:space="preserve">
<path style="fill-rule:evenodd;clip-rule:evenodd;" d="M11.8,5.2L11.8,5.2l-3,2.3l1.2,3.7c0,0.1,0,0.1,0,0.2c0,0.3-0.3,0.6-0.6,0.6c-0.1,0-0.2,0-0.3-0.1l0,0L6,9.6
	l-3,2.3l0,0C2.9,12,2.7,12,2.6,12c-0.3,0-0.6-0.3-0.6-0.6c0-0.1,0-0.1,0-0.2l1.2-3.7l-3-2.3l0,0C0.1,5.1,0,4.9,0,4.7
	c0-0.3,0.3-0.6,0.6-0.6l0,0h3.7l1.2-3.7C5.5,0.2,5.7,0,6,0s0.5,0.2,0.5,0.4l1.2,3.7h3.7l0,0c0.3,0,0.6,0.3,0.6,0.6
	C12,4.9,11.9,5.1,11.8,5.2z"/>
</svg>