<svg width="100%" height="100%" viewBox="0 0 250 204" version="1.1" xmlns="http://www.w3.org/2000/svg" xmlns:xlink="http://www.w3.org/1999/xlink" xml:space="preserve" style="fill-rule:evenodd;clip-rule:evenodd;stroke-linejoin:round;stroke-miterlimit:1.41421;">
    <path d="M78.62,203.138C172.96,203.138 224.56,124.978 224.56,57.198C224.56,54.978 224.56,52.768 224.41,50.568C234.448,43.307 243.114,34.317 250,24.018C240.639,28.166 230.708,30.886 220.54,32.088C231.245,25.679 239.262,15.592 243.09,3.718C233.022,9.692 222.006,13.903 210.52,16.168C200.822,5.855 187.277,0 173.121,0C144.956,0 121.781,23.176 121.781,51.34C121.781,55.247 122.227,59.142 123.11,62.948C81.89,60.881 43.432,41.385 17.4,9.358C3.863,32.662 10.867,62.862 33.28,77.828C25.118,77.586 17.132,75.384 10,71.408C10,71.618 10,71.838 10,72.058C10.007,96.381 27.308,117.522 51.15,122.338C43.599,124.397 35.675,124.698 27.99,123.218C34.693,144.06 54.021,158.427 75.91,158.838C57.751,173.109 35.306,180.861 12.21,180.838C8.129,180.83 4.052,180.583 0,180.098C23.454,195.149 50.752,203.135 78.62,203.098" fill="#1da1f2" style="fill-rule:nonzero;"/>
</svg>