<svg class="user" version="1.1" xmlns="http://www.w3.org/2000/svg" xmlns:xlink="http://www.w3.org/1999/xlink" x="0px" y="0px" viewBox="0 0 24.5 26.5" style="enable-background:new 0 0 24.5 26.5;" xml:space="preserve">
<path d="M23.52,26.5a1,1,0,0,0,1-1v-.87a10.51,10.51,0,0,0-6.34-9.3L17.41,15l.43-.71A10.31,10.31,0,0,0,19.3,8.88C19.3,4,16.14,0,12.25,0s-7,4-7,8.88a10.33,10.33,0,0,0,1.46,5.38l.43.71-.75.36A10.51,10.51,0,0,0,0,24.63v.88a1,1,0,0,0,1,1ZM6.3,8.88c0-4.2,2.72-7.75,6-7.75S18.2,4.67,18.2,8.88s-2.72,7.75-5.95,7.75S6.3,13.08,6.3,8.88ZM1.1,24.63c0-3.65,2.5-7,6.38-8.58l.43-.17.35.3a5.93,5.93,0,0,0,8,0l.35-.3L17,16C20.9,17.61,23.4,21,23.4,24.63v.75H1.1Z"/>
</svg>