<svg class="x" version="1.1" xmlns="http://www.w3.org/2000/svg" xmlns:xlink="http://www.w3.org/1999/xlink" x="0px" y="0px"
	 viewBox="0 0 10 10" style="enable-background:new 0 0 10 10;" xml:space="preserve">
<path style="fill-rule:evenodd;clip-rule:evenodd;fill:#201D1D;" d="M8.5,9.7L5,6.2L1.5,9.7c-0.3,0.3-0.9,0.3-1.2,0c-0.3-0.3-0.3-0.9,0-1.2L3.8,5L0.3,1.5c-0.3-0.3-0.3-0.9,0-1.2
	c0.3-0.3,0.9-0.3,1.2,0L5,3.8l3.5-3.5c0.3-0.3,0.9-0.3,1.2,0c0.3,0.3,0.3,0.9,0,1.2L6.2,5l3.5,3.5c0.3,0.3,0.3,0.9,0,1.2
	C9.4,10.1,8.8,10.1,8.5,9.7z"/>
</svg>