<svg width="100%" height="100%" viewBox="0 0 4259 2996" version="1.1" xmlns="http://www.w3.org/2000/svg" xmlns:xlink="http://www.w3.org/1999/xlink" xml:space="preserve" style="fill-rule:evenodd;clip-rule:evenodd;stroke-linejoin:round;stroke-miterlimit:1.41421;">
    <path d="M2696.84,1528.7L1688.44,855.338L2838.44,1455.34L2696.84,1528.7Z" style="fill:#e7e0e0;fill-rule:nonzero;"/>
    <path d="M1688.63,2051.17L1688.44,855.338L2838.44,1455.34L1688.63,2051.17ZM4213.54,648.175C4213.54,648.175 4171.96,354.892 4044.34,225.738C3882.5,56.221 3701.09,55.379 3617.9,45.458C3022.33,2.404 2128.94,2.404 2128.94,2.404L2127.09,2.404C2127.09,2.404 1233.73,2.404 638.133,45.458C554.937,55.379 373.592,56.221 211.692,225.738C84.087,354.892 42.563,648.175 42.563,648.175C42.563,648.175 0,992.592 0,1337L0,1659.89C0,2004.3 42.563,2348.71 42.563,2348.71C42.563,2348.71 84.087,2642 211.692,2771.16C373.592,2940.68 586.263,2935.31 680.983,2953.08C1021.47,2985.73 2128.02,2995.83 2128.02,2995.83C2128.02,2995.83 3022.33,2994.49 3617.9,2951.44C3701.09,2941.51 3882.5,2940.68 4044.34,2771.16C4171.96,2642 4213.54,2348.71 4213.54,2348.71C4213.54,2348.71 4256.04,2004.3 4256.04,1659.89L4256.04,1337C4256.04,992.592 4213.54,648.175 4213.54,648.175Z" fill="#cd201f"/>
</svg>