<svg class="youtube" version="1.1" xmlns="http://www.w3.org/2000/svg" xmlns:xlink="http://www.w3.org/1999/xlink" x="0px" y="0px"
	 viewBox="0 0 30 30" style="enable-background:new 0 0 30 30;" xml:space="preserve">
	<path d="M24.5,14.3h-19c-3,0-5.5,2.5-5.5,5.6v4.5C0,27.5,2.5,30,5.5,30h19c3,0,5.5-2.5,5.5-5.6v-4.5C30,16.8,27.5,14.3,24.5,14.3z
		 M9.5,17.8H7.7v9H6v-9H4.2v-1.5h5.2V17.8z M14.5,26.8H13v-0.9c-0.3,0.3-0.6,0.6-0.9,0.7c-0.3,0.2-0.6,0.2-0.9,0.2
		c-0.4,0-0.6-0.1-0.8-0.3c-0.2-0.2-0.3-0.6-0.3-1V19h1.5v6c0,0.2,0,0.3,0.1,0.4c0.1,0.1,0.2,0.1,0.3,0.1c0.1,0,0.3-0.1,0.4-0.2
		c0.2-0.1,0.3-0.2,0.5-0.4V19h1.5V26.8z M20,25.2c0,0.5-0.1,1-0.4,1.3c-0.2,0.3-0.6,0.4-1,0.4c-0.3,0-0.6-0.1-0.8-0.2
		c-0.2-0.1-0.5-0.3-0.6-0.5v0.6h-1.5V16.3h1.5v3.4c0.2-0.2,0.4-0.4,0.7-0.5c0.2-0.1,0.5-0.2,0.7-0.2c0.5,0,0.8,0.2,1.1,0.5
		c0.3,0.3,0.4,0.8,0.4,1.5V25.2z M25.3,23.1h-2.9v1.5c0,0.4,0,0.7,0.1,0.9c0.1,0.2,0.3,0.2,0.5,0.2c0.3,0,0.4-0.1,0.5-0.2
		c0.1-0.1,0.2-0.4,0.2-0.9v-0.4h1.6v0.4c0,0.8-0.2,1.4-0.6,1.8C24.3,26.8,23.7,27,23,27c-0.7,0-1.2-0.2-1.6-0.6
		c-0.4-0.4-0.6-1-0.6-1.8v-3.5c0-0.7,0.2-1.2,0.6-1.6c0.4-0.4,1-0.6,1.7-0.6c0.7,0,1.2,0.2,1.6,0.6c0.4,0.4,0.6,1,0.6,1.7V23.1z
		 M23,20.2c-0.2,0-0.4,0.1-0.5,0.2c-0.1,0.1-0.2,0.4-0.2,0.7v0.8h1.3v-0.8c0-0.3-0.1-0.6-0.2-0.7C23.4,20.3,23.3,20.2,23,20.2z
		 M17.8,20.2c-0.1,0-0.2,0-0.3,0.1c-0.1,0-0.2,0.1-0.3,0.2v4.8c0.1,0.1,0.2,0.2,0.4,0.3c0.1,0.1,0.2,0.1,0.4,0.1
		c0.2,0,0.3-0.1,0.4-0.2c0.1-0.1,0.1-0.3,0.1-0.5v-4c0-0.3-0.1-0.5-0.2-0.6C18.2,20.2,18,20.2,17.8,20.2z M8,11.6h1.9V6.8L12.1,0
		h-2L9,4.6H8.9L7.6,0H5.7L8,7V11.6z M14.7,11.8c0.8,0,1.4-0.2,1.8-0.6c0.4-0.4,0.7-1,0.7-1.7V5c0-0.7-0.2-1.2-0.7-1.6
		c-0.5-0.4-1-0.6-1.7-0.6C14,2.8,13.4,3,13,3.4c-0.5,0.4-0.7,0.9-0.7,1.6v4.4c0,0.7,0.2,1.3,0.7,1.7C13.4,11.6,14,11.8,14.7,11.8z
		 M14,4.9c0-0.2,0.1-0.3,0.2-0.5c0.1-0.1,0.3-0.2,0.5-0.2c0.2,0,0.4,0.1,0.5,0.2c0.1,0.1,0.2,0.3,0.2,0.5v4.7
		c0,0.2-0.1,0.4-0.2,0.5c-0.1,0.1-0.3,0.2-0.6,0.2c-0.2,0-0.4-0.1-0.5-0.2C14.1,10,14,9.8,14,9.6V4.9z M19.8,11.7
		c0.3,0,0.7-0.1,1-0.3c0.3-0.2,0.7-0.4,1-0.8v0.9h1.7V3h-1.7v6.5c-0.2,0.2-0.3,0.3-0.5,0.5c-0.2,0.1-0.4,0.2-0.5,0.2
		c-0.2,0-0.3,0-0.3-0.1c-0.1-0.1-0.1-0.2-0.1-0.4V3h-1.7v7.1c0,0.5,0.1,0.9,0.3,1.1C19.1,11.6,19.4,11.7,19.8,11.7z"/>
</svg>