<svg xmlns="http://www.w3.org/2000/svg" fill="none" viewBox="0 0 1200 600" title="Flag of Canada">
  <path fill="#fff" d="M300 0h599.339v600H300z"/>
  <path fill="#f00" d="M0 0h300v600H0z"/>
  <path fill="#f00" d="M899.339 0h300v600h-300z"/>
  <path class="srp-emblem" fill="#f00" d="M605.292 445.875l5.621 107.875h-22.487l5.622-107.875a11.873 11.873 0 00-8.616-11.971 11.862 11.862 0 00-5.252-.279L472.864 452.5l14.493-40a8.133 8.133 0 00-2.499-9.125l-117.56-95.25 26.485-12.375a8.128 8.128 0 004.248-9.875l-23.237-71.5 67.712 14.375a8.113 8.113 0 005.407-.747 8.126 8.126 0 003.713-4.003l13.118-30.875 52.846 56.75a8.117 8.117 0 0013.194-2.033 8.126 8.126 0 00.673-5.092l-25.486-131.5 40.853 23.625a8.12 8.12 0 009.323-.783 8.121 8.121 0 002.045-2.592L599.67 50l41.477 81.5a8.121 8.121 0 008.241 4.431 8.13 8.13 0 003.128-1.056l40.852-23.625-25.486 131.5a8.126 8.126 0 009.339 9.544 8.117 8.117 0 004.528-2.419l52.846-56.75L747.713 224a8.126 8.126 0 003.713 4.003 8.113 8.113 0 005.407.747l67.713-14.375-23.237 71.5a8.129 8.129 0 004.247 9.875l26.486 12.375-117.561 95.25a8.131 8.131 0 00-2.498 9.125l14.492 40-107.316-18.875a11.857 11.857 0 00-9.867 2.801 11.881 11.881 0 00-4 9.449z"/>
</svg>