<svg viewBox="0 0 900 600" fill="none" xmlns="http://www.w3.org/2000/svg">
<g class="srp-field">
    <path class="srp-red" fill-rule="evenodd" clip-rule="evenodd" d="M359.998 0H900V600H359.998V0Z" fill="#ED192D"/>
    <path class="srp-dark_green" fill-rule="evenodd" clip-rule="evenodd" d="M0 0H360.003V600H0V0Z" fill="#00613C"/>
</g>
<g class="srp-emblem">
    <g class="srp-sphere">
        <path fill-rule="evenodd" clip-rule="evenodd" d="M477.234 393.355C432.02 392.002 224.712 262.595 223.29 242L234.738 222.909C255.303 252.788 467.239 378.629 488.052 374.165L477.233 393.355" fill="#FBDF21"/>
        <path fill-rule="evenodd" clip-rule="evenodd" d="M232.335 220.318C228.28 231.233 286.434 267.184 356.4 309.735C426.365 352.289 486.694 378.583 491.166 374.81C491.438 374.322 493.365 371.008 493.188 371.035C492.349 372.298 490.309 372.698 487.126 371.78C468.224 366.328 418.923 343.698 357.868 306.672C296.813 269.647 243.694 235.527 235.436 221.029C234.864 220.024 234.453 218.19 234.537 216.766L234.335 216.765L232.576 219.836L232.335 220.318ZM478.307 393.958C477.539 395.35 476.11 395.397 473.394 395.097C456.484 393.226 405.17 368.274 344.454 331.927C273.801 289.633 215.449 251.104 221.788 241.027L223.51 237.983L223.851 238.089C218.159 255.155 339.004 324.25 346.118 328.657C416.039 371.975 474.987 397.27 480.204 390.695L478.307 393.958Z" fill="#FBDF21"/>
        <path d="M232.305 220.33C228.251 231.245 286.405 267.194 356.373 309.744C426.34 352.294 486.669 378.587 491.141 374.815C491.414 374.326 493.339 371.013 493.163 371.04C492.324 372.303 490.284 372.702 487.101 371.783C468.2 366.333 418.898 343.703 357.84 306.681C296.786 269.656 243.665 235.538 235.406 221.041C234.833 220.035 234.422 218.202 234.507 216.778L234.5 216.5L232.547 219.848L232.305 220.33ZM478.283 393.962C477.515 395.354 476.087 395.401 473.371 395.101C456.461 393.23 405.147 368.278 344.428 331.935C273.774 289.643 215.421 251.115 221.759 241.038L223.5 238.1L223.822 238.1C218.131 255.166 338.979 324.257 346.092 328.664C416.016 371.98 474.964 397.274 480.18 390.7L478.283 393.962Z" stroke="#171B1C" stroke-width="0.865065" stroke-miterlimit="2.613" stroke-linecap="round" stroke-linejoin="round"/>
        <path fill-rule="evenodd" clip-rule="evenodd" d="M360.397 254.477C405.647 254.118 461.485 248.292 493.619 235.485L486.697 224.237C467.703 234.748 411.557 241.664 360.015 242.698C299.053 242.135 256.023 236.458 234.462 221.992L227.927 233.971C267.56 250.741 308.171 254.303 360.398 254.477" fill="#FBDF21"/>
        <path d="M495.494 235.743C494.387 237.512 473.43 244.739 442.556 250.072C421.625 253.262 394.319 255.99 360.242 256.023C327.866 256.056 301.421 253.749 281.399 251.036C248.99 245.954 232.263 238.883 226.079 236.388C226.67 235.212 227.05 234.387 227.62 233.287C245.423 240.375 262.227 244.65 281.912 247.676C301.802 250.373 327.93 252.709 360.145 252.677C394.061 252.644 421.065 249.71 441.877 246.613C473.536 241.507 490.828 234.935 493.258 231.885L495.494 235.743ZM489.415 224.336C485.984 227.091 468.888 233.153 438.805 237.958C418.729 240.837 393.202 243.411 360.589 243.443C329.606 243.473 304.291 241.387 285.037 238.581C254.487 234.592 238.23 227.393 232.366 225.296C232.95 224.289 233.542 223.287 234.153 222.281C238.714 224.58 254.407 230.95 285.373 235.337C304.409 238.034 329.761 240.045 360.589 240.014C393.049 239.981 418.284 237.356 438.234 234.496C468.472 230.337 484.742 222.602 487.212 220.666L489.415 224.336Z" fill="#FBDF21"/>
        <path d="M495.494 235.761C494.388 237.529 473.429 244.757 442.556 250.09C421.624 253.279 394.318 256.007 360.241 256.041C327.867 256.073 301.421 253.767 281.398 251.053C248.989 245.973 232.263 238.902 226.078 236.407C226.669 235.231 227.05 234.405 227.62 233.307C245.421 240.395 262.226 244.667 281.911 247.695C301.802 250.39 327.93 252.727 360.144 252.695C394.061 252.662 421.065 249.726 441.876 246.631C473.535 241.524 490.829 234.953 493.258 231.902L495.494 235.761ZM489.415 224.355C485.984 227.11 468.886 233.172 438.804 237.976C418.729 240.854 393.202 243.429 360.589 243.462C329.606 243.492 304.29 241.405 285.037 238.599C254.486 234.61 238.229 227.413 232.365 225.315C232.949 224.308 233.542 223.307 234.152 222.301C238.714 224.598 254.405 230.968 285.372 235.356C304.408 238.052 329.76 240.063 360.589 240.031C393.049 240 418.284 237.374 438.234 234.515C468.471 230.355 484.742 222.621 487.212 220.685L489.415 224.355Z" stroke="#171B1C" stroke-width="0.86642" stroke-miterlimit="2.613" stroke-linecap="round" stroke-linejoin="round"/>
        <path fill-rule="evenodd" clip-rule="evenodd" d="M211.814 308.986C239.647 323.955 301.464 331.501 359.961 332.019C413.223 332.103 482.612 323.787 508.558 310.035L507.844 295.056C499.727 307.738 425.368 319.909 359.383 319.412C293.398 318.915 232.124 308.72 211.696 295.529L211.814 308.986Z" fill="#FBDF21"/>
        <path d="M509.98 306.835L509.982 310.408C506.083 315.07 481.63 322.118 450.966 327.079C427.627 330.656 397.2 333.355 359.286 333.355C323.266 333.355 294.544 330.79 272.267 327.367C237.057 322.241 214.533 313.263 210.013 310.581L210.032 306.414C223.613 315.441 260.407 322.048 272.762 324.068C294.892 327.468 323.446 330.017 359.286 330.017C397.023 330.017 427.278 327.334 450.47 323.779C472.471 320.601 503.812 312.338 509.981 306.835H509.98ZM509.995 294.125L509.997 297.699C506.097 302.362 481.644 309.408 450.98 314.371C427.641 317.949 397.214 320.647 359.301 320.647C323.281 320.647 294.558 318.081 272.281 314.659C237.071 309.533 214.548 300.554 210.028 297.875L210.048 293.707C223.629 302.734 260.422 309.341 272.778 311.36C294.907 314.759 323.459 317.308 359.301 317.308C397.038 317.308 427.293 314.626 450.485 311.072C472.485 307.893 503.826 299.63 509.995 294.125Z" fill="#FBDF21"/>
        <path d="M509.983 306.828L509.984 310.402C506.084 315.064 481.631 322.112 450.966 327.073C427.628 330.651 397.202 333.35 359.287 333.35C323.268 333.35 294.544 330.784 272.268 327.362C237.057 322.236 214.535 313.257 210.013 310.576L210.033 306.409C223.615 315.436 260.409 322.043 272.763 324.062C294.894 327.461 323.446 330.011 359.287 330.011C397.023 330.011 427.28 327.329 450.472 323.773C472.472 320.595 503.813 312.332 509.983 306.828ZM509.997 294.119L509.999 297.693C506.099 302.355 481.645 309.403 450.981 314.365C427.643 317.944 397.215 320.641 359.303 320.641C323.283 320.641 294.559 318.076 272.283 314.653C237.072 309.528 214.549 300.549 210.028 297.867L210.048 293.701C223.63 302.728 260.422 309.334 272.778 311.354C294.907 314.754 323.461 317.302 359.303 317.302C397.038 317.302 427.294 314.62 450.486 311.066C472.486 307.888 503.827 299.623 509.997 294.119V294.119Z" stroke="#171B1C" stroke-width="0.866011" stroke-miterlimit="2.613" stroke-linecap="round" stroke-linejoin="round"/>
        <path fill-rule="evenodd" clip-rule="evenodd" d="M359.829 390.788C295.821 390.406 240.975 373.34 229.394 370.517L237.839 383.742C258.297 392.343 311.801 405.168 360.444 403.749C409.086 402.33 451.595 398.562 481.553 383.982L490.212 370.281C469.796 379.893 400.32 390.691 359.829 390.788Z" fill="#FBDF21"/>
        <path d="M484.809 380.908C483.545 382.84 482.249 384.75 480.922 386.639C466.793 391.621 444.528 396.85 435.134 398.376C415.943 402.332 386.249 405.254 359.899 405.266C303.196 404.434 256.782 393.334 234.947 383.867L233.185 380.838L233.474 380.381L236.461 381.543C275.293 395.431 318.905 400.974 360.218 401.969C386.463 402.062 412.738 398.96 433.983 395.163C466.564 388.635 479.74 383.714 483.782 381.485L484.809 380.908ZM492.316 368.525C492.349 368.562 492.382 368.601 492.414 368.64C491.447 370.274 490.468 371.902 489.477 373.523C481.939 376.218 461.489 382.2 431.623 386.376C411.945 389.056 399.714 391.652 360.57 392.414C287.218 390.548 239.727 376.204 228.444 372.667L226.771 369.461C269.28 380.559 312.704 388.304 360.57 389.095C396.382 388.333 411.618 385.697 431.132 383.037C465.958 377.621 483.504 371.887 488.772 370.233C488.7 370.13 488.622 370.03 488.54 369.934L492.316 368.525Z" fill="#FBDF21"/>
        <path d="M484.803 380.901C483.529 382.843 482.233 384.764 480.917 386.631C466.787 391.613 444.523 396.843 435.127 398.37C415.938 402.326 386.244 405.247 359.895 405.259C303.192 404.428 256.779 393.327 234.943 383.86L233.181 380.83L233.471 380.374L236.458 381.535C275.289 395.424 318.902 400.967 360.214 401.963C386.459 402.056 412.734 398.953 433.978 395.155C466.559 388.628 479.733 383.707 483.775 381.478L484.803 380.901ZM492.31 368.517C492.343 368.554 492.377 368.593 492.408 368.633C491.455 370.239 490.475 371.872 489.471 373.515C481.934 376.21 461.482 382.193 431.618 386.368C411.94 389.05 399.709 391.645 360.566 392.406C287.214 390.541 239.724 376.196 228.441 372.66L226.768 369.454C269.277 380.552 312.699 388.297 360.566 389.087C396.378 388.325 411.614 385.689 431.126 383.03C465.951 377.612 483.498 371.878 488.766 370.226C488.693 370.122 488.616 370.023 488.534 369.927L492.31 368.517Z" stroke="#171B1C" stroke-width="0.848499" stroke-miterlimit="2.613" stroke-linecap="round" stroke-linejoin="round"/>
        <path fill-rule="evenodd" clip-rule="evenodd" d="M359.909 167.418C433.412 167.418 492.76 227.178 492.76 300.694C492.76 374.209 433.412 433.569 359.909 433.569C286.406 433.569 226.856 374.009 226.856 300.493C226.856 226.978 286.406 167.419 359.909 167.419V167.418ZM359.909 154.247C440.445 154.247 506.13 219.944 506.13 300.493C506.13 381.042 440.445 446.739 359.909 446.739C279.374 446.739 213.689 381.043 213.689 300.493C213.689 219.944 279.374 154.247 359.909 154.247Z" fill="#FBDF21"/>
        <path fill-rule="evenodd" clip-rule="evenodd" d="M360.008 152.491C441.618 152.491 508.18 219.057 508.18 300.669C508.18 382.284 441.618 448.847 360.008 448.847C278.4 448.847 211.84 382.284 211.84 300.669C211.84 219.057 278.4 152.491 360.008 152.491ZM360.008 155.751C439.468 155.751 504.919 220.97 504.919 300.67C504.919 380.369 439.468 445.587 360.008 445.587C280.55 445.587 215.099 380.369 215.099 300.67C215.099 220.97 280.55 155.751 360.008 155.751Z" fill="#FBDF21"/>
        <path d="M360.01 152.482C441.62 152.482 508.181 219.048 508.181 300.663C508.181 382.279 441.62 448.844 360.01 448.844C278.401 448.844 211.84 382.279 211.84 300.663C211.84 219.048 278.401 152.482 360.01 152.482V152.482ZM360.01 155.742C439.47 155.742 504.921 220.962 504.921 300.663C504.921 380.366 439.47 445.584 360.01 445.584C280.551 445.584 215.1 380.366 215.1 300.663C215.1 220.962 280.551 155.742 360.01 155.742Z" stroke="#171B1C" stroke-width="0.866011" stroke-miterlimit="2.613" stroke-linecap="round" stroke-linejoin="round"/>
        <path fill-rule="evenodd" clip-rule="evenodd" d="M360.14 164.808C434.561 164.808 495.862 225.892 495.862 300.54C495.862 375.186 434.561 436.271 360.139 436.271C285.717 436.271 224.416 375.186 224.416 300.54C224.416 225.892 285.716 164.808 360.139 164.808H360.14ZM360.14 168.068C432.774 168.068 492.602 227.685 492.602 300.54C492.602 373.393 432.773 433.011 360.139 433.011C287.505 433.011 227.674 373.394 227.674 300.54C227.674 227.685 287.505 168.068 360.139 168.068" fill="#FBDF21"/>
        <path d="M360.141 164.798C434.562 164.798 495.864 225.885 495.864 300.534C495.864 375.183 434.562 436.267 360.141 436.267C285.718 436.267 224.417 375.183 224.417 300.534C224.417 225.885 285.718 164.798 360.141 164.798ZM360.141 168.059C432.775 168.059 492.604 227.678 492.604 300.534C492.604 373.389 432.775 433.007 360.141 433.007C287.506 433.007 227.675 373.389 227.675 300.534C227.675 227.678 287.506 168.059 360.141 168.059Z" stroke="#171B1C" stroke-width="0.866011" stroke-miterlimit="2.613" stroke-linecap="round" stroke-linejoin="round"/>
        <path fill-rule="evenodd" clip-rule="evenodd" d="M354.012 151.795H366.901V449.945H354.013V151.795" fill="#FBDF21"/>
        <path d="M355.689 151.891H364.698" stroke="#171B1C" stroke-width="0.866011" stroke-miterlimit="2.613" stroke-linecap="round" stroke-linejoin="round"/>
        <path d="M355.706 449.631H364.757" stroke="#171B1C" stroke-width="0.866011" stroke-miterlimit="2.613" stroke-linecap="round" stroke-linejoin="round"/>
        <path fill-rule="evenodd" clip-rule="evenodd" d="M364.828 150.2H368.06L368.088 451.358H364.853L364.828 150.2ZM352.226 150.202H355.482L355.486 451.355H352.226V150.202Z" fill="#FBDF21"/>
        <path d="M364.83 150.191H368.062L368.089 451.354H364.853L364.83 150.191ZM352.227 150.193H355.484L355.487 451.352H352.227V150.193Z" stroke="#171B1C" stroke-width="0.866278" stroke-miterlimit="2.613" stroke-linecap="round" stroke-linejoin="round"/>
        <path fill-rule="evenodd" clip-rule="evenodd" d="M211.309 294.36C229.889 277.255 298.444 266.165 359.271 266.451C420.096 266.738 492.133 279.236 507.804 293.998L507.96 306.753C494.837 294.409 438.873 279.687 359.392 279.522C279.911 279.357 222.203 294.484 211.307 307.081L211.308 294.36" fill="#FBDF21"/>
        <path d="M211.274 294.961V305.969" stroke="#171B1C" stroke-width="0.866615" stroke-miterlimit="2.613" stroke-linecap="round" stroke-linejoin="round"/>
        <path d="M508.292 295.409V306.417" stroke="#171B1C" stroke-width="0.866615" stroke-miterlimit="2.613" stroke-linecap="round" stroke-linejoin="round"/>
        <path d="M360.08 277.728C395.072 277.662 429.022 281.045 455.953 286.286C483.743 291.841 503.297 298.79 509.983 306.597L509.977 310.46C501.913 300.747 475.599 293.628 455.328 289.558C428.602 284.358 394.879 281.002 360.079 281.065C323.358 281.135 289.164 284.613 262.829 289.751C241.698 293.944 213.517 302.275 210 310.488V306.464C211.932 300.779 232.915 292.279 262.355 286.387C288.886 281.212 323.143 277.797 360.079 277.728H360.08ZM360.094 265.02C395.088 264.955 429.036 268.336 455.968 273.577C483.757 279.133 503.312 286.084 509.998 293.888L509.991 297.752C501.928 288.04 475.612 280.921 455.343 276.851C428.617 271.65 394.893 268.295 360.094 268.359C323.372 268.426 289.344 271.907 263.008 277.043C242.617 280.907 213.286 289.566 210.015 297.781V293.755C211.947 288.131 233.355 279.327 262.37 273.679C288.9 268.505 323.158 265.089 360.094 265.02Z" fill="#FBDF21"/>
        <path d="M360.081 277.721C395.074 277.655 429.023 281.037 455.955 286.278C483.745 291.834 503.298 298.785 509.985 306.59L509.979 310.454C501.915 300.742 475.6 293.622 455.33 289.551C428.604 284.351 394.879 280.995 360.081 281.059C323.359 281.128 289.166 284.607 262.831 289.745C241.699 293.937 213.518 302.268 210 310.483V306.457C211.933 300.772 232.916 292.273 262.357 286.38C288.888 281.204 323.144 277.79 360.081 277.721ZM360.096 265.013C395.089 264.948 429.039 268.329 455.97 273.571C483.76 279.127 503.314 286.076 510 293.882L509.993 297.745C501.928 288.033 475.614 280.914 455.343 276.844C428.618 271.644 394.893 268.287 360.096 268.352C323.373 268.42 289.346 271.9 263.01 277.036C242.617 280.901 213.286 289.559 210.015 297.775V293.75C211.948 288.124 233.356 279.321 262.371 273.672C288.902 268.497 323.159 265.081 360.096 265.013V265.013Z" stroke="#171B1C" stroke-width="0.866011" stroke-miterlimit="2.613" stroke-linecap="round" stroke-linejoin="round"/>
        <path fill-rule="evenodd" clip-rule="evenodd" d="M359.368 200.203C414.51 199.927 462.61 207.912 484.616 219.184L492.644 233.07C473.516 222.762 421.625 212.045 359.445 213.646C308.784 213.959 254.651 219.225 227.49 233.715L237.072 217.69C259.363 206.131 311.929 200.267 359.367 200.203" fill="#FBDF21"/>
        <path d="M486.017 221.421L491.479 230.19" stroke="#171B1C" stroke-width="0.866944" stroke-miterlimit="2.613" stroke-linecap="round" stroke-linejoin="round"/>
        <path d="M360.097 211.668C391.548 211.585 421.94 213.36 446.112 217.722C468.62 221.911 490.087 228.196 493.155 231.58L495.535 235.785C488.071 230.909 469.494 225.484 445.643 220.959C421.688 216.46 391.318 214.967 360.042 215.048C324.54 214.928 296.96 216.801 273.29 220.927C248.257 225.611 230.888 232.302 226.602 235.481L228.935 231.036C237.26 226.79 250.469 221.671 272.667 217.676C297.145 213.202 325.019 211.86 360.097 211.667V211.668ZM360.083 198.976C390.184 198.894 419.903 200.572 443.069 204.737C461.338 208.293 479.408 213.847 486.024 218.787L489.504 224.318C483.589 217.742 461.315 211.51 441.655 208.02C418.668 204.055 390.181 202.485 360.083 202.235C328.496 202.32 299.303 204.257 276.65 208.382C255.037 212.493 241.093 217.363 235.192 221.163L238.251 216.543C246.394 212.257 259.551 208.32 276.118 205.104C298.938 200.948 328.312 199.062 360.083 198.976Z" fill="#FBDF21"/>
        <path d="M360.097 211.687C391.548 211.605 421.941 213.379 446.112 217.741C468.62 221.929 490.087 228.214 493.156 231.598L495.535 235.802C488.07 230.927 469.495 225.503 445.643 220.978C421.689 216.479 391.318 214.986 360.041 215.068C324.541 214.948 296.959 216.82 273.289 220.947C248.256 225.631 230.887 232.321 226.602 235.5L228.935 231.057C237.26 226.81 250.469 221.691 272.667 217.695C297.144 213.222 325.019 211.881 360.097 211.687ZM360.083 198.995C390.183 198.914 419.902 200.593 443.068 204.756C461.338 208.313 479.408 213.866 486.023 218.806L489.504 224.336C483.588 217.76 461.315 211.529 441.656 208.039C418.666 204.074 390.182 202.505 360.083 202.255C328.496 202.341 299.302 204.277 276.65 208.402C255.037 212.513 241.092 217.383 235.191 221.182L238.251 216.563C246.394 212.277 259.55 208.34 276.117 205.124C298.938 200.968 328.31 199.083 360.083 198.995Z" stroke="#171B1C" stroke-width="0.86642" stroke-miterlimit="2.613" stroke-linecap="round" stroke-linejoin="round"/>
        <path fill-rule="evenodd" clip-rule="evenodd" d="M433.699 362.267C406.437 357.178 379.123 356.441 360.047 356.664C268.152 357.741 238.466 375.533 234.843 380.919L228 369.5C251.396 352.539 301.413 343.256 360.545 344.227C391.251 344.73 417.748 346.769 440.039 351.086L433.699 362.267Z" fill="#FBDF21"/>
        <path d="M229.501 371.272L234.007 379.032" stroke="#171B1C" stroke-width="0.866011" stroke-miterlimit="2.613" stroke-linecap="round" stroke-linejoin="round"/>
        <path d="M359.521 355.084C385.084 355.465 410.179 356.524 434.396 361.039L432.642 364.134C410.148 359.981 386.167 358.394 359.607 358.522C325.693 358.256 291.389 361.426 261.525 369.995C252.104 372.616 236.502 378.674 234.912 383.681L233.166 380.804C233.669 377.844 243.099 371.705 260.723 366.755C294.931 356.96 326.927 355.307 359.521 355.084ZM360.681 342.221C387.167 342.715 414.518 343.942 441.103 349.207L439.277 352.43C415.271 347.664 392.334 346.078 360.837 345.593C326.816 345.653 290.726 348.08 257.912 357.618C247.317 360.705 229.033 367.377 228.423 372.655L226.678 369.566C227.076 364.769 242.905 358.51 257.144 354.367C290.212 344.754 326.396 342.284 360.681 342.222" fill="#FBDF21"/>
        <path d="M359.518 355.075C385.08 355.457 410.173 356.515 434.391 361.031L432.636 364.126C410.143 359.972 386.163 358.386 359.603 358.513C325.688 358.248 291.386 361.417 261.523 369.987C252.1 372.608 236.5 378.667 234.908 383.673L233.163 380.796C233.666 377.837 243.095 371.698 260.72 366.747C294.927 356.951 326.923 355.299 359.518 355.075ZM360.677 342.212C387.162 342.707 414.512 343.932 441.098 349.199L439.272 352.42C415.266 347.656 392.329 346.069 360.834 345.584C326.812 345.644 290.722 348.071 257.908 357.61C247.313 360.695 229.03 367.368 228.42 372.647L226.675 369.558C227.072 364.76 242.901 358.501 257.141 354.358C290.208 344.746 326.392 342.274 360.677 342.212Z" stroke="#171B1C" stroke-width="0.848499" stroke-miterlimit="2.613" stroke-linecap="round" stroke-linejoin="round"/>
        <path d="M440.935 349.524L432.835 363.879" stroke="#171B1C" stroke-width="0.85" stroke-miterlimit="2.613" stroke-linecap="round" stroke-linejoin="round"/>
        <path fill-rule="evenodd" clip-rule="evenodd" d="M235.786 217.493C281.307 216.901 491.551 345.961 492.169 369.726L479.144 389.689C473.272 362.099 259.936 236.507 224.744 238.875L235.786 217.493Z" fill="#FBDF21"/>
        <path d="M491.242 371.423L480.201 388.558" stroke="#171B1C" stroke-width="0.86505" stroke-miterlimit="2.613" stroke-linecap="round" stroke-linejoin="round"/>
        <path d="M235.474 218.618L225.201 237.653" stroke="#171B1C" stroke-width="0.86505" stroke-miterlimit="2.613" stroke-linecap="round" stroke-linejoin="round"/>
        <path fill-rule="evenodd" clip-rule="evenodd" d="M223.442 238.112C231.891 232.382 293.984 260.041 358.957 299.218C423.756 338.506 485.676 382.899 480.088 391.209L478.248 394.1L477.405 394.767C477.586 394.637 478.518 393.498 477.314 390.418C474.552 381.335 430.63 346.285 357.752 302.285C286.705 259.922 227.493 234.392 221.574 241.686L223.442 238.112ZM493.475 371.185C498.816 360.633 441.221 317.246 369.815 275.004C296.766 233.605 244.119 209.234 234.501 216.5L232.363 220.39C232.345 220.606 232.441 220.126 232.893 219.776C234.643 218.25 237.541 218.353 238.849 218.329C255.409 218.576 302.7 240.342 369.053 278.379C398.127 295.313 491.872 355.431 491.516 372.339C491.541 373.794 491.636 374.091 491.088 374.809L493.474 371.184" fill="#FBDF21"/>
        <path d="M223.463 238.112C231.914 232.38 294.007 260.041 358.981 299.219C423.782 338.508 485.703 382.904 480.113 391.213L478.274 394.105L477.43 394.771C477.611 394.641 478.543 393.504 477.34 390.422C474.577 381.34 430.656 346.288 357.775 302.287C286.729 259.92 227.516 234.389 221.595 241.685L223.463 238.112ZM493.501 371.188C498.844 360.636 441.248 317.249 369.841 275.005C296.791 233.605 244.143 209.233 234.525 216.498L232.386 220.388C232.386 220.388 232.465 220.124 232.915 219.775C234.665 218.248 237.564 218.351 238.872 218.327C255.433 218.575 302.725 240.341 369.079 278.38C398.153 295.315 491.9 355.434 491.544 372.342C491.569 373.797 491.662 374.094 491.115 374.813L493.501 371.188Z" stroke="#171B1C" stroke-width="0.86505" stroke-miterlimit="2.613" stroke-linecap="round" stroke-linejoin="round"/>
    </g>
    <g class="srp-shield">
        <path d="M271.02 317.221C271.02 341.602 281.004 363.655 297.18 379.773C313.388 395.925 335.412 406.115 359.834 406.115C384.383 406.115 406.659 396.146 422.799 380.058C438.935 363.971 448.938 341.768 448.941 317.3H448.938V198.637L271 198.425L271.02 317.221Z" fill="white"/>
        <path d="M274.35 317.391V317.457C274.35 340.768 284.005 361.999 299.491 377.412C315.006 392.853 336.376 402.454 359.754 402.454C383.253 402.454 404.578 392.92 420.026 377.539C435.474 362.158 445.049 340.927 445.052 317.532H445.049V202.411L274.455 202.381L274.35 317.391ZM410.751 236.85L410.758 310.111L410.695 317.862H410.697C410.697 319.901 410.574 322.227 410.337 324.205C408.95 335.788 403.622 345.882 395.734 353.737C386.497 362.934 373.748 368.634 359.699 368.634C345.721 368.634 333.265 362.733 323.989 353.501C314.474 344.031 308.959 331.045 308.959 317.617L308.939 236.666L410.751 236.85Z" fill="#ED192D"/>
        <path d="M274.366 317.4V317.466C274.366 340.778 284.022 362.008 299.508 377.419C315.024 392.861 336.395 402.461 359.774 402.461C383.274 402.461 404.6 392.928 420.051 377.547C435.499 362.166 445.074 340.936 445.077 317.542H445.074V202.424L274.471 202.396L274.366 317.4ZM410.775 236.862L410.781 310.121L410.719 317.871H410.72C410.72 319.912 410.597 322.236 410.361 324.213C408.974 335.797 403.646 345.892 395.757 353.746C386.52 362.943 373.769 368.642 359.719 368.642C345.742 368.642 333.283 362.741 324.007 353.509C314.492 344.041 308.975 331.053 308.975 317.625L308.955 236.677L410.775 236.862Z" stroke="#171B1C" stroke-width="0.766142" stroke-miterlimit="2.613"/>
        <path d="M349.004 304.327V304.337C349.004 307.65 350.276 310.67 352.318 312.861C354.364 315.058 357.182 316.423 360.264 316.423C363.362 316.423 366.173 315.067 368.211 312.88C370.247 310.693 371.51 307.673 371.51 304.347V288.211L349.043 288.194L349.004 304.327Z" fill="#154281"/>
        <path fill-rule="evenodd" clip-rule="evenodd" d="M366.615 292.115C366.025 292.116 365.46 292.351 365.042 292.768C364.625 293.185 364.39 293.751 364.389 294.341C364.391 294.93 364.626 295.495 365.043 295.912C365.46 296.328 366.025 296.563 366.615 296.564C367.205 296.563 367.77 296.329 368.188 295.912C368.605 295.495 368.84 294.93 368.842 294.341C368.841 293.751 368.606 293.185 368.188 292.768C367.771 292.351 367.205 292.116 366.615 292.115ZM360.371 298.1C359.781 298.101 359.215 298.336 358.798 298.753C358.381 299.17 358.146 299.735 358.144 300.325C358.146 300.915 358.381 301.48 358.798 301.897C359.215 302.314 359.781 302.549 360.371 302.55C360.961 302.549 361.526 302.314 361.944 301.898C362.361 301.481 362.596 300.915 362.598 300.325C362.596 299.735 362.361 299.17 361.944 298.753C361.526 298.336 360.961 298.102 360.371 298.101V298.1ZM366.601 304.35C366.011 304.35 365.446 304.585 365.029 305.002C364.611 305.419 364.376 305.984 364.375 306.574C364.377 307.163 364.612 307.728 365.03 308.144C365.447 308.561 366.012 308.795 366.601 308.796C367.191 308.796 367.757 308.562 368.174 308.145C368.592 307.729 368.827 307.164 368.829 306.574C368.828 305.984 368.592 305.418 368.175 305.001C367.757 304.585 367.191 304.35 366.601 304.35ZM354.443 304.365C353.853 304.366 353.288 304.6 352.871 305.017C352.453 305.434 352.218 306 352.217 306.59C352.219 307.179 352.454 307.744 352.872 308.16C353.289 308.577 353.854 308.811 354.443 308.812C355.033 308.811 355.598 308.577 356.016 308.161C356.433 307.744 356.668 307.179 356.67 306.59C356.669 306 356.434 305.435 356.016 305.018C355.599 304.601 355.033 304.366 354.443 304.366V304.365ZM354.418 292.104C353.828 292.105 353.263 292.339 352.845 292.756C352.427 293.173 352.192 293.739 352.19 294.329C352.192 294.919 352.427 295.484 352.845 295.901C353.263 296.318 353.828 296.552 354.418 296.553C355.008 296.552 355.573 296.317 355.99 295.9C356.407 295.484 356.642 294.918 356.644 294.329C356.642 293.739 356.407 293.174 355.99 292.757C355.573 292.34 355.008 292.106 354.418 292.104Z" fill="white"/>
        <path d="M348.895 342.961V342.971C348.895 346.286 350.167 349.305 352.209 351.497C354.255 353.693 357.072 355.059 360.154 355.059C363.252 355.059 366.064 353.703 368.101 351.515C370.138 349.328 371.402 346.31 371.402 342.981V326.847L348.935 326.831L348.895 342.962" fill="#154281"/>
        <path fill-rule="evenodd" clip-rule="evenodd" d="M366.506 330.75C365.916 330.751 365.35 330.986 364.933 331.403C364.516 331.82 364.281 332.386 364.28 332.976C364.281 333.566 364.516 334.131 364.933 334.548C365.351 334.965 365.916 335.199 366.506 335.199C367.096 335.199 367.661 334.964 368.078 334.548C368.496 334.131 368.731 333.566 368.732 332.976C368.731 332.386 368.496 331.821 368.079 331.404C367.661 330.987 367.096 330.752 366.506 330.751V330.75ZM360.263 336.737C359.673 336.737 359.107 336.972 358.69 337.388C358.273 337.805 358.037 338.37 358.035 338.96C358.037 339.55 358.272 340.115 358.69 340.532C359.107 340.949 359.673 341.183 360.263 341.184C360.852 341.183 361.417 340.948 361.835 340.532C362.252 340.115 362.486 339.55 362.488 338.96C362.486 338.371 362.251 337.806 361.834 337.389C361.417 336.973 360.852 336.738 360.263 336.738V336.737ZM366.493 342.984C365.903 342.985 365.338 343.219 364.921 343.636C364.503 344.053 364.268 344.618 364.266 345.207C364.268 345.797 364.503 346.362 364.92 346.779C365.337 347.196 365.902 347.431 366.492 347.432C367.082 347.431 367.648 347.196 368.065 346.779C368.483 346.363 368.718 345.797 368.719 345.207C368.718 344.618 368.482 344.053 368.065 343.636C367.647 343.219 367.082 342.985 366.492 342.984H366.493ZM354.335 343.001C353.746 343.002 353.18 343.236 352.763 343.653C352.345 344.069 352.11 344.634 352.108 345.224C352.11 345.814 352.345 346.379 352.763 346.796C353.18 347.212 353.746 347.447 354.335 347.448C354.925 347.447 355.491 347.212 355.908 346.796C356.325 346.379 356.561 345.814 356.562 345.224C356.561 344.634 356.326 344.069 355.908 343.652C355.491 343.235 354.925 343.001 354.335 343V343.001ZM354.309 330.741C353.719 330.742 353.154 330.976 352.737 331.393C352.32 331.81 352.085 332.375 352.083 332.964C352.084 333.554 352.319 334.119 352.736 334.537C353.153 334.954 353.719 335.188 354.309 335.189C354.899 335.189 355.464 334.954 355.882 334.537C356.299 334.12 356.534 333.554 356.536 332.964C356.534 332.374 356.299 331.809 355.881 331.393C355.464 330.976 354.898 330.742 354.309 330.741Z" fill="white"/>
        <path d="M317.837 304.404V304.413C317.837 307.728 319.108 310.747 321.15 312.938C323.196 315.135 326.014 316.5 329.096 316.5C332.195 316.5 335.006 315.144 337.042 312.957C339.079 310.77 340.343 307.749 340.343 304.423V288.288L317.876 288.271L317.837 304.403" fill="#154281"/>
        <path fill-rule="evenodd" clip-rule="evenodd" d="M335.449 292.193C334.859 292.193 334.294 292.428 333.876 292.844C333.459 293.261 333.223 293.826 333.222 294.416C333.223 295.006 333.459 295.571 333.876 295.988C334.293 296.405 334.858 296.639 335.448 296.64C336.038 296.639 336.603 296.405 337.021 295.988C337.438 295.571 337.673 295.006 337.674 294.416C337.673 293.826 337.438 293.261 337.021 292.845C336.603 292.428 336.038 292.194 335.448 292.194L335.449 292.193ZM329.205 298.178C328.615 298.178 328.049 298.413 327.631 298.83C327.214 299.247 326.979 299.813 326.977 300.403C326.979 300.992 327.214 301.557 327.632 301.974C328.049 302.39 328.614 302.625 329.204 302.626C329.793 302.625 330.359 302.391 330.776 301.974C331.194 301.557 331.429 300.992 331.431 300.403C331.43 299.813 331.194 299.247 330.777 298.83C330.359 298.413 329.794 298.178 329.204 298.178H329.205ZM335.434 304.426C334.844 304.427 334.279 304.661 333.861 305.078C333.444 305.495 333.209 306.06 333.207 306.65C333.209 307.24 333.444 307.805 333.862 308.222C334.279 308.638 334.844 308.873 335.434 308.873C336.024 308.872 336.589 308.638 337.006 308.221C337.423 307.805 337.659 307.24 337.66 306.65C337.659 306.06 337.424 305.495 337.007 305.078C336.589 304.662 336.024 304.427 335.434 304.426ZM323.277 304.442C322.687 304.443 322.122 304.677 321.704 305.094C321.287 305.511 321.052 306.076 321.05 306.666C321.052 307.256 321.287 307.821 321.704 308.238C322.121 308.655 322.687 308.889 323.276 308.89C323.866 308.889 324.432 308.655 324.849 308.238C325.267 307.821 325.502 307.256 325.504 306.666C325.502 306.076 325.267 305.511 324.849 305.094C324.432 304.677 323.866 304.443 323.276 304.442H323.277ZM323.252 292.183C322.661 292.183 322.096 292.418 321.678 292.835C321.26 293.252 321.025 293.817 321.023 294.407C321.025 294.997 321.261 295.562 321.678 295.979C322.096 296.396 322.662 296.63 323.252 296.63C323.841 296.629 324.406 296.395 324.823 295.978C325.241 295.562 325.475 294.997 325.477 294.407C325.475 293.817 325.241 293.252 324.823 292.835C324.406 292.419 323.841 292.184 323.252 292.183Z" fill="white"/>
        <path d="M380.092 304.387V304.397C380.092 307.713 381.367 310.731 383.408 312.922C385.454 315.118 388.271 316.484 391.353 316.484C394.452 316.484 397.263 315.128 399.301 312.941C401.337 310.754 402.599 307.734 402.599 304.407V288.273L380.134 288.255L380.093 304.387" fill="#154281"/>
        <path fill-rule="evenodd" clip-rule="evenodd" d="M397.706 292.178C397.116 292.178 396.551 292.412 396.133 292.829C395.716 293.245 395.48 293.81 395.478 294.4C395.48 294.99 395.715 295.556 396.132 295.972C396.55 296.389 397.116 296.624 397.706 296.624C398.296 296.624 398.861 296.389 399.279 295.972C399.696 295.555 399.931 294.99 399.933 294.4C399.931 293.81 399.695 293.246 399.278 292.829C398.861 292.413 398.295 292.179 397.706 292.178ZM391.461 298.163C390.871 298.163 390.306 298.398 389.889 298.814C389.471 299.231 389.236 299.796 389.234 300.386C389.235 300.976 389.47 301.541 389.888 301.958C390.305 302.375 390.871 302.61 391.461 302.61C392.051 302.61 392.617 302.375 393.034 301.958C393.452 301.541 393.687 300.976 393.688 300.386C393.687 299.796 393.451 299.231 393.034 298.814C392.616 298.398 392.051 298.163 391.461 298.163ZM397.691 304.409C397.101 304.41 396.535 304.645 396.118 305.062C395.701 305.479 395.466 306.044 395.465 306.634C395.466 307.224 395.702 307.789 396.119 308.205C396.536 308.622 397.101 308.857 397.691 308.858C398.281 308.857 398.846 308.622 399.263 308.206C399.681 307.789 399.916 307.224 399.918 306.634C399.917 306.044 399.682 305.479 399.264 305.062C398.847 304.645 398.281 304.41 397.691 304.409ZM385.534 304.426C384.944 304.427 384.378 304.661 383.961 305.078C383.544 305.495 383.308 306.06 383.307 306.65C383.308 307.24 383.544 307.805 383.961 308.222C384.378 308.639 384.944 308.874 385.534 308.874C386.124 308.874 386.689 308.639 387.107 308.222C387.524 307.805 387.76 307.24 387.761 306.65C387.76 306.06 387.524 305.495 387.107 305.078C386.689 304.661 386.124 304.427 385.534 304.426ZM385.509 292.167C384.919 292.167 384.353 292.402 383.936 292.819C383.518 293.236 383.282 293.801 383.281 294.391C383.283 294.981 383.518 295.546 383.936 295.963C384.353 296.38 384.919 296.614 385.509 296.614C386.099 296.613 386.663 296.379 387.08 295.962C387.497 295.545 387.732 294.981 387.734 294.391C387.733 293.802 387.498 293.237 387.081 292.82C386.664 292.403 386.099 292.168 385.509 292.167Z" fill="white"/>
        <path d="M348.995 265.341V265.351C348.995 268.667 350.267 271.685 352.309 273.876C354.355 276.073 357.173 277.438 360.255 277.438C363.354 277.438 366.165 276.082 368.201 273.894C370.238 271.708 371.5 268.688 371.502 265.361H371.5V249.226L349.035 249.209L348.995 265.341Z" fill="#154281"/>
        <path fill-rule="evenodd" clip-rule="evenodd" d="M366.606 253.131C366.016 253.132 365.451 253.367 365.034 253.783C364.617 254.2 364.382 254.765 364.381 255.355C364.382 255.945 364.617 256.51 365.034 256.927C365.451 257.343 366.016 257.578 366.606 257.579C367.196 257.579 367.762 257.344 368.179 256.927C368.596 256.51 368.832 255.945 368.833 255.355C368.832 254.765 368.596 254.2 368.179 253.783C367.762 253.366 367.196 253.132 366.606 253.131ZM360.362 259.117C359.772 259.118 359.207 259.353 358.79 259.77C358.373 260.186 358.138 260.751 358.136 261.341C358.138 261.93 358.373 262.495 358.79 262.912C359.207 263.328 359.772 263.563 360.362 263.564C360.952 263.564 361.517 263.329 361.935 262.913C362.352 262.496 362.588 261.931 362.59 261.341C362.588 260.751 362.353 260.185 361.935 259.769C361.518 259.352 360.952 259.117 360.362 259.117ZM366.592 265.364C366.002 265.365 365.437 265.6 365.02 266.017C364.603 266.434 364.368 266.999 364.366 267.588C364.368 268.178 364.604 268.743 365.021 269.159C365.438 269.576 366.004 269.81 366.593 269.811C367.183 269.81 367.748 269.575 368.165 269.159C368.582 268.742 368.817 268.178 368.819 267.588C368.818 266.999 368.583 266.434 368.166 266.017C367.748 265.6 367.182 265.365 366.592 265.364ZM354.435 265.38C353.846 265.381 353.28 265.616 352.863 266.033C352.446 266.449 352.211 267.015 352.209 267.604C352.211 268.194 352.446 268.759 352.863 269.176C353.28 269.593 353.846 269.827 354.435 269.829C355.025 269.828 355.591 269.593 356.008 269.176C356.426 268.76 356.661 268.194 356.663 267.604C356.661 267.014 356.426 266.449 356.008 266.032C355.591 265.615 355.025 265.381 354.435 265.38ZM354.41 253.12C353.819 253.121 353.254 253.355 352.836 253.772C352.419 254.19 352.184 254.755 352.182 255.345C352.184 255.935 352.42 256.5 352.837 256.916C353.255 257.332 353.82 257.567 354.41 257.567C354.999 257.566 355.564 257.332 355.981 256.916C356.398 256.499 356.634 255.935 356.636 255.345C356.634 254.755 356.399 254.19 355.982 253.773C355.565 253.357 354.999 253.121 354.41 253.12Z" fill="white"/>
        <path fill-rule="evenodd" clip-rule="evenodd" d="M285.397 232.446C285.601 224.172 291.471 222.214 291.513 222.187C291.554 222.158 297.853 224.295 297.833 232.524L285.397 232.446Z" fill="#FBDF21"/>
        <path fill-rule="evenodd" clip-rule="evenodd" d="M280.329 222.334L279.308 231.842L285.513 231.856C285.57 223.99 291.469 222.682 291.61 222.711C291.745 222.701 297.588 224.449 297.743 231.856H303.964L302.841 222.277L280.329 222.335" fill="#FBDF21"/>
        <path d="M280.349 222.322L279.327 231.83L285.532 231.845C285.59 223.979 291.489 222.67 291.63 222.699C291.764 222.69 297.608 224.437 297.764 231.846H303.985L302.861 222.266L280.349 222.322Z" stroke="#171B1C" stroke-width="0.754704" stroke-miterlimit="2.613"/>
        <path fill-rule="evenodd" clip-rule="evenodd" d="M278.894 231.887H304.288C304.823 231.887 305.26 232.415 305.26 233.06C305.26 233.705 304.823 234.234 304.288 234.234H278.894C278.359 234.234 277.919 233.706 277.919 233.06C277.919 232.416 278.359 231.887 278.894 231.887Z" fill="#FBDF21"/>
        <path d="M278.908 231.896H304.303C304.838 231.896 305.276 232.425 305.276 233.07C305.276 233.715 304.838 234.243 304.303 234.243H278.908C278.372 234.243 277.934 233.715 277.934 233.07C277.934 232.425 278.372 231.896 278.908 231.896Z" stroke="#171B1C" stroke-width="0.754676" stroke-miterlimit="2.613"/>
        <path fill-rule="evenodd" clip-rule="evenodd" d="M288.13 231.84C288.156 226.875 291.52 225.472 291.537 225.475C291.537 225.475 295.047 226.923 295.076 231.842L288.129 231.84" fill="#FBDF21"/>
        <path d="M288.136 231.841C288.164 226.876 291.526 225.473 291.543 225.475C291.545 225.475 295.055 226.924 295.081 231.841H288.136Z" stroke="#171B1C" stroke-width="0.752941" stroke-miterlimit="2.613"/>
        <path fill-rule="evenodd" clip-rule="evenodd" d="M279.427 218.394H303.773C304.285 218.394 304.705 218.869 304.705 219.449C304.705 220.029 304.285 220.504 303.773 220.504H279.428C278.915 220.504 278.494 220.029 278.494 219.449C278.494 218.869 278.915 218.394 279.428 218.394" fill="#FBDF21"/>
        <path d="M279.432 218.391H303.779C304.291 218.391 304.71 218.867 304.71 219.447C304.71 220.027 304.291 220.503 303.779 220.503H279.432C278.92 220.503 278.501 220.027 278.501 219.447C278.501 218.867 278.92 218.391 279.432 218.391Z" stroke="#171B1C" stroke-width="0.754409" stroke-miterlimit="2.613"/>
        <path fill-rule="evenodd" clip-rule="evenodd" d="M279.942 220.507H303.229C303.718 220.507 304.121 220.981 304.121 221.563C304.121 222.142 303.718 222.618 303.229 222.618H279.941C279.452 222.618 279.049 222.142 279.049 221.563C279.049 220.981 279.452 220.507 279.941 220.507" fill="#FBDF21"/>
        <path d="M279.947 220.505H303.234C303.724 220.505 304.126 220.979 304.126 221.56C304.126 222.141 303.724 222.616 303.234 222.616H279.947C279.456 222.616 279.054 222.141 279.054 221.56C279.054 220.979 279.456 220.505 279.947 220.505Z" stroke="#171B1C" stroke-width="0.754409" stroke-miterlimit="2.613"/>
        <path fill-rule="evenodd" clip-rule="evenodd" d="M287.467 204.646L289.305 204.649V205.956H290.646V204.62L292.532 204.625V205.956H293.877V204.621H295.76L295.757 207.635C295.757 208.106 295.376 208.414 294.936 208.414H288.326C287.882 208.414 287.471 208.06 287.471 207.625L287.467 204.646Z" fill="#FBDF21"/>
        <path d="M287.459 204.655L289.297 204.659V205.965H290.638V204.628L292.523 204.635V205.965H293.869V204.63L295.752 204.631L295.749 207.645C295.749 208.115 295.368 208.423 294.929 208.423L288.319 208.424C287.874 208.424 287.464 208.069 287.462 207.635L287.459 204.655Z" stroke="#171B1C" stroke-width="0.755314" stroke-miterlimit="2.613"/>
        <path fill-rule="evenodd" clip-rule="evenodd" d="M294.392 208.68L294.807 218.347L288.358 218.324L288.784 208.657L294.392 208.68Z" fill="#FBDF21"/>
        <path d="M294.391 208.67L294.806 218.337L288.358 218.315L288.784 208.646L294.391 208.67Z" stroke="#171B1C" stroke-width="0.754409" stroke-miterlimit="2.613"/>
        <path fill-rule="evenodd" clip-rule="evenodd" d="M295.466 209.372L297.266 209.375V210.682H298.579V209.346L300.422 209.351V210.682H301.741V209.346L303.584 209.347L303.581 212.361C303.581 212.832 303.209 213.14 302.777 213.14H296.308C295.874 213.14 295.471 212.786 295.47 212.351L295.466 209.372Z" fill="#FBDF21"/>
        <path d="M295.46 209.383L297.259 209.386V210.692H298.572V209.357L300.417 209.362V210.692H301.733V209.357L303.577 209.358L303.574 212.373C303.574 212.844 303.202 213.15 302.771 213.15L296.301 213.151C295.867 213.151 295.465 212.796 295.464 212.362L295.46 209.383Z" stroke="#171B1C" stroke-width="0.755181" stroke-miterlimit="2.613"/>
        <path fill-rule="evenodd" clip-rule="evenodd" d="M302.417 213.141L302.614 218.352L296.43 218.355L296.604 213.14L302.417 213.141Z" fill="#FBDF21"/>
        <path d="M302.419 213.135L302.615 218.346L296.431 218.348L296.606 213.134L302.419 213.135Z" stroke="#171B1C" stroke-width="0.756007" stroke-miterlimit="2.613"/>
        <path fill-rule="evenodd" clip-rule="evenodd" d="M279.569 209.386L281.368 209.39V210.696H282.683V209.36L284.525 209.366V210.696H285.843V209.36L287.687 209.362L287.684 212.376C287.684 212.847 287.311 213.154 286.881 213.154H280.411C279.976 213.154 279.575 212.799 279.573 212.365L279.569 209.386Z" fill="#FBDF21"/>
        <path d="M279.564 209.396L281.362 209.4V210.707H282.676V209.371L284.519 209.377V210.707H285.837L285.836 209.371L287.681 209.373L287.677 212.387C287.677 212.857 287.305 213.165 286.873 213.165L280.404 213.166C279.97 213.166 279.568 212.811 279.566 212.377L279.564 209.396Z" stroke="#171B1C" stroke-width="0.755181" stroke-miterlimit="2.613"/>
        <path fill-rule="evenodd" clip-rule="evenodd" d="M286.518 213.155L286.716 218.366L280.531 218.37L280.706 213.154L286.518 213.156" fill="#FBDF21"/>
        <path d="M286.521 213.149L286.719 218.36L280.533 218.363L280.708 213.148L286.521 213.149Z" stroke="#171B1C" stroke-width="0.756007" stroke-miterlimit="2.613"/>
        <path fill-rule="evenodd" clip-rule="evenodd" d="M290.952 211.731C290.912 210.791 292.266 210.782 292.248 211.731V214.036H290.952V211.731ZM298.908 215.063C298.904 214.156 300.162 214.136 300.147 215.063V216.841H298.908V215.063ZM282.962 215.08C282.958 214.172 284.216 214.151 284.201 215.08V216.857H282.962V215.08Z" fill="#171B1C"/>
        <path fill-rule="evenodd" clip-rule="evenodd" d="M355.97 204.658L357.808 204.662V205.969H359.151V204.633L361.035 204.638V205.969L362.381 205.968V204.633L364.264 204.634L364.262 207.649C364.262 208.119 363.881 208.427 363.441 208.427H356.83C356.386 208.427 355.976 208.071 355.974 207.638L355.97 204.658Z" fill="#FBDF21"/>
        <path d="M355.961 204.668L357.799 204.671V205.979H359.141V204.642L361.024 204.647V205.979L362.371 205.977V204.643H364.254L364.252 207.657C364.252 208.128 363.871 208.436 363.43 208.436H356.82C356.377 208.436 355.965 208.082 355.965 207.648L355.961 204.668Z" stroke="#171B1C" stroke-width="0.755314" stroke-miterlimit="2.613"/>
        <path fill-rule="evenodd" clip-rule="evenodd" d="M362.895 208.693L363.31 218.36L356.862 218.338L357.289 208.669L362.895 208.693Z" fill="#FBDF21"/>
        <path d="M362.895 208.682L363.31 218.35L356.861 218.327L357.288 208.658L362.895 208.682Z" stroke="#171B1C" stroke-width="0.754409" stroke-miterlimit="2.613"/>
        <path fill-rule="evenodd" clip-rule="evenodd" d="M363.971 209.384L365.77 209.387V210.694H367.083V209.358L368.927 209.363V210.694H370.245V209.359L372.088 209.36L372.085 212.373C372.084 212.845 371.713 213.152 371.283 213.152L364.811 213.153C364.378 213.153 363.976 212.797 363.974 212.364L363.971 209.384Z" fill="#FBDF21"/>
        <path d="M363.962 209.395L365.762 209.398V210.706H367.075V209.369L368.918 209.374V210.706L370.236 210.704V209.37L372.079 209.371L372.077 212.385C372.075 212.856 371.705 213.163 371.273 213.163L364.804 213.165C364.369 213.165 363.968 212.81 363.966 212.375L363.962 209.395Z" stroke="#171B1C" stroke-width="0.755181" stroke-miterlimit="2.613"/>
        <path fill-rule="evenodd" clip-rule="evenodd" d="M370.92 213.153L371.118 218.364L364.933 218.367L365.107 213.153H370.92Z" fill="#FBDF21"/>
        <path d="M370.923 213.148L371.121 218.359L364.936 218.361L365.11 213.147L370.923 213.148Z" stroke="#171B1C" stroke-width="0.756007" stroke-miterlimit="2.613"/>
        <path fill-rule="evenodd" clip-rule="evenodd" d="M348.074 209.399L349.872 209.403V210.708H351.186V209.372L353.03 209.378V210.708H354.347V209.374L356.191 209.375L356.188 212.388C356.187 212.86 355.815 213.166 355.383 213.166H348.914C348.48 213.166 348.078 212.812 348.078 212.379L348.074 209.399Z" fill="#FBDF21"/>
        <path d="M348.065 209.41L349.865 209.414V210.72H351.177V209.383L353.021 209.388V210.72H354.339V209.385L356.182 209.386L356.179 212.399C356.179 212.87 355.807 213.178 355.376 213.178H348.907C348.473 213.178 348.07 212.823 348.069 212.39L348.065 209.41Z" stroke="#171B1C" stroke-width="0.755181" stroke-miterlimit="2.613"/>
        <path fill-rule="evenodd" clip-rule="evenodd" d="M355.022 213.169L355.219 218.379L349.035 218.382L349.21 213.166L355.022 213.169Z" fill="#FBDF21"/>
        <path d="M355.025 213.163L355.223 218.373L349.039 218.376L349.212 213.161L355.025 213.163Z" stroke="#171B1C" stroke-width="0.756007" stroke-miterlimit="2.613"/>
        <path fill-rule="evenodd" clip-rule="evenodd" d="M353.902 232.459C354.104 224.186 359.974 222.226 360.017 222.198C360.059 222.17 366.357 224.307 366.337 232.537L353.902 232.459Z" fill="#FBDF21"/>
        <path fill-rule="evenodd" clip-rule="evenodd" d="M348.833 222.348L347.812 231.855L354.017 231.868C354.075 224.004 359.972 222.695 360.115 222.723C360.248 222.713 366.092 224.461 366.248 231.87H372.469L371.344 222.291L348.834 222.348" fill="#FBDF21"/>
        <path d="M348.857 222.336L347.835 231.843L354.04 231.858C354.1 223.991 359.997 222.683 360.14 222.712C360.272 222.703 366.116 224.449 366.272 231.858H372.495L371.37 222.279L348.857 222.336Z" stroke="#171B1C" stroke-width="0.754704" stroke-miterlimit="2.613"/>
        <path fill-rule="evenodd" clip-rule="evenodd" d="M347.397 231.9H372.791C373.326 231.9 373.763 232.427 373.763 233.073C373.763 233.718 373.326 234.247 372.791 234.247H347.397C346.862 234.247 346.425 233.718 346.425 233.073C346.425 232.427 346.862 231.9 347.397 231.9Z" fill="#FBDF21"/>
        <path d="M347.414 231.909H372.811C373.346 231.909 373.783 232.438 373.783 233.082C373.783 233.728 373.346 234.257 372.811 234.257H347.414C346.88 234.257 346.441 233.728 346.441 233.082C346.441 232.438 346.88 231.909 347.414 231.909Z" stroke="#171B1C" stroke-width="0.754676" stroke-miterlimit="2.613"/>
        <path fill-rule="evenodd" clip-rule="evenodd" d="M356.634 231.854C356.662 226.888 360.024 225.485 360.041 225.488C360.041 225.488 363.552 226.936 363.579 231.854H356.634Z" fill="#FBDF21"/>
        <path d="M356.643 231.854C356.67 226.889 360.031 225.484 360.05 225.487C360.051 225.487 363.56 226.937 363.588 231.854H356.643Z" stroke="#171B1C" stroke-width="0.752941" stroke-miterlimit="2.613"/>
        <path fill-rule="evenodd" clip-rule="evenodd" d="M347.932 218.406H372.276C372.788 218.406 373.208 218.881 373.208 219.461C373.208 220.041 372.788 220.517 372.276 220.517H347.932C347.42 220.517 346.999 220.041 346.999 219.461C346.999 218.881 347.42 218.406 347.932 218.406Z" fill="#FBDF21"/>
        <path d="M347.939 218.403H372.282C372.797 218.403 373.217 218.879 373.217 219.459C373.217 220.039 372.797 220.515 372.282 220.515H347.939C347.425 220.515 347.005 220.039 347.005 219.459C347.005 218.879 347.425 218.403 347.939 218.403Z" stroke="#171B1C" stroke-width="0.754409" stroke-miterlimit="2.613"/>
        <path fill-rule="evenodd" clip-rule="evenodd" d="M348.445 220.52H371.732C372.223 220.52 372.625 220.995 372.625 221.575C372.625 222.156 372.223 222.63 371.732 222.63H348.444C347.954 222.63 347.552 222.156 347.552 221.575C347.552 220.995 347.954 220.52 348.444 220.52" fill="#FBDF21"/>
        <path d="M348.452 220.518H371.739C372.23 220.518 372.631 220.992 372.631 221.574C372.631 222.154 372.23 222.63 371.739 222.63H348.452C347.961 222.63 347.56 222.154 347.56 221.574C347.56 220.992 347.961 220.518 348.452 220.518Z" stroke="#171B1C" stroke-width="0.754409" stroke-miterlimit="2.613"/>
        <path fill-rule="evenodd" clip-rule="evenodd" d="M359.456 211.745C359.416 210.805 360.769 210.795 360.753 211.745V214.048H359.455V211.745H359.456ZM367.411 215.076C367.407 214.168 368.665 214.148 368.65 215.076V216.853H367.411V215.076ZM351.467 215.092C351.462 214.185 352.719 214.164 352.705 215.092V216.871H351.466V215.092" fill="#171B1C"/>
        <path fill-rule="evenodd" clip-rule="evenodd" d="M423.712 204.704L425.55 204.707V206.014H426.893V204.678L428.777 204.684V206.014H430.122V204.678L432.006 204.681L432.002 207.694C432.002 208.165 431.623 208.472 431.181 208.472L424.571 208.474C424.128 208.474 423.717 208.118 423.715 207.685L423.712 204.704Z" fill="#FBDF21"/>
        <path d="M423.7 204.714L425.538 204.717V206.023H426.881V204.688L428.764 204.693V206.023H430.11V204.688L431.995 204.689L431.991 207.704C431.991 208.175 431.611 208.482 431.17 208.482H424.56C424.116 208.482 423.705 208.127 423.704 207.693L423.7 204.714Z" stroke="#171B1C" stroke-width="0.755314" stroke-miterlimit="2.613"/>
        <path fill-rule="evenodd" clip-rule="evenodd" d="M430.637 208.738L431.052 218.406L424.604 218.383L425.031 208.716L430.637 208.738Z" fill="#FBDF21"/>
        <path d="M430.636 208.728L431.051 218.395L424.603 218.373L425.03 208.704L430.636 208.728Z" stroke="#171B1C" stroke-width="0.754409" stroke-miterlimit="2.613"/>
        <path fill-rule="evenodd" clip-rule="evenodd" d="M431.713 209.43L433.511 209.433V210.74H434.825V209.404L436.668 209.41V210.74H437.987V209.406H439.83L439.827 212.42C439.826 212.891 439.455 213.198 439.022 213.198H432.555C432.119 213.198 431.716 212.844 431.716 212.409L431.712 209.43" fill="#FBDF21"/>
        <path d="M431.703 209.441L433.501 209.444V210.752H434.815V209.415L436.659 209.42V210.752L437.976 210.751V209.416H439.82L439.817 212.431C439.817 212.902 439.444 213.209 439.013 213.209H432.545C432.109 213.209 431.707 212.854 431.707 212.42L431.703 209.441Z" stroke="#171B1C" stroke-width="0.755181" stroke-miterlimit="2.613"/>
        <path fill-rule="evenodd" clip-rule="evenodd" d="M438.662 213.2L438.859 218.411L432.675 218.413L432.849 213.198L438.662 213.2Z" fill="#FBDF21"/>
        <path d="M438.664 213.193L438.863 218.405L432.678 218.408L432.853 213.193H438.664Z" stroke="#171B1C" stroke-width="0.756007" stroke-miterlimit="2.613"/>
        <path fill-rule="evenodd" clip-rule="evenodd" d="M415.815 209.445L417.614 209.447V210.755H418.928V209.418L420.772 209.423V210.755H422.089V209.419H423.933L423.93 212.435C423.93 212.904 423.556 213.213 423.125 213.213H416.656C416.221 213.213 415.82 212.859 415.82 212.424L415.816 209.445" fill="#FBDF21"/>
        <path d="M415.806 209.456L417.605 209.458V210.765H418.918V209.429L420.761 209.435V210.765H422.079V209.431H423.922L423.92 212.445C423.92 212.915 423.547 213.224 423.115 213.224H416.647C416.212 213.224 415.81 212.869 415.81 212.435L415.806 209.456Z" stroke="#171B1C" stroke-width="0.755181" stroke-miterlimit="2.613"/>
        <path fill-rule="evenodd" clip-rule="evenodd" d="M422.764 213.215L422.961 218.425L416.777 218.427L416.952 213.213L422.764 213.214" fill="#FBDF21"/>
        <path d="M422.768 213.208L422.965 218.418L416.78 218.421L416.955 213.208H422.768Z" stroke="#171B1C" stroke-width="0.756007" stroke-miterlimit="2.613"/>
        <path fill-rule="evenodd" clip-rule="evenodd" d="M421.643 232.505C421.846 224.231 427.716 222.272 427.759 222.244C427.801 222.217 434.098 224.354 434.078 232.583L421.642 232.505" fill="#FBDF21"/>
        <path fill-rule="evenodd" clip-rule="evenodd" d="M416.575 222.393L415.554 231.9L421.759 231.914C421.816 224.048 427.714 222.74 427.857 222.769C427.99 222.76 433.834 224.507 433.99 231.914H440.211L439.086 222.336L416.576 222.392" fill="#FBDF21"/>
        <path d="M416.604 222.382L415.582 231.888L421.787 231.903C421.845 224.037 427.744 222.729 427.885 222.757C428.02 222.748 433.863 224.496 434.019 231.904H440.24L439.116 222.324L416.604 222.382Z" stroke="#171B1C" stroke-width="0.754704" stroke-miterlimit="2.613"/>
        <path fill-rule="evenodd" clip-rule="evenodd" d="M415.139 231.945H440.533C441.068 231.945 441.507 232.474 441.507 233.119C441.507 233.765 441.068 234.293 440.533 234.293H415.139C414.604 234.293 414.166 233.765 414.166 233.119C414.166 232.474 414.604 231.945 415.139 231.945Z" fill="#FBDF21"/>
        <path d="M415.16 231.954H440.556C441.09 231.954 441.529 232.484 441.529 233.129C441.529 233.775 441.09 234.303 440.556 234.303H415.16C414.624 234.303 414.187 233.775 414.187 233.129C414.187 232.484 414.624 231.954 415.16 231.954Z" stroke="#171B1C" stroke-width="0.754676" stroke-miterlimit="2.613"/>
        <path fill-rule="evenodd" clip-rule="evenodd" d="M424.376 231.899C424.403 226.933 427.763 225.531 427.782 225.534C427.783 225.534 431.292 226.982 431.321 231.9L424.376 231.899Z" fill="#FBDF21"/>
        <path d="M424.386 231.899C424.413 226.934 427.775 225.531 427.794 225.533C427.794 225.533 431.304 226.982 431.331 231.9L424.386 231.899Z" stroke="#171B1C" stroke-width="0.752941" stroke-miterlimit="2.613"/>
        <path fill-rule="evenodd" clip-rule="evenodd" d="M415.674 218.451H440.018C440.532 218.451 440.952 218.927 440.952 219.508C440.952 220.088 440.532 220.563 440.018 220.563H415.674C415.16 220.563 414.739 220.088 414.739 219.508C414.739 218.927 415.16 218.451 415.674 218.451Z" fill="#FBDF21"/>
        <path d="M415.682 218.45H440.026C440.539 218.45 440.959 218.925 440.959 219.506C440.959 220.086 440.539 220.561 440.026 220.561H415.682C415.169 220.561 414.748 220.086 414.748 219.506C414.748 218.925 415.169 218.45 415.682 218.45Z" stroke="#171B1C" stroke-width="0.754409" stroke-miterlimit="2.613"/>
        <path fill-rule="evenodd" clip-rule="evenodd" d="M416.189 220.566H439.473C439.965 220.566 440.367 221.04 440.367 221.621C440.367 222.201 439.965 222.677 439.473 222.677H416.189C415.697 222.677 415.294 222.201 415.294 221.621C415.294 221.04 415.697 220.566 416.189 220.566Z" fill="#FBDF21"/>
        <path d="M416.196 220.564H439.482C439.972 220.564 440.375 221.039 440.375 221.619C440.375 222.2 439.972 222.675 439.482 222.675H416.196C415.704 222.675 415.304 222.2 415.304 221.619C415.304 221.039 415.704 220.564 416.196 220.564Z" stroke="#171B1C" stroke-width="0.754409" stroke-miterlimit="2.613"/>
        <path fill-rule="evenodd" clip-rule="evenodd" d="M427.197 211.789C427.157 210.85 428.511 210.841 428.493 211.789V214.094H427.197V211.789ZM435.153 215.121C435.149 214.215 436.407 214.193 436.392 215.121V216.9H435.153V215.121ZM419.207 215.138C419.203 214.231 420.46 214.211 420.446 215.138V216.916H419.207V215.137" fill="#171B1C"/>
        <path fill-rule="evenodd" clip-rule="evenodd" d="M287.5 274.041L289.338 274.045V275.352H290.681V274.016L292.564 274.02V275.352L293.911 275.351L293.909 274.016H295.795L295.792 277.03C295.791 277.502 295.411 277.81 294.969 277.81H288.361C287.915 277.81 287.505 277.455 287.504 277.021L287.5 274.041Z" fill="#FBDF21"/>
        <path d="M287.481 274.035L289.319 274.039V275.346H290.66V274.01L292.545 274.014V275.346H293.89V274.01L295.775 274.012L295.771 277.026C295.771 277.496 295.391 277.804 294.95 277.804H288.341C287.896 277.804 287.486 277.45 287.485 277.016L287.481 274.035Z" stroke="#171B1C" stroke-width="0.697849" stroke-miterlimit="2.613"/>
        <path fill-rule="evenodd" clip-rule="evenodd" d="M294.425 278.075L294.84 287.742L288.392 287.719L288.819 278.052L294.425 278.075Z" fill="#FBDF21"/>
        <path d="M294.425 278.066L294.839 287.735L288.391 287.712L288.817 278.044L294.425 278.066Z" stroke="#171B1C" stroke-width="0.749609" stroke-miterlimit="2.613"/>
        <path fill-rule="evenodd" clip-rule="evenodd" d="M295.501 278.767L297.299 278.77V280.077H298.614V278.741L300.457 278.746V280.077H301.774V278.742H303.618L303.615 281.756C303.614 282.227 303.242 282.536 302.81 282.536L296.342 282.537C295.908 282.537 295.505 282.181 295.505 281.748L295.501 278.767Z" fill="#FBDF21"/>
        <path d="M295.51 278.769L297.308 278.772V280.079H298.622V278.743L300.466 278.748V280.079H301.784V278.744H303.627L303.624 281.759C303.624 282.23 303.251 282.538 302.82 282.538H296.352C295.916 282.538 295.514 282.183 295.514 281.749L295.51 278.769Z" stroke="#171B1C" stroke-width="0.711208" stroke-miterlimit="2.613"/>
        <path fill-rule="evenodd" clip-rule="evenodd" d="M302.449 282.537L302.647 287.747L296.463 287.75L296.637 282.537H302.449Z" fill="#FBDF21"/>
        <path d="M302.459 282.54L302.656 287.75L296.472 287.753L296.647 282.539L302.459 282.54Z" stroke="#171B1C" stroke-width="0.698673" stroke-miterlimit="2.613"/>
        <path fill-rule="evenodd" clip-rule="evenodd" d="M279.604 278.782L281.403 278.785V280.091H282.716V278.755L284.559 278.761V280.091H285.878L285.876 278.755L287.72 278.758L287.716 281.771C287.716 282.242 287.344 282.549 286.915 282.549H280.444C280.009 282.549 279.607 282.196 279.607 281.762L279.604 278.782Z" fill="#FBDF21"/>
        <path d="M279.611 278.784L281.411 278.787V280.095H282.725V278.758L284.568 278.763V280.095L285.885 280.093V278.758L287.729 278.76L287.725 281.774C287.725 282.244 287.354 282.553 286.922 282.553H280.453C280.018 282.553 279.615 282.197 279.615 281.763L279.611 278.784Z" stroke="#171B1C" stroke-width="0.711208" stroke-miterlimit="2.613"/>
        <path fill-rule="evenodd" clip-rule="evenodd" d="M286.553 282.551L286.749 287.762L280.566 287.765L280.74 282.549L286.553 282.551Z" fill="#FBDF21"/>
        <path d="M286.561 282.554L286.759 287.765L280.574 287.767L280.749 282.553L286.561 282.554Z" stroke="#171B1C" stroke-width="0.698673" stroke-miterlimit="2.613"/>
        <path fill-rule="evenodd" clip-rule="evenodd" d="M285.432 301.842C285.634 293.569 291.505 291.609 291.547 291.581C291.589 291.553 297.888 293.69 297.866 301.919L285.432 301.842Z" fill="#FBDF21"/>
        <path fill-rule="evenodd" clip-rule="evenodd" d="M280.364 291.731L279.342 301.238L285.546 301.251C285.605 293.387 291.502 292.077 291.644 292.106C291.778 292.097 297.621 293.844 297.777 301.253H303.999L302.874 291.674L280.364 291.731Z" fill="#FBDF21"/>
        <path d="M280.381 291.72L279.36 301.228L285.564 301.241C285.623 293.375 291.52 292.066 291.663 292.095C291.797 292.086 297.641 293.834 297.796 301.242H304.018L302.894 291.662L280.381 291.72Z" stroke="#171B1C" stroke-width="0.749904" stroke-miterlimit="2.613"/>
        <path fill-rule="evenodd" clip-rule="evenodd" d="M278.926 301.283H304.321C304.856 301.283 305.294 301.81 305.294 302.456C305.294 303.102 304.856 303.629 304.321 303.629H278.926C278.391 303.629 277.954 303.102 277.954 302.456C277.954 301.81 278.391 301.283 278.926 301.283Z" fill="#FBDF21"/>
        <path d="M278.941 301.291H304.337C304.873 301.291 305.31 301.818 305.31 302.464C305.31 303.109 304.873 303.637 304.337 303.637H278.941C278.406 303.637 277.967 303.109 277.967 302.464C277.967 301.818 278.406 301.291 278.941 301.291Z" stroke="#171B1C" stroke-width="0.749876" stroke-miterlimit="2.613"/>
        <path fill-rule="evenodd" clip-rule="evenodd" d="M288.163 301.237C288.191 296.272 291.553 294.868 291.57 294.871C291.572 294.871 295.082 296.319 295.109 301.237H288.163Z" fill="#FBDF21"/>
        <path d="M288.171 301.238C288.199 296.271 291.561 294.869 291.578 294.872C291.579 294.872 295.089 296.32 295.116 301.238H288.171Z" stroke="#171B1C" stroke-width="0.743475" stroke-miterlimit="2.613"/>
        <path fill-rule="evenodd" clip-rule="evenodd" d="M279.461 287.789H303.805C304.319 287.789 304.739 288.265 304.739 288.844C304.739 289.424 304.319 289.9 303.805 289.9H279.461C278.949 289.9 278.529 289.424 278.529 288.844C278.529 288.265 278.949 287.789 279.461 287.789Z" fill="#FBDF21"/>
        <path d="M279.467 287.787H303.812C304.324 287.787 304.745 288.262 304.745 288.843C304.745 289.424 304.324 289.898 303.812 289.898H279.467C278.954 289.898 278.534 289.424 278.534 288.843C278.534 288.262 278.954 287.787 279.467 287.787Z" stroke="#171B1C" stroke-width="0.749609" stroke-miterlimit="2.613"/>
        <path fill-rule="evenodd" clip-rule="evenodd" d="M279.976 289.902H303.261C303.753 289.902 304.154 290.378 304.154 290.958C304.154 291.54 303.753 292.013 303.261 292.013H279.976C279.485 292.013 279.083 291.54 279.083 290.958C279.083 290.378 279.485 289.902 279.976 289.902Z" fill="#FBDF21"/>
        <path d="M279.981 289.901H303.267C303.757 289.901 304.161 290.375 304.161 290.957C304.161 291.537 303.757 292.012 303.267 292.012H279.981C279.489 292.012 279.089 291.537 279.089 290.957C279.089 290.375 279.489 289.901 279.981 289.901Z" stroke="#171B1C" stroke-width="0.749609" stroke-miterlimit="2.613"/>
        <path fill-rule="evenodd" clip-rule="evenodd" d="M290.984 281.128C290.945 280.186 292.299 280.178 292.283 281.128V283.432H290.984V281.128ZM298.941 284.459C298.937 283.552 300.195 283.532 300.18 284.459V286.237H298.941V284.459ZM282.995 284.475C282.99 283.567 284.249 283.548 284.233 284.475V286.252H282.994V284.475" fill="#171B1C"/>
        <path fill-rule="evenodd" clip-rule="evenodd" d="M419.717 347.253L421.014 348.555L420.091 349.478L421.039 350.428L421.983 349.482L423.311 350.818L422.37 351.758L423.323 352.712L424.267 351.766L425.599 353.1L423.465 355.229C423.132 355.56 422.645 355.511 422.334 355.199L417.659 350.524C417.346 350.211 417.306 349.671 417.613 349.362L419.717 347.253Z" fill="#FBDF21"/>
        <path d="M419.691 347.262L420.989 348.563L420.065 349.487L421.013 350.436L421.958 349.492L423.286 350.827L422.345 351.767L423.297 352.719L424.24 351.775L425.573 353.108L423.438 355.237C423.105 355.569 422.619 355.518 422.308 355.207L417.634 350.533C417.32 350.219 417.28 349.678 417.587 349.371L419.691 347.262Z" stroke="#171B1C" stroke-width="0.755425" stroke-miterlimit="2.613"/>
        <path fill-rule="evenodd" clip-rule="evenodd" d="M421.762 355.001L415.218 362.13L410.674 357.555L417.812 351.021L421.761 355.001" fill="#FBDF21"/>
        <path d="M421.775 354.987L415.232 362.117L410.689 357.543L417.828 351.007L421.775 354.987Z" stroke="#171B1C" stroke-width="0.762661" stroke-miterlimit="2.613"/>
        <path fill-rule="evenodd" clip-rule="evenodd" d="M422.032 356.25L423.302 357.526L422.378 358.45L423.306 359.377L424.251 358.434L425.551 359.741L424.611 360.682L425.542 361.614L426.486 360.669L427.789 361.973L425.654 364.102C425.321 364.435 424.841 364.389 424.536 364.085L419.963 359.511C419.655 359.203 419.62 358.668 419.928 358.361L422.032 356.25Z" fill="#FBDF21"/>
        <path d="M422.02 356.272L423.29 357.546L422.366 358.469L423.294 359.398L424.24 358.454L425.54 359.761L424.598 360.702L425.53 361.633L426.474 360.688L427.777 361.993L425.643 364.122C425.311 364.454 424.829 364.409 424.525 364.104L419.95 359.53C419.642 359.223 419.609 358.688 419.916 358.381L422.02 356.272Z" stroke="#171B1C" stroke-width="0.755831" stroke-miterlimit="2.613"/>
        <path fill-rule="evenodd" clip-rule="evenodd" d="M424.279 363.83L420.734 367.653L416.36 363.283L420.171 359.719L424.28 363.83" fill="#FBDF21"/>
        <path d="M424.283 363.839L420.738 367.662L416.364 363.293L420.175 359.729L424.283 363.839Z" stroke="#171B1C" stroke-width="0.756018" stroke-miterlimit="2.613"/>
        <path fill-rule="evenodd" clip-rule="evenodd" d="M410.779 345.021L412.05 346.295L411.126 347.218L412.055 348.148L413.001 347.203L414.299 348.51L413.359 349.452L414.29 350.383L415.234 349.438L416.537 350.743L414.404 352.872C414.071 353.204 413.589 353.16 413.284 352.854L408.711 348.28C408.403 347.973 408.37 347.438 408.676 347.13L410.78 345.021" fill="#FBDF21"/>
        <path d="M410.768 345.041L412.038 346.315L411.114 347.24L412.043 348.168L412.987 347.223L414.287 348.531L413.345 349.471L414.278 350.403L415.222 349.458L416.525 350.764L414.391 352.892C414.059 353.225 413.578 353.179 413.273 352.874L408.697 348.3C408.39 347.994 408.357 347.458 408.664 347.151L410.768 345.041Z" stroke="#171B1C" stroke-width="0.755831" stroke-miterlimit="2.613"/>
        <path fill-rule="evenodd" clip-rule="evenodd" d="M413.029 352.599L409.484 356.424L405.108 352.053L408.919 348.489L413.029 352.599Z" fill="#FBDF21"/>
        <path d="M413.032 352.609L409.487 356.433L405.113 352.062L408.924 348.499L413.032 352.609Z" stroke="#171B1C" stroke-width="0.756018" stroke-miterlimit="2.613"/>
        <path fill-rule="evenodd" clip-rule="evenodd" d="M398.595 365.448C404.589 359.741 410.124 362.506 410.175 362.517C410.224 362.526 413.165 368.491 407.333 374.294L398.595 365.448Z" fill="#FBDF21"/>
        <path fill-rule="evenodd" clip-rule="evenodd" d="M402.161 354.715L394.715 360.715L399.093 365.112C404.697 359.592 409.791 362.836 409.873 362.957C409.974 363.045 412.871 368.412 407.741 373.761L412.14 378.159L418.119 370.591L402.161 354.715Z" fill="#FBDF21"/>
        <path d="M402.148 354.71L394.702 360.709L399.08 365.106C404.682 359.586 409.777 362.831 409.857 362.952C409.959 363.039 412.855 368.407 407.726 373.755L412.125 378.154L418.104 370.586L402.148 354.71Z" stroke="#171B1C" stroke-width="0.7547" stroke-miterlimit="2.613"/>
        <path fill-rule="evenodd" clip-rule="evenodd" d="M394.391 360.453L412.348 378.408C412.725 378.788 412.662 379.469 412.205 379.927C411.749 380.383 411.065 380.446 410.688 380.068L392.73 362.113C392.353 361.733 392.417 361.053 392.873 360.595C393.33 360.139 394.012 360.075 394.391 360.453Z" fill="#FBDF21"/>
        <path d="M394.375 360.472L412.331 378.428C412.709 378.806 412.645 379.488 412.189 379.945C411.732 380.402 411.05 380.466 410.671 380.087L392.714 362.132C392.337 361.754 392.4 361.07 392.857 360.614C393.313 360.157 393.996 360.094 394.375 360.472Z" stroke="#171B1C" stroke-width="0.759515" stroke-miterlimit="2.613"/>
        <path fill-rule="evenodd" clip-rule="evenodd" d="M400.954 366.951C404.485 363.46 407.854 364.845 407.866 364.86C407.866 364.86 409.323 368.366 405.865 371.862L400.954 366.951Z" fill="#FBDF21"/>
        <path d="M400.971 366.937C404.504 363.446 407.872 364.83 407.884 364.845C407.884 364.845 409.341 368.351 405.882 371.848L400.971 366.937Z" stroke="#171B1C" stroke-width="0.75212" stroke-miterlimit="2.613"/>
        <path fill-rule="evenodd" clip-rule="evenodd" d="M404.311 351.289L421.525 368.503C421.888 368.865 421.848 369.498 421.439 369.909C421.027 370.319 420.395 370.359 420.032 369.995L402.817 352.783C402.455 352.419 402.494 351.786 402.904 351.377C403.316 350.965 403.947 350.926 404.311 351.289Z" fill="#FBDF21"/>
        <path d="M404.318 351.288L421.532 368.501C421.896 368.865 421.856 369.498 421.447 369.907C421.035 370.318 420.402 370.357 420.04 369.995L402.826 352.781C402.462 352.419 402.502 351.785 402.912 351.375C403.323 350.964 403.956 350.926 404.318 351.288Z" stroke="#171B1C" stroke-width="0.754409" stroke-miterlimit="2.613"/>
        <path fill-rule="evenodd" clip-rule="evenodd" d="M403.18 353.148L419.646 369.611C419.993 369.959 419.941 370.579 419.531 370.99C419.119 371.402 418.5 371.453 418.152 371.105L401.686 354.642C401.339 354.294 401.392 353.673 401.802 353.263C402.214 352.852 402.832 352.8 403.18 353.148Z" fill="#FBDF21"/>
        <path d="M403.187 353.146L419.653 369.611C420.001 369.959 419.949 370.579 419.538 370.988C419.127 371.399 418.507 371.451 418.161 371.105L401.694 354.639C401.347 354.292 401.4 353.672 401.811 353.262C402.22 352.851 402.84 352.8 403.187 353.146Z" stroke="#171B1C" stroke-width="0.754409" stroke-miterlimit="2.613"/>
        <path fill-rule="evenodd" clip-rule="evenodd" d="M417.17 354.529C417.807 353.836 418.77 354.786 418.088 355.445L416.458 357.075L415.54 356.158L417.17 354.529ZM420.44 362.511C421.078 361.866 421.982 362.741 421.316 363.386L420.057 364.645L419.183 363.767L420.44 362.511ZM409.154 351.248C409.791 350.602 410.695 351.479 410.029 352.123L408.771 353.38L407.895 352.506L409.154 351.247" fill="#171B1C"/>
        <path fill-rule="evenodd" clip-rule="evenodd" d="M423.61 274.054L425.447 274.059V275.365H426.79V274.029L428.673 274.035V275.365H430.019V274.029L431.903 274.031L431.901 277.045C431.901 277.516 431.52 277.823 431.08 277.823H424.469C424.025 277.823 423.614 277.47 423.612 277.034L423.61 274.055" fill="#FBDF21"/>
        <path d="M423.598 274.063L425.436 274.067V275.373H426.778V274.038L428.661 274.042V275.373H430.008V274.038L431.892 274.039L431.889 277.053C431.889 277.523 431.508 277.831 431.067 277.831H424.457C424.014 277.831 423.602 277.477 423.602 277.043L423.598 274.063Z" stroke="#171B1C" stroke-width="0.755314" stroke-miterlimit="2.613"/>
        <path fill-rule="evenodd" clip-rule="evenodd" d="M430.535 278.089L430.95 287.757L424.501 287.733L424.928 278.067L430.535 278.089Z" fill="#FBDF21"/>
        <path d="M430.533 278.081L430.948 287.748L424.5 287.725L424.926 278.058L430.533 278.081Z" stroke="#171B1C" stroke-width="0.754409" stroke-miterlimit="2.613"/>
        <path fill-rule="evenodd" clip-rule="evenodd" d="M431.609 278.781L433.409 278.785V280.091H434.722V278.755L436.565 278.761V280.091H437.884V278.755L439.727 278.757L439.724 281.771C439.723 282.242 439.352 282.549 438.921 282.549H432.452C432.017 282.549 431.615 282.195 431.613 281.76L431.609 278.781Z" fill="#FBDF21"/>
        <path d="M431.6 278.79L433.399 278.794V280.1H434.712V278.765L436.555 278.769V280.1H437.873V278.765L439.717 278.766L439.714 281.779C439.714 282.25 439.342 282.558 438.911 282.558L432.441 282.559C432.006 282.559 431.605 282.204 431.604 281.77L431.6 278.79Z" stroke="#171B1C" stroke-width="0.755181" stroke-miterlimit="2.613"/>
        <path fill-rule="evenodd" clip-rule="evenodd" d="M438.559 282.551L438.756 287.761L432.572 287.763L432.746 282.549L438.559 282.551Z" fill="#FBDF21"/>
        <path d="M438.562 282.546L438.76 287.757L432.575 287.76L432.75 282.545L438.562 282.546Z" stroke="#171B1C" stroke-width="0.756007" stroke-miterlimit="2.613"/>
        <path fill-rule="evenodd" clip-rule="evenodd" d="M415.713 278.795L417.511 278.799V280.105H418.825V278.77L420.669 278.774V280.105H421.986V278.77L423.829 278.771L423.827 281.786C423.826 282.256 423.454 282.563 423.024 282.563L416.553 282.564C416.119 282.564 415.717 282.208 415.717 281.775L415.713 278.795Z" fill="#FBDF21"/>
        <path d="M415.702 278.804L417.502 278.808V280.115H418.815V278.779L420.658 278.783V280.115H421.976V278.779L423.819 278.781L423.816 281.794C423.816 282.265 423.445 282.572 423.013 282.572L416.544 282.574C416.11 282.574 415.706 282.219 415.706 281.785L415.702 278.804Z" stroke="#171B1C" stroke-width="0.755181" stroke-miterlimit="2.613"/>
        <path fill-rule="evenodd" clip-rule="evenodd" d="M422.661 282.564L422.858 287.775L416.674 287.779L416.849 282.564H422.661Z" fill="#FBDF21"/>
        <path d="M422.664 282.56L422.862 287.771L416.678 287.774L416.853 282.56H422.664Z" stroke="#171B1C" stroke-width="0.756007" stroke-miterlimit="2.613"/>
        <path fill-rule="evenodd" clip-rule="evenodd" d="M421.541 301.856C421.743 293.582 427.613 291.623 427.655 291.596C427.698 291.568 433.996 293.704 433.975 301.934L421.541 301.855" fill="#FBDF21"/>
        <path fill-rule="evenodd" clip-rule="evenodd" d="M416.472 291.744L415.451 301.251L421.656 301.265C421.713 293.4 427.611 292.092 427.754 292.12C427.886 292.111 433.73 293.859 433.887 301.266L440.108 301.267L438.984 291.687L416.472 291.744Z" fill="#FBDF21"/>
        <path d="M416.501 291.735L415.478 301.242L421.684 301.256C421.743 293.391 427.64 292.082 427.783 292.111C427.916 292.101 433.76 293.848 433.916 301.257L440.137 301.258L439.013 291.678L416.501 291.735Z" stroke="#171B1C" stroke-width="0.754704" stroke-miterlimit="2.613"/>
        <path fill-rule="evenodd" clip-rule="evenodd" d="M415.037 301.297H440.43C440.966 301.297 441.402 301.824 441.402 302.47C441.402 303.115 440.966 303.644 440.43 303.644H415.037C414.501 303.644 414.063 303.115 414.063 302.47C414.063 301.824 414.501 301.297 415.037 301.297Z" fill="#FBDF21"/>
        <path d="M415.058 301.305H440.453C440.989 301.305 441.425 301.833 441.425 302.478C441.425 303.123 440.989 303.652 440.453 303.652H415.058C414.522 303.652 414.083 303.123 414.083 302.478C414.083 301.833 414.522 301.305 415.058 301.305Z" stroke="#171B1C" stroke-width="0.754676" stroke-miterlimit="2.613"/>
        <path fill-rule="evenodd" clip-rule="evenodd" d="M424.273 301.25C424.3 296.284 427.662 294.882 427.679 294.884C427.68 294.884 431.191 296.333 431.218 301.251L424.273 301.25Z" fill="#FBDF21"/>
        <path d="M424.283 301.251C424.31 296.286 427.672 294.882 427.691 294.885C427.692 294.885 431.201 296.333 431.229 301.252L424.283 301.251Z" stroke="#171B1C" stroke-width="0.752941" stroke-miterlimit="2.613"/>
        <path fill-rule="evenodd" clip-rule="evenodd" d="M415.571 287.802H439.915C440.427 287.802 440.847 288.277 440.847 288.859C440.847 289.439 440.427 289.914 439.915 289.914H415.571C415.058 289.914 414.638 289.439 414.638 288.859C414.638 288.277 415.058 287.802 415.571 287.802Z" fill="#FBDF21"/>
        <path d="M415.578 287.801H439.923C440.436 287.801 440.856 288.276 440.856 288.857C440.856 289.437 440.436 289.912 439.923 289.912H415.578C415.066 289.912 414.645 289.437 414.645 288.857C414.645 288.276 415.066 287.801 415.578 287.801Z" stroke="#171B1C" stroke-width="0.754409" stroke-miterlimit="2.613"/>
        <path fill-rule="evenodd" clip-rule="evenodd" d="M416.085 289.916H439.37C439.862 289.916 440.263 290.391 440.263 290.972C440.263 291.552 439.862 292.028 439.37 292.028H416.085C415.594 292.028 415.191 291.552 415.191 290.972C415.191 290.391 415.594 289.916 416.085 289.916Z" fill="#FBDF21"/>
        <path d="M416.093 289.915H439.379C439.87 289.915 440.272 290.39 440.272 290.97C440.272 291.551 439.87 292.026 439.379 292.026H416.093C415.601 292.026 415.199 291.551 415.199 290.97C415.199 290.39 415.601 289.915 416.093 289.915Z" stroke="#171B1C" stroke-width="0.754409" stroke-miterlimit="2.613"/>
        <path fill-rule="evenodd" clip-rule="evenodd" d="M427.094 281.141C427.055 280.201 428.409 280.192 428.392 281.141V283.444H427.093V281.141H427.094ZM435.05 284.472C435.046 283.566 436.304 283.545 436.289 284.472V286.25H435.05V284.471V284.472ZM419.105 284.488C419.101 283.582 420.357 283.56 420.343 284.488V286.267H419.104V284.488" fill="#171B1C"/>
        <path fill-rule="evenodd" clip-rule="evenodd" d="M294.219 352.995L295.521 351.699L296.446 352.622L297.394 351.674L296.45 350.729L297.786 349.401L298.727 350.342L299.679 349.39L298.733 348.447L300.067 347.115L302.196 349.248C302.528 349.581 302.477 350.067 302.166 350.378L297.491 355.053C297.178 355.368 296.636 355.408 296.33 355.1L294.219 352.995Z" fill="#FBDF21"/>
        <path d="M294.195 353.011L295.497 351.714L296.421 352.637L297.37 351.689L296.425 350.744L297.761 349.416L298.702 350.357L299.654 349.405L298.709 348.461L300.042 347.13L302.171 349.263C302.503 349.596 302.452 350.083 302.141 350.394L297.467 355.068C297.154 355.382 296.612 355.422 296.305 355.115L294.195 353.011Z" stroke="#171B1C" stroke-width="0.755237" stroke-miterlimit="2.613"/>
        <path fill-rule="evenodd" clip-rule="evenodd" d="M301.969 350.952L309.097 357.494L304.522 362.038L297.988 354.9L301.969 350.952Z" fill="#FBDF21"/>
        <path d="M301.978 350.958L309.109 357.501L304.532 362.044L297.998 354.906L301.978 350.958Z" stroke="#171B1C" stroke-width="0.754372" stroke-miterlimit="2.613"/>
        <path fill-rule="evenodd" clip-rule="evenodd" d="M303.218 350.68L304.493 349.41L305.417 350.335L306.346 349.406L305.401 348.463L306.708 347.162L307.649 348.104L308.581 347.172L307.635 346.227L308.94 344.925L311.071 347.058C311.402 347.391 311.357 347.872 311.052 348.177L306.478 352.751C306.17 353.058 305.635 353.092 305.328 352.785L303.218 350.68Z" fill="#FBDF21"/>
        <path d="M303.209 350.671L304.484 349.401L305.407 350.325L306.336 349.396L305.391 348.452L306.698 347.152L307.64 348.093L308.571 347.161L307.626 346.217L308.931 344.915L311.06 347.048C311.392 347.381 311.347 347.861 311.043 348.166L306.468 352.741C306.161 353.048 305.625 353.082 305.319 352.775L303.209 350.671Z" stroke="#171B1C" stroke-width="0.755171" stroke-miterlimit="2.613"/>
        <path fill-rule="evenodd" clip-rule="evenodd" d="M310.797 348.433L314.621 351.978L310.251 356.352L306.687 352.542L310.797 348.434" fill="#FBDF21"/>
        <path d="M310.795 348.45L314.619 351.994L310.249 356.368L306.684 352.558L310.795 348.45Z" stroke="#171B1C" stroke-width="0.756018" stroke-miterlimit="2.613"/>
        <path fill-rule="evenodd" clip-rule="evenodd" d="M291.988 361.933L293.261 360.662L294.186 361.586L295.115 360.658L294.17 359.712L295.477 358.413L296.418 359.354L297.35 358.422L296.405 357.478L297.71 356.175L299.84 358.308C300.172 358.641 300.127 359.123 299.821 359.426L295.247 364.001C294.94 364.31 294.404 364.342 294.098 364.036L291.988 361.932" fill="#FBDF21"/>
        <path d="M291.979 361.922L293.252 360.652L294.177 361.576L295.105 360.648L294.161 359.703L295.468 358.403L296.409 359.344L297.34 358.412L296.396 357.468L297.701 356.165L299.83 358.299C300.162 358.632 300.117 359.113 299.811 359.418L295.238 363.993C294.931 364.3 294.396 364.333 294.087 364.027L291.979 361.922Z" stroke="#171B1C" stroke-width="0.755171" stroke-miterlimit="2.613"/>
        <path fill-rule="evenodd" clip-rule="evenodd" d="M299.566 359.684L303.391 363.228L299.02 367.603L295.456 363.793L299.566 359.684Z" fill="#FBDF21"/>
        <path d="M299.564 359.7L303.388 363.245L299.017 367.619L295.454 363.808L299.564 359.7Z" stroke="#171B1C" stroke-width="0.756018" stroke-miterlimit="2.613"/>
        <path fill-rule="evenodd" clip-rule="evenodd" d="M312.416 374.117C306.708 368.123 309.472 362.588 309.483 362.537C309.494 362.488 315.46 359.547 321.262 365.379L312.416 374.117Z" fill="#FBDF21"/>
        <path fill-rule="evenodd" clip-rule="evenodd" d="M301.682 370.55L307.682 377.996L312.079 373.619C306.558 368.016 309.803 362.921 309.925 362.84C310.012 362.739 315.38 359.841 320.729 364.971L325.127 360.572L317.558 354.593L301.682 370.55Z" fill="#FBDF21"/>
        <path d="M301.647 370.543L307.647 377.99L312.044 373.612C306.523 368.009 309.768 362.913 309.889 362.833C309.976 362.732 315.343 359.836 320.692 364.964L325.09 360.565L317.522 354.586L301.647 370.543Z" stroke="#171B1C" stroke-width="0.754605" stroke-miterlimit="2.613"/>
        <path fill-rule="evenodd" clip-rule="evenodd" d="M307.42 378.32L325.377 360.365C325.756 359.987 326.439 360.051 326.895 360.507C327.351 360.963 327.415 361.647 327.037 362.024L309.08 379.979C308.702 380.359 308.019 380.295 307.562 379.839C307.106 379.383 307.043 378.699 307.42 378.32Z" fill="#FBDF21"/>
        <path d="M307.42 378.317L325.376 360.361C325.754 359.983 326.437 360.047 326.893 360.504C327.35 360.96 327.414 361.643 327.035 362.021L309.079 379.976C308.701 380.355 308.017 380.291 307.56 379.835C307.105 379.378 307.041 378.695 307.42 378.317V378.317Z" stroke="#171B1C" stroke-width="0.754695" stroke-miterlimit="2.613"/>
        <path fill-rule="evenodd" clip-rule="evenodd" d="M313.918 371.757C310.426 368.227 311.812 364.857 311.827 364.846C311.827 364.845 315.333 363.389 318.831 366.847L313.918 371.757Z" fill="#FBDF21"/>
        <path d="M313.918 371.765C310.426 368.235 311.811 364.866 311.825 364.855C311.826 364.854 315.332 363.397 318.83 366.856L313.918 371.765Z" stroke="#171B1C" stroke-width="0.752874" stroke-miterlimit="2.613"/>
        <path fill-rule="evenodd" clip-rule="evenodd" d="M298.257 368.401L315.47 351.187C315.833 350.825 316.467 350.864 316.876 351.275C317.287 351.685 317.327 352.317 316.963 352.681L299.749 369.893C299.387 370.257 298.753 370.217 298.344 369.808C297.933 369.396 297.893 368.763 298.257 368.401Z" fill="#FBDF21"/>
        <path d="M298.262 368.399L315.476 351.186C315.84 350.824 316.472 350.863 316.883 351.274C317.292 351.683 317.332 352.316 316.97 352.68L299.755 369.893C299.392 370.255 298.759 370.217 298.349 369.806C297.938 369.396 297.899 368.763 298.262 368.399Z" stroke="#171B1C" stroke-width="0.754409" stroke-miterlimit="2.613"/>
        <path fill-rule="evenodd" clip-rule="evenodd" d="M300.114 369.532L316.58 353.067C316.928 352.721 317.546 352.771 317.959 353.182C318.368 353.593 318.419 354.212 318.074 354.56L301.607 371.024C301.26 371.372 300.64 371.321 300.229 370.91C299.819 370.499 299.767 369.879 300.114 369.532Z" fill="#FBDF21"/>
        <path d="M300.12 369.531L316.585 353.066C316.933 352.719 317.553 352.771 317.964 353.182C318.375 353.593 318.426 354.213 318.079 354.559L301.612 371.024C301.266 371.372 300.646 371.319 300.235 370.908C299.824 370.498 299.773 369.878 300.12 369.531V369.531Z" stroke="#171B1C" stroke-width="0.754409" stroke-miterlimit="2.613"/>
        <path fill-rule="evenodd" clip-rule="evenodd" d="M301.694 355.344C301.001 354.708 301.952 353.745 302.611 354.429L304.241 356.056L303.324 356.975L301.694 355.344ZM309.676 352.075C309.032 351.436 309.906 350.532 310.551 351.199L311.809 352.458L310.934 353.332L309.676 352.075ZM298.412 363.36C297.768 362.724 298.642 361.82 299.288 362.486L300.545 363.745L299.669 364.619L298.412 363.36Z" fill="#171B1C"/>
    </g>
</g>
</svg>
