<svg xmlns="http://www.w3.org/2000/svg" fill="none" viewBox="0 0 1200 600" title="Flag of Ethiopia"><g class="srp-field"><path fill="red" d="M1200 0H0v600h1200V0z"/><path fill="#ff0" d="M1200 0H0v400h1200V0z"/><path fill="#0f0" d="M1200 0H0v200h1200V0z"/></g><g class="srp-emblem"><path fill="#00f" d="M599.999 499.903c110.457 0 200-89.543 200-200s-89.543-200-200-200-200.001 89.543-200.001 200 89.544 200 200.001 200z" class="srp-circle"/><g class="srp-star" fill="#ff0"><path d="M599.999 140.039l-7.01 21.573 28.913 88.984h-38.548l-4.333 13.333h123.605l18.352-13.333h-85.057l-35.922-110.557z"/><path d="M752.171 250.518h-22.684l-75.694 54.995-11.912-36.661-14.02-.001 38.196 117.555 18.352 13.334-26.284-80.894 94.046-68.328z"/><path d="M694.045 429.225l-7.009-21.573-75.695-54.995 31.186-22.658-4.331-13.334-99.999 72.654-7.009 21.573L600 360.897l94.045 68.328z"/><path d="M505.954 429.466l18.352-13.333 28.912-88.984 31.186 22.658 11.343-8.239-99.999-72.654h-22.684l68.813 49.995-35.923 110.557z"/><path d="M447.831 250.459l18.351 13.333 93.563-.001-11.912 36.662 11.342 8.241 38.196-117.555-7.01-21.574-26.284 80.894H447.831z"/></g><g class="srp-rays" stroke="#ff0" stroke-width="6.7"><path d="M643.103 240.82l50.941-70.115M669.745 322.559l82.425 26.781M600 373.242v86.667M530.255 322.559L447.83 349.34M556.897 240.527l-50.942-70.115"/></g></g></svg>