<svg viewBox="0 0 300 200" fill="none" xmlns="http://www.w3.org/2000/svg" title="Europe flag"><path d="M0 0h300v200H0z" fill="#074EA2"/><path d="M143.609 43.577l6.33-4.62 6.331 4.62-2.41-7.47 6.429-4.62h-7.925l-2.425-7.562-2.426 7.57-7.921-.008 6.425 4.62-2.408 7.47zM110.846 52.377l6.33-4.62 6.327 4.62-2.405-7.471 6.426-4.62h-7.925l-2.426-7.57-2.425 7.578-7.922-.008 6.425 4.62-2.405 7.47zM93.206 56.742l-2.425 7.578-7.921-.009 6.425 4.62-2.409 7.471 6.33-4.62 6.331 4.62-2.41-7.471 6.427-4.62h-7.922l-2.426-7.57zM84.419 104.499l6.326 4.62-2.405-7.471 6.425-4.62h-7.92l-2.426-7.57-2.426 7.587-7.925-.016 6.43 4.619-2.41 7.471 6.33-4.62zM95.632 129.849l-2.426-7.57-2.425 7.579-7.921-.009 6.425 4.62-2.409 7.471 6.33-4.628 6.331 4.628-2.41-7.471 6.427-4.62h-7.922zM119.653 153.862l-2.426-7.562-2.421 7.57-7.926-.008 6.426 4.619-2.405 7.471 6.33-4.619 6.327 4.619-2.405-7.471 6.426-4.619h-7.926zM152.364 162.566l-2.425-7.57-2.422 7.579-7.925-.009 6.425 4.62-2.404 7.47 6.33-4.619 6.326 4.619-2.409-7.47 6.429-4.62h-7.925zM185.082 153.862l-2.421-7.562-2.43 7.57-7.918-.008 6.422 4.619-2.405 7.471 6.331-4.619 6.33 4.619-2.413-7.471 6.429-4.619h-7.925zM209.11 129.849l-2.43-7.57-2.43 7.579-7.916-.009 6.429 4.62-2.414 7.471 6.331-4.628 6.33 4.628-2.413-7.471 6.43-4.62h-7.917zM225.727 96.942h-7.926l-2.429-7.571-2.421 7.578-7.926-.007 6.429 4.619-2.404 7.47 6.322-4.628 6.33 4.628-2.404-7.47 6.429-4.62zM200.349 76.302l6.331-4.62 6.33 4.62-2.413-7.471 6.43-4.611h-7.917l-2.43-7.57-2.43 7.578-7.916-.008 6.429 4.61-2.414 7.472zM182.752 32.725l-2.421 7.579-7.926-.017 6.422 4.628-2.406 7.47 6.339-4.628 6.322 4.628-2.404-7.47 6.429-4.628h-7.934l-2.421-7.562z" fill="#FFF200"/></svg>