<svg xmlns="http://www.w3.org/2000/svg" viewBox="0 0 27 18" title="Flag of Greece"><g class="srp-stripes"><path d="M0 0h27v2H0z" fill="#00f"/><path d="M0 2h27v2H0z" fill="#fff"/><path d="M0 4h27v2H0z" fill="#00f"/><path d="M0 6h27v2H0z" fill="#fff"/><path d="M0 8h27v2H0z" fill="#00f"/><path d="M0 10h27v2H0z" fill="#fff"/><path d="M0 12h27v2H0z" fill="#00f"/><path d="M0 14h27v2H0z" fill="#fff"/><path d="M0 16h27v2H0z" fill="#00f"/></g><g class="srp-canton"><path d="M0 0h10v10H0z" fill="#00f"/><path d="M4 0h2v10H4V0z" fill="#fff"/><path d="M0 4v2h10V4H0z" fill="#fff"/></g></svg>