<svg viewBox="0 0 900 600" fill="none" xmlns="http://www.w3.org/2000/svg"><g class="srp-field"><path class="srp-red" fill-rule="evenodd" clip-rule="evenodd" d="M359.998 0H900v600H359.998V0z" fill="#ED192D"/><path class="srp-dark_green" fill-rule="evenodd" clip-rule="evenodd" d="M0 0h360.003v600H0V0z" fill="#00613C"/></g><g class="srp-emblem"><g class="srp-sphere"><path fill-rule="evenodd" clip-rule="evenodd" d="M477.234 393.355C432.02 392.002 224.712 262.595 223.29 242l11.448-19.091c20.565 29.879 232.501 155.72 253.314 151.256l-10.819 19.19" fill="#FBDF21"/><path fill-rule="evenodd" clip-rule="evenodd" d="M232.335 220.318c-4.055 10.915 54.099 46.866 124.065 89.417 69.965 42.554 130.294 68.848 134.766 65.075.272-.488 2.199-3.802 2.022-3.775-.839 1.263-2.879 1.663-6.062.745-18.902-5.452-68.203-28.082-129.258-65.108-61.055-37.025-114.174-71.145-122.432-85.643-.572-1.005-.983-2.839-.899-4.263l-.202-.001-1.759 3.071-.241.482zm245.972 173.64c-.768 1.392-2.197 1.439-4.913 1.139-16.91-1.871-68.224-26.823-128.94-63.17-70.653-42.294-129.005-80.823-122.666-90.9l1.722-3.044.341.106c-5.692 17.066 115.153 86.161 122.267 90.568 69.921 43.318 128.869 68.613 134.086 62.038l-1.897 3.263z" fill="#FBDF21"/><path d="M232.305 220.33c-4.054 10.915 54.1 46.864 124.068 89.414 69.967 42.55 130.296 68.843 134.768 65.071.273-.489 2.198-3.802 2.022-3.775-.839 1.263-2.879 1.662-6.062.743-18.901-5.45-68.203-28.08-129.261-65.102-61.054-37.025-114.175-71.143-122.434-85.64-.573-1.006-.984-2.839-.899-4.263l-.007-.278-1.953 3.348-.242.482zm245.978 173.632c-.768 1.392-2.196 1.439-4.912 1.139-16.91-1.871-68.224-26.823-128.943-63.166-70.654-42.292-129.007-80.82-122.669-90.897l1.741-2.938h.322c-5.691 17.066 115.157 86.157 122.27 90.564 69.924 43.316 128.872 68.61 134.088 62.036l-1.897 3.262z" stroke="#171B1C" stroke-width=".865" stroke-miterlimit="2.613" stroke-linecap="round" stroke-linejoin="round"/><path fill-rule="evenodd" clip-rule="evenodd" d="M360.397 254.477c45.25-.359 101.088-6.185 133.222-18.992l-6.922-11.248c-18.994 10.511-75.14 17.427-126.682 18.461-60.962-.563-103.992-6.24-125.553-20.706l-6.535 11.979c39.633 16.77 80.244 20.332 132.471 20.506" fill="#FBDF21"/><path d="M495.494 235.743c-1.107 1.769-22.064 8.996-52.938 14.329-20.931 3.19-48.237 5.918-82.314 5.951-32.376.033-58.821-2.274-78.843-4.987-32.409-5.082-49.136-12.153-55.32-14.648.591-1.176.971-2.001 1.541-3.101 17.803 7.088 34.607 11.363 54.292 14.389 19.89 2.697 46.018 5.033 78.233 5.001 33.916-.033 60.92-2.967 81.732-6.064 31.659-5.106 48.951-11.678 51.381-14.728l2.236 3.858zm-6.079-11.407c-3.431 2.755-20.527 8.817-50.61 13.622-20.076 2.879-45.603 5.453-78.216 5.485-30.983.03-56.298-2.056-75.552-4.862-30.55-3.989-46.807-11.188-52.671-13.285a172.502 172.502 0 011.787-3.015c4.561 2.299 20.254 8.669 51.22 13.056 19.036 2.697 44.388 4.708 75.216 4.677 32.46-.033 57.695-2.658 77.645-5.518 30.238-4.159 46.508-11.894 48.978-13.83l2.203 3.67z" fill="#FBDF21"/><path d="M495.494 235.761c-1.106 1.768-22.065 8.996-52.938 14.329-20.932 3.189-48.238 5.917-82.315 5.951-32.374.032-58.82-2.274-78.843-4.988-32.409-5.08-49.135-12.151-55.32-14.646.591-1.176.972-2.002 1.542-3.1 17.801 7.088 34.606 11.36 54.291 14.388 19.891 2.695 46.019 5.032 78.233 5 33.917-.033 60.921-2.969 81.732-6.064 31.659-5.107 48.953-11.678 51.382-14.729l2.236 3.859zm-6.079-11.406c-3.431 2.755-20.529 8.817-50.611 13.621-20.075 2.878-45.602 5.453-78.215 5.486-30.983.03-56.299-2.057-75.552-4.863-30.551-3.989-46.808-11.186-52.672-13.284a178.914 178.914 0 011.787-3.014c4.562 2.297 20.253 8.667 51.22 13.055 19.036 2.696 44.388 4.707 75.217 4.675 32.46-.031 57.695-2.657 77.645-5.516 30.237-4.16 46.508-11.894 48.978-13.83l2.203 3.67z" stroke="#171B1C" stroke-width=".866" stroke-miterlimit="2.613" stroke-linecap="round" stroke-linejoin="round"/><path fill-rule="evenodd" clip-rule="evenodd" d="M211.814 308.986c27.833 14.969 89.65 22.515 148.147 23.033 53.262.084 122.651-8.232 148.597-21.984l-.714-14.979c-8.117 12.682-82.476 24.853-148.461 24.356-65.985-.497-127.259-10.692-147.687-23.883l.118 13.457z" fill="#FBDF21"/><path d="M509.98 306.835l.002 3.573c-3.899 4.662-28.352 11.71-59.016 16.671-23.339 3.577-53.766 6.276-91.68 6.276-36.02 0-64.742-2.565-87.019-5.988-35.21-5.126-57.734-14.104-62.254-16.786l.019-4.167c13.581 9.027 50.375 15.634 62.73 17.654 22.13 3.4 50.684 5.949 86.524 5.949 37.737 0 67.992-2.683 91.184-6.238 22.001-3.178 53.342-11.441 59.511-16.944h-.001zm.015-12.71l.002 3.574c-3.9 4.663-28.353 11.709-59.017 16.672-23.339 3.578-53.766 6.276-91.679 6.276-36.02 0-64.743-2.566-87.02-5.988-35.21-5.126-57.733-14.105-62.253-16.784l.02-4.168c13.581 9.027 50.374 15.634 62.73 17.653 22.129 3.399 50.681 5.948 86.523 5.948 37.737 0 67.992-2.682 91.184-6.236 22-3.179 53.341-11.442 59.51-16.947z" fill="#FBDF21"/><path d="M509.983 306.828l.001 3.574c-3.9 4.662-28.353 11.71-59.018 16.671-23.338 3.578-53.764 6.277-91.679 6.277-36.019 0-64.743-2.566-87.019-5.988-35.211-5.126-57.733-14.105-62.255-16.786l.02-4.167c13.582 9.027 50.376 15.634 62.73 17.653 22.131 3.399 50.683 5.949 86.524 5.949 37.736 0 67.993-2.682 91.185-6.238 22-3.178 53.341-11.441 59.511-16.945zm.014-12.709l.002 3.574c-3.9 4.662-28.354 11.71-59.018 16.672-23.338 3.579-53.766 6.276-91.678 6.276-36.02 0-64.744-2.565-87.02-5.988-35.211-5.125-57.734-14.104-62.255-16.786l.02-4.166c13.582 9.027 50.374 15.633 62.73 17.653 22.129 3.4 50.683 5.948 86.525 5.948 37.735 0 67.991-2.682 91.183-6.236 22-3.178 53.341-11.443 59.511-16.947v0z" stroke="#171B1C" stroke-width=".866" stroke-miterlimit="2.613" stroke-linecap="round" stroke-linejoin="round"/><path fill-rule="evenodd" clip-rule="evenodd" d="M359.829 390.788c-64.008-.382-118.854-17.448-130.435-20.271l8.445 13.225c20.458 8.601 73.962 21.426 122.605 20.007 48.642-1.419 91.151-5.187 121.109-19.767l8.659-13.701c-20.416 9.612-89.892 20.41-130.383 20.507z" fill="#FBDF21"/><path d="M484.809 380.908a209.575 209.575 0 01-3.887 5.731c-14.129 4.982-36.394 10.211-45.788 11.737-19.191 3.956-48.885 6.878-75.235 6.89-56.703-.832-103.117-11.932-124.952-21.399l-1.762-3.029.289-.457 2.987 1.162c38.832 13.888 82.444 19.431 123.757 20.426 26.245.093 52.52-3.009 73.765-6.806 32.581-6.528 45.757-11.449 49.799-13.678l1.027-.577zm7.507-12.383c.033.037.066.076.098.115a396.94 396.94 0 01-2.937 4.883c-7.538 2.695-27.988 8.677-57.854 12.853-19.678 2.68-31.909 5.276-71.053 6.038-73.352-1.866-120.843-16.21-132.126-19.747l-1.673-3.206c42.509 11.098 85.933 18.843 133.799 19.634 35.812-.762 51.048-3.398 70.562-6.058 34.826-5.416 52.372-11.15 57.64-12.804a3.918 3.918 0 00-.232-.299l3.776-1.409z" fill="#FBDF21"/><path d="M484.803 380.901a207.905 207.905 0 01-3.886 5.73c-14.13 4.982-36.394 10.212-45.79 11.739-19.189 3.956-48.883 6.877-75.232 6.889-56.703-.831-103.116-11.932-124.952-21.399l-1.762-3.03.29-.456 2.987 1.161c38.831 13.889 82.444 19.432 123.756 20.428 26.245.093 52.52-3.01 73.764-6.808 32.581-6.527 45.755-11.448 49.797-13.677l1.028-.577zm7.507-12.384c.033.037.067.076.098.116a439.32 439.32 0 01-2.937 4.882c-7.537 2.695-27.989 8.678-57.853 12.853-19.678 2.682-31.909 5.277-71.052 6.038-73.352-1.865-120.842-16.21-132.125-19.746l-1.673-3.206c42.509 11.098 85.931 18.843 133.798 19.633 35.812-.762 51.048-3.398 70.56-6.057 34.825-5.418 52.372-11.152 57.64-12.804a3.976 3.976 0 00-.232-.299l3.776-1.41z" stroke="#171B1C" stroke-width=".848" stroke-miterlimit="2.613" stroke-linecap="round" stroke-linejoin="round"/><path fill-rule="evenodd" clip-rule="evenodd" d="M359.909 167.418c73.503 0 132.851 59.76 132.851 133.276 0 73.515-59.348 132.875-132.851 132.875s-133.053-59.56-133.053-133.076c0-73.515 59.55-133.074 133.053-133.074v-.001zm0-13.171c80.536 0 146.221 65.697 146.221 146.246s-65.685 146.246-146.221 146.246c-80.535 0-146.22-65.696-146.22-146.246 0-80.549 65.685-146.246 146.22-146.246z" fill="#FBDF21"/><path fill-rule="evenodd" clip-rule="evenodd" d="M360.008 152.491c81.61 0 148.172 66.566 148.172 148.178 0 81.615-66.562 148.178-148.172 148.178-81.608 0-148.168-66.563-148.168-148.178 0-81.612 66.56-148.178 148.168-148.178zm0 3.26c79.46 0 144.911 65.219 144.911 144.919 0 79.699-65.451 144.917-144.911 144.917-79.458 0-144.909-65.218-144.909-144.917 0-79.7 65.451-144.919 144.909-144.919z" fill="#FBDF21"/><path d="M360.01 152.482c81.61 0 148.171 66.566 148.171 148.181 0 81.616-66.561 148.181-148.171 148.181-81.609 0-148.17-66.565-148.17-148.181 0-81.615 66.561-148.181 148.17-148.181v0zm0 3.26c79.46 0 144.911 65.22 144.911 144.921 0 79.703-65.451 144.921-144.911 144.921-79.459 0-144.91-65.218-144.91-144.921 0-79.701 65.451-144.921 144.91-144.921z" stroke="#171B1C" stroke-width=".866" stroke-miterlimit="2.613" stroke-linecap="round" stroke-linejoin="round"/><path fill-rule="evenodd" clip-rule="evenodd" d="M360.14 164.808c74.421 0 135.722 61.084 135.722 135.732 0 74.646-61.301 135.731-135.723 135.731-74.422 0-135.723-61.085-135.723-135.731 0-74.648 61.3-135.732 135.723-135.732h.001zm0 3.26c72.634 0 132.462 59.617 132.462 132.472 0 72.853-59.829 132.471-132.463 132.471-72.634 0-132.465-59.617-132.465-132.471 0-72.855 59.831-132.472 132.465-132.472" fill="#FBDF21"/><path d="M360.141 164.798c74.421 0 135.723 61.087 135.723 135.736 0 74.649-61.302 135.733-135.723 135.733-74.423 0-135.724-61.084-135.724-135.733s61.301-135.736 135.724-135.736zm0 3.261c72.634 0 132.463 59.619 132.463 132.475 0 72.855-59.829 132.473-132.463 132.473-72.635 0-132.466-59.618-132.466-132.473 0-72.856 59.831-132.475 132.466-132.475z" stroke="#171B1C" stroke-width=".866" stroke-miterlimit="2.613" stroke-linecap="round" stroke-linejoin="round"/><path fill-rule="evenodd" clip-rule="evenodd" d="M354.012 151.795h12.889v298.15h-12.888v-298.15" fill="#FBDF21"/><path d="M355.689 151.891h9.009M355.706 449.631h9.051" stroke="#171B1C" stroke-width=".866" stroke-miterlimit="2.613" stroke-linecap="round" stroke-linejoin="round"/><path fill-rule="evenodd" clip-rule="evenodd" d="M364.828 150.2h3.232l.028 301.158h-3.235l-.025-301.158zm-12.602.002h3.256l.004 301.153h-3.26V150.202z" fill="#FBDF21"/><path d="M364.83 150.191h3.232l.027 301.163h-3.236l-.023-301.163zm-12.603.002h3.257l.003 301.159h-3.26V150.193z" stroke="#171B1C" stroke-width=".866" stroke-miterlimit="2.613" stroke-linecap="round" stroke-linejoin="round"/><path fill-rule="evenodd" clip-rule="evenodd" d="M211.309 294.36c18.58-17.105 87.135-28.195 147.962-27.909 60.825.287 132.862 12.785 148.533 27.547l.156 12.755c-13.123-12.344-69.087-27.066-148.568-27.231-79.481-.165-137.189 14.962-148.085 27.559l.001-12.721" fill="#FBDF21"/><path d="M211.274 294.961v11.008M508.292 295.409v11.008" stroke="#171B1C" stroke-width=".867" stroke-miterlimit="2.613" stroke-linecap="round" stroke-linejoin="round"/><path d="M360.08 277.728c34.992-.066 68.942 3.317 95.873 8.558 27.79 5.555 47.344 12.504 54.03 20.311l-.006 3.863c-8.064-9.713-34.378-16.832-54.649-20.902-26.726-5.2-60.449-8.556-95.249-8.493-36.721.07-70.915 3.548-97.25 8.686-21.131 4.193-49.312 12.524-52.829 20.737v-4.024c1.932-5.685 22.915-14.185 52.355-20.077 26.531-5.175 60.788-8.59 97.724-8.659h.001zm.014-12.708c34.994-.065 68.942 3.316 95.874 8.557 27.789 5.556 47.344 12.507 54.03 20.311l-.007 3.864c-8.063-9.712-34.379-16.831-54.648-20.901-26.726-5.201-60.45-8.556-95.249-8.492-36.722.067-70.75 3.548-97.086 8.684-20.391 3.864-49.722 12.523-52.993 20.738v-4.026c1.932-5.624 23.34-14.428 52.355-20.076 26.53-5.174 60.788-8.59 97.724-8.659z" fill="#FBDF21"/><path d="M360.081 277.721c34.993-.066 68.942 3.316 95.874 8.557 27.79 5.556 47.343 12.507 54.03 20.312l-.006 3.864c-8.064-9.712-34.379-16.832-54.649-20.903-26.726-5.2-60.451-8.556-95.249-8.492-36.722.069-70.915 3.548-97.25 8.686-21.132 4.192-49.313 12.523-52.831 20.738v-4.026c1.933-5.685 22.916-14.184 52.357-20.077 26.531-5.176 60.787-8.59 97.724-8.659zm.015-12.708c34.993-.065 68.943 3.316 95.874 8.558 27.79 5.556 47.344 12.505 54.03 20.311l-.007 3.863c-8.065-9.712-34.379-16.831-54.65-20.901-26.725-5.2-60.45-8.557-95.247-8.492-36.723.068-70.75 3.548-97.086 8.684-20.393 3.865-49.724 12.523-52.995 20.739v-4.025c1.933-5.626 23.341-14.429 52.356-20.078 26.531-5.175 60.788-8.591 97.725-8.659v0z" stroke="#171B1C" stroke-width=".866" stroke-miterlimit="2.613" stroke-linecap="round" stroke-linejoin="round"/><path fill-rule="evenodd" clip-rule="evenodd" d="M359.368 200.203c55.142-.276 103.242 7.709 125.248 18.981l8.028 13.886c-19.128-10.308-71.019-21.025-133.199-19.424-50.661.313-104.794 5.579-131.955 20.069l9.582-16.025c22.291-11.559 74.857-17.423 122.295-17.487" fill="#FBDF21"/><path d="M486.017 221.421l5.462 8.769" stroke="#171B1C" stroke-width=".867" stroke-miterlimit="2.613" stroke-linecap="round" stroke-linejoin="round"/><path d="M360.097 211.668c31.451-.083 61.843 1.692 86.015 6.054 22.508 4.189 43.975 10.474 47.043 13.858l2.38 4.205c-7.464-4.876-26.041-10.301-49.892-14.826-23.955-4.499-54.325-5.992-85.601-5.911-35.502-.12-63.082 1.753-86.752 5.879-25.033 4.684-42.402 11.375-46.688 14.554l2.333-4.445c8.325-4.246 21.534-9.365 43.732-13.36 24.478-4.474 52.352-5.816 87.43-6.009v.001zm-.014-12.692c30.101-.082 59.82 1.596 82.986 5.761 18.269 3.556 36.339 9.11 42.955 14.05l3.48 5.531c-5.915-6.576-28.189-12.808-47.849-16.298-22.987-3.965-51.474-5.535-81.572-5.785-31.587.085-60.78 2.022-83.433 6.147-21.613 4.111-35.557 8.981-41.458 12.781l3.059-4.62c8.143-4.286 21.3-8.223 37.867-11.439 22.82-4.156 52.194-6.042 83.965-6.128z" fill="#FBDF21"/><path d="M360.097 211.687c31.451-.082 61.844 1.692 86.015 6.054 22.508 4.188 43.975 10.473 47.044 13.857l2.379 4.204c-7.465-4.875-26.04-10.299-49.892-14.824-23.954-4.499-54.325-5.992-85.602-5.91-35.5-.12-63.082 1.752-86.752 5.879-25.033 4.684-42.402 11.374-46.687 14.553l2.333-4.443c8.325-4.247 21.534-9.366 43.732-13.362 24.477-4.473 52.352-5.814 87.43-6.008zm-.014-12.692c30.1-.081 59.819 1.598 82.985 5.761 18.27 3.557 36.34 9.11 42.955 14.05l3.481 5.53c-5.916-6.576-28.189-12.807-47.848-16.297-22.99-3.965-51.474-5.534-81.573-5.784-31.587.086-60.781 2.022-83.433 6.147-21.613 4.111-35.558 8.981-41.459 12.78l3.06-4.619c8.143-4.286 21.299-8.223 37.866-11.439 22.821-4.156 52.193-6.041 83.966-6.129z" stroke="#171B1C" stroke-width=".866" stroke-miterlimit="2.613" stroke-linecap="round" stroke-linejoin="round"/><path fill-rule="evenodd" clip-rule="evenodd" d="M433.699 362.267c-27.262-5.089-54.576-5.826-73.652-5.603-91.895 1.077-121.581 18.869-125.204 24.255L228 369.5c23.396-16.961 73.413-26.244 132.545-25.273 30.706.503 57.203 2.542 79.494 6.859l-6.34 11.181z" fill="#FBDF21"/><path d="M229.501 371.272l4.506 7.76" stroke="#171B1C" stroke-width=".866" stroke-miterlimit="2.613" stroke-linecap="round" stroke-linejoin="round"/><path d="M359.521 355.084c25.563.381 50.658 1.44 74.875 5.955l-1.754 3.095c-22.494-4.153-46.475-5.74-73.035-5.612-33.914-.266-68.218 2.904-98.082 11.473-9.421 2.621-25.023 8.679-26.613 13.686l-1.746-2.877c.503-2.96 9.933-9.099 27.557-14.049 34.208-9.795 66.204-11.448 98.798-11.671zm1.16-12.863c26.486.494 53.837 1.721 80.422 6.986l-1.826 3.223c-24.006-4.766-46.943-6.352-78.44-6.837-34.021.06-70.111 2.487-102.925 12.025-10.595 3.087-28.879 9.759-29.489 15.037l-1.745-3.089c.398-4.797 16.227-11.056 30.466-15.199 33.068-9.613 69.252-12.083 103.537-12.145" fill="#FBDF21"/><path d="M359.518 355.075c25.562.382 50.655 1.44 74.873 5.956l-1.755 3.095c-22.493-4.154-46.473-5.74-73.033-5.613-33.915-.265-68.217 2.904-98.08 11.474-9.423 2.621-25.023 8.68-26.615 13.686l-1.745-2.877c.503-2.959 9.932-9.098 27.557-14.049 34.207-9.796 66.203-11.448 98.798-11.672zm1.159-12.863c26.485.495 53.835 1.72 80.421 6.987l-1.826 3.221c-24.006-4.764-46.943-6.351-78.438-6.836-34.022.06-70.112 2.487-102.926 12.026-10.595 3.085-28.878 9.758-29.488 15.037l-1.745-3.089c.397-4.798 16.226-11.057 30.466-15.2 33.067-9.612 69.251-12.084 103.536-12.146z" stroke="#171B1C" stroke-width=".848" stroke-miterlimit="2.613" stroke-linecap="round" stroke-linejoin="round"/><path d="M440.935 349.524l-8.1 14.355" stroke="#171B1C" stroke-width=".85" stroke-miterlimit="2.613" stroke-linecap="round" stroke-linejoin="round"/><path fill-rule="evenodd" clip-rule="evenodd" d="M235.786 217.493c45.521-.592 255.765 128.468 256.383 152.233l-13.025 19.963c-5.872-27.59-219.208-153.182-254.4-150.814l11.042-21.382z" fill="#FBDF21"/><path d="M491.242 371.423l-11.041 17.135M235.474 218.618l-10.273 19.035" stroke="#171B1C" stroke-width=".865" stroke-miterlimit="2.613" stroke-linecap="round" stroke-linejoin="round"/><path fill-rule="evenodd" clip-rule="evenodd" d="M223.442 238.112c8.449-5.73 70.542 21.929 135.515 61.106 64.799 39.288 126.719 83.681 121.131 91.991l-1.84 2.891-.843.667c.181-.13 1.113-1.269-.091-4.349-2.762-9.083-46.684-44.133-119.562-88.133-71.047-42.363-130.259-67.893-136.178-60.599l1.868-3.574zm270.033 133.073c5.341-10.552-52.254-53.939-123.66-96.181-73.049-41.399-125.696-65.77-135.314-58.504l-2.138 3.89c-.018.216.078-.264.53-.614 1.75-1.526 4.648-1.423 5.956-1.447 16.56.247 63.851 22.013 130.204 60.05 29.074 16.934 122.819 77.052 122.463 93.96.025 1.455.12 1.752-.428 2.47l2.386-3.625" fill="#FBDF21"/><path d="M223.463 238.112c8.451-5.732 70.544 21.929 135.518 61.107 64.801 39.289 126.722 83.685 121.132 91.994l-1.839 2.892-.844.666c.181-.13 1.113-1.267-.09-4.349-2.763-9.082-46.684-44.134-119.565-88.135-71.046-42.367-130.259-67.898-136.18-60.602l1.868-3.573zm270.038 133.076c5.343-10.552-52.253-53.939-123.66-96.183-73.05-41.4-125.698-65.772-135.316-58.507l-2.139 3.89s.079-.264.529-.613c1.75-1.527 4.649-1.424 5.957-1.448 16.561.248 63.853 22.014 130.207 60.053 29.074 16.935 122.821 77.054 122.465 93.962.025 1.455.118 1.752-.429 2.471l2.386-3.625z" stroke="#171B1C" stroke-width=".865" stroke-miterlimit="2.613" stroke-linecap="round" stroke-linejoin="round"/></g><g class="srp-shield"><path d="M271.02 317.221c0 24.381 9.984 46.434 26.16 62.552 16.208 16.152 38.232 26.342 62.654 26.342 24.549 0 46.825-9.969 62.965-26.057 16.136-16.087 26.139-38.29 26.142-62.758h-.003V198.637L271 198.425l.02 118.796z" fill="#fff"/><path d="M274.35 317.391v.066c0 23.311 9.655 44.542 25.141 59.955 15.515 15.441 36.885 25.042 60.263 25.042 23.499 0 44.824-9.534 60.272-24.915 15.448-15.381 25.023-36.612 25.026-60.007h-.003V202.411l-170.594-.03-.105 115.01zm136.401-80.541l.007 73.261-.063 7.751h.002c0 2.039-.123 4.365-.36 6.343-1.387 11.583-6.715 21.677-14.603 29.532-9.237 9.197-21.986 14.897-36.035 14.897-13.978 0-26.434-5.901-35.71-15.133-9.515-9.47-15.03-22.456-15.03-35.884l-.02-80.951 101.812.184z" fill="#ED192D"/><path d="M274.366 317.4v.066c0 23.312 9.656 44.542 25.142 59.953 15.516 15.442 36.887 25.042 60.266 25.042 23.5 0 44.826-9.533 60.277-24.914 15.448-15.381 25.023-36.611 25.026-60.005h-.003V202.424l-170.603-.028-.105 115.004zm136.409-80.538l.006 73.259-.062 7.75h.001c0 2.041-.123 4.365-.359 6.342-1.387 11.584-6.715 21.679-14.604 29.533-9.237 9.197-21.988 14.896-36.038 14.896-13.977 0-26.436-5.901-35.712-15.133-9.515-9.468-15.032-22.456-15.032-35.884l-.02-80.948 101.82.185z" stroke="#171B1C" stroke-width=".766" stroke-miterlimit="2.613"/><path d="M349.004 304.327v.01c0 3.313 1.272 6.333 3.314 8.524 2.046 2.197 4.864 3.562 7.946 3.562 3.098 0 5.909-1.356 7.947-3.543 2.036-2.187 3.299-5.207 3.299-8.533v-16.136l-22.467-.017-.039 16.133z" fill="#154281"/><path fill-rule="evenodd" clip-rule="evenodd" d="M366.615 292.115a2.232 2.232 0 00-2.226 2.226 2.233 2.233 0 002.226 2.223 2.231 2.231 0 002.227-2.223 2.227 2.227 0 00-2.227-2.226zm-6.244 5.985a2.23 2.23 0 00-2.227 2.225 2.233 2.233 0 002.227 2.225 2.236 2.236 0 001.573-.652c.417-.417.652-.983.654-1.573a2.233 2.233 0 00-2.227-2.224v-.001zm6.23 6.25c-.59 0-1.155.235-1.572.652a2.225 2.225 0 00-.654 1.572c.002.589.237 1.154.655 1.57a2.224 2.224 0 003.144.001c.418-.416.653-.981.655-1.571a2.232 2.232 0 00-2.228-2.224zm-12.158.015a2.227 2.227 0 00-2.226 2.225c.002.589.237 1.154.655 1.57.417.417.982.651 1.571.652a2.235 2.235 0 001.573-.651c.417-.417.652-.982.654-1.571a2.225 2.225 0 00-2.227-2.224v-.001zm-.025-12.261a2.231 2.231 0 00-2.228 2.225 2.23 2.23 0 002.228 2.224 2.228 2.228 0 002.226-2.224 2.233 2.233 0 00-2.226-2.225z" fill="#fff"/><path d="M348.895 342.961v.01c0 3.315 1.272 6.334 3.314 8.526 2.046 2.196 4.863 3.562 7.945 3.562 3.098 0 5.91-1.356 7.947-3.544 2.037-2.187 3.301-5.205 3.301-8.534v-16.134l-22.467-.016-.04 16.131" fill="#154281"/><path fill-rule="evenodd" clip-rule="evenodd" d="M366.506 330.75a2.23 2.23 0 00-2.226 2.226 2.228 2.228 0 002.226 2.223 2.226 2.226 0 002.226-2.223 2.228 2.228 0 00-2.226-2.225v-.001zm-6.243 5.987a2.229 2.229 0 00-2.228 2.223 2.23 2.23 0 002.228 2.224 2.235 2.235 0 001.572-.652c.417-.417.651-.982.653-1.572a2.226 2.226 0 00-2.225-2.222v-.001zm6.23 6.247a2.227 2.227 0 00-2.227 2.223 2.233 2.233 0 002.226 2.225 2.23 2.23 0 002.227-2.225 2.229 2.229 0 00-2.227-2.223h.001zm-12.158.017a2.23 2.23 0 00-2.227 2.223 2.23 2.23 0 002.227 2.224 2.23 2.23 0 002.227-2.224 2.23 2.23 0 00-2.227-2.224v.001zm-.026-12.26a2.227 2.227 0 00-2.226 2.223 2.23 2.23 0 002.226 2.225 2.227 2.227 0 002.227-2.225 2.23 2.23 0 00-2.227-2.223z" fill="#fff"/><path d="M317.837 304.404v.009c0 3.315 1.271 6.334 3.313 8.525 2.046 2.197 4.864 3.562 7.946 3.562 3.099 0 5.91-1.356 7.946-3.543 2.037-2.187 3.301-5.208 3.301-8.534v-16.135l-22.467-.017-.039 16.132" fill="#154281"/><path fill-rule="evenodd" clip-rule="evenodd" d="M335.449 292.193a2.23 2.23 0 00-2.227 2.223 2.23 2.23 0 002.226 2.224 2.231 2.231 0 002.226-2.224 2.224 2.224 0 00-2.226-2.222l.001-.001zm-6.244 5.985a2.23 2.23 0 00-2.228 2.225 2.23 2.23 0 002.227 2.223 2.23 2.23 0 002.227-2.223 2.232 2.232 0 00-2.227-2.225h.001zm6.229 6.248a2.231 2.231 0 00-2.227 2.224 2.23 2.23 0 002.227 2.223 2.227 2.227 0 002.226-2.223 2.228 2.228 0 00-2.226-2.224zm-12.157.016a2.231 2.231 0 00-2.227 2.224 2.233 2.233 0 002.226 2.224 2.23 2.23 0 002.228-2.224 2.23 2.23 0 00-2.228-2.224h.001zm-.025-12.259a2.228 2.228 0 00-2.229 2.224 2.229 2.229 0 002.229 2.223 2.227 2.227 0 002.225-2.223 2.23 2.23 0 00-2.225-2.224z" fill="#fff"/><path d="M380.092 304.387v.01c0 3.316 1.275 6.334 3.316 8.525 2.046 2.196 4.863 3.562 7.945 3.562 3.099 0 5.91-1.356 7.948-3.543 2.036-2.187 3.298-5.207 3.298-8.534v-16.134l-22.465-.018-.041 16.132" fill="#154281"/><path fill-rule="evenodd" clip-rule="evenodd" d="M397.706 292.178a2.226 2.226 0 00-2.228 2.222 2.232 2.232 0 002.228 2.224 2.227 2.227 0 002.227-2.224 2.232 2.232 0 00-2.227-2.222zm-6.245 5.985a2.226 2.226 0 00-2.227 2.223 2.225 2.225 0 004.454 0 2.23 2.23 0 00-2.227-2.223zm6.23 6.246a2.23 2.23 0 00-2.226 2.225 2.228 2.228 0 002.226 2.224 2.232 2.232 0 002.227-2.224 2.23 2.23 0 00-2.227-2.225zm-12.157.017a2.23 2.23 0 00-2.227 2.224 2.23 2.23 0 002.227 2.224 2.227 2.227 0 002.227-2.224 2.23 2.23 0 00-2.227-2.224zm-.025-12.259c-.59 0-1.156.235-1.573.652a2.226 2.226 0 00-.655 1.572 2.23 2.23 0 002.228 2.223 2.231 2.231 0 002.225-2.223 2.228 2.228 0 00-2.225-2.224z" fill="#fff"/><path d="M348.995 265.341v.01c0 3.316 1.272 6.334 3.314 8.525 2.046 2.197 4.864 3.562 7.946 3.562 3.099 0 5.91-1.356 7.946-3.544 2.037-2.186 3.299-5.206 3.301-8.533h-.002v-16.135l-22.465-.017-.04 16.132z" fill="#154281"/><path fill-rule="evenodd" clip-rule="evenodd" d="M366.606 253.131a2.232 2.232 0 00-2.225 2.224 2.228 2.228 0 002.225 2.224 2.225 2.225 0 001.573-3.796 2.23 2.23 0 00-1.573-.652zm-6.244 5.986a2.228 2.228 0 00-2.226 2.224 2.233 2.233 0 002.226 2.223 2.23 2.23 0 002.228-2.223 2.228 2.228 0 00-2.228-2.224zm6.23 6.247a2.228 2.228 0 00-2.226 2.224 2.23 2.23 0 002.227 2.223 2.232 2.232 0 002.226-2.223 2.228 2.228 0 00-2.227-2.224zm-12.157.016a2.23 2.23 0 00-2.226 2.224 2.233 2.233 0 002.226 2.225 2.23 2.23 0 002.228-2.225 2.23 2.23 0 00-2.228-2.224zm-.025-12.26a2.232 2.232 0 00-2.228 2.225 2.23 2.23 0 002.228 2.222 2.23 2.23 0 002.226-2.222 2.233 2.233 0 00-2.226-2.225z" fill="#fff"/><path fill-rule="evenodd" clip-rule="evenodd" d="M285.397 232.446c.204-8.274 6.074-10.232 6.116-10.259.041-.029 6.34 2.108 6.32 10.337l-12.436-.078z" fill="#FBDF21"/><path fill-rule="evenodd" clip-rule="evenodd" d="M280.329 222.334l-1.021 9.508 6.205.014c.057-7.866 5.956-9.174 6.097-9.145.135-.01 5.978 1.738 6.133 9.145h6.221l-1.123-9.579-22.512.058" fill="#FBDF21"/><path d="M280.349 222.322l-1.022 9.508 6.205.015c.058-7.866 5.957-9.175 6.098-9.146.134-.009 5.978 1.738 6.134 9.147h6.221l-1.124-9.58-22.512.056z" stroke="#171B1C" stroke-width=".755" stroke-miterlimit="2.613"/><path fill-rule="evenodd" clip-rule="evenodd" d="M278.894 231.887h25.394c.535 0 .972.528.972 1.173s-.437 1.174-.972 1.174h-25.394c-.535 0-.975-.528-.975-1.174 0-.644.44-1.173.975-1.173z" fill="#FBDF21"/><path d="M278.908 231.896h25.395c.535 0 .973.529.973 1.174 0 .645-.438 1.173-.973 1.173h-25.395c-.536 0-.974-.528-.974-1.173s.438-1.174.974-1.174z" stroke="#171B1C" stroke-width=".755" stroke-miterlimit="2.613"/><path fill-rule="evenodd" clip-rule="evenodd" d="M288.13 231.84c.026-4.965 3.39-6.368 3.407-6.365 0 0 3.51 1.448 3.539 6.367l-6.947-.002" fill="#FBDF21"/><path d="M288.136 231.841c.028-4.965 3.39-6.368 3.407-6.366.002 0 3.512 1.449 3.538 6.366h-6.945z" stroke="#171B1C" stroke-width=".753" stroke-miterlimit="2.613"/><path fill-rule="evenodd" clip-rule="evenodd" d="M279.427 218.394h24.346c.512 0 .932.475.932 1.055s-.42 1.055-.932 1.055h-24.345c-.513 0-.934-.475-.934-1.055s.421-1.055.934-1.055" fill="#FBDF21"/><path d="M279.432 218.391h24.347c.512 0 .931.476.931 1.056 0 .58-.419 1.056-.931 1.056h-24.347c-.512 0-.931-.476-.931-1.056 0-.58.419-1.056.931-1.056z" stroke="#171B1C" stroke-width=".754" stroke-miterlimit="2.613"/><path fill-rule="evenodd" clip-rule="evenodd" d="M279.942 220.507h23.287c.489 0 .892.474.892 1.056 0 .579-.403 1.055-.892 1.055h-23.288c-.489 0-.892-.476-.892-1.055 0-.582.403-1.056.892-1.056" fill="#FBDF21"/><path d="M279.947 220.505h23.287c.49 0 .892.474.892 1.055s-.402 1.056-.892 1.056h-23.287c-.491 0-.893-.475-.893-1.056 0-.581.402-1.055.893-1.055z" stroke="#171B1C" stroke-width=".754" stroke-miterlimit="2.613"/><path fill-rule="evenodd" clip-rule="evenodd" d="M287.467 204.646l1.838.003v1.307h1.341v-1.336l1.886.005v1.331h1.345v-1.335h1.883l-.003 3.014c0 .471-.381.779-.821.779h-6.61c-.444 0-.855-.354-.855-.789l-.004-2.979z" fill="#FBDF21"/><path d="M287.459 204.655l1.838.004v1.306h1.341v-1.337l1.885.007v1.33h1.346v-1.335l1.883.001-.003 3.014c0 .47-.381.778-.82.778l-6.61.001c-.445 0-.855-.355-.857-.789l-.003-2.98z" stroke="#171B1C" stroke-width=".755" stroke-miterlimit="2.613"/><path fill-rule="evenodd" clip-rule="evenodd" d="M294.392 208.68l.415 9.667-6.449-.023.426-9.667 5.608.023z" fill="#FBDF21"/><path d="M294.391 208.67l.415 9.667-6.448-.022.426-9.669 5.607.024z" stroke="#171B1C" stroke-width=".754" stroke-miterlimit="2.613"/><path fill-rule="evenodd" clip-rule="evenodd" d="M295.466 209.372l1.8.003v1.307h1.313v-1.336l1.843.005v1.331h1.319v-1.336l1.843.001-.003 3.014c0 .471-.372.779-.804.779h-6.469c-.434 0-.837-.354-.838-.789l-.004-2.979z" fill="#FBDF21"/><path d="M295.46 209.383l1.799.003v1.306h1.313v-1.335l1.845.005v1.33h1.316v-1.335l1.844.001-.003 3.015c0 .471-.372.777-.803.777l-6.47.001c-.434 0-.836-.355-.837-.789l-.004-2.979z" stroke="#171B1C" stroke-width=".755" stroke-miterlimit="2.613"/><path fill-rule="evenodd" clip-rule="evenodd" d="M302.417 213.141l.197 5.211-6.184.003.174-5.215 5.813.001z" fill="#FBDF21"/><path d="M302.419 213.135l.196 5.211-6.184.002.175-5.214 5.813.001z" stroke="#171B1C" stroke-width=".756" stroke-miterlimit="2.613"/><path fill-rule="evenodd" clip-rule="evenodd" d="M279.569 209.386l1.799.004v1.306h1.315v-1.336l1.842.006v1.33h1.318v-1.336l1.844.002-.003 3.014c0 .471-.373.778-.803.778h-6.47c-.435 0-.836-.355-.838-.789l-.004-2.979z" fill="#FBDF21"/><path d="M279.564 209.396l1.798.004v1.307h1.314v-1.336l1.843.006v1.33h1.318l-.001-1.336 1.845.002-.004 3.014c0 .47-.372.778-.804.778l-6.469.001c-.434 0-.836-.355-.838-.789l-.002-2.981z" stroke="#171B1C" stroke-width=".755" stroke-miterlimit="2.613"/><path fill-rule="evenodd" clip-rule="evenodd" d="M286.518 213.155l.198 5.211-6.185.004.175-5.216 5.812.002" fill="#FBDF21"/><path d="M286.521 213.149l.198 5.211-6.186.003.175-5.215 5.813.001z" stroke="#171B1C" stroke-width=".756" stroke-miterlimit="2.613"/><path fill-rule="evenodd" clip-rule="evenodd" d="M290.952 211.731c-.04-.94 1.314-.949 1.296 0v2.305h-1.296v-2.305zm7.956 3.332c-.004-.907 1.254-.927 1.239 0v1.778h-1.239v-1.778zm-15.946.017c-.004-.908 1.254-.929 1.239 0v1.777h-1.239v-1.777z" fill="#171B1C"/><path fill-rule="evenodd" clip-rule="evenodd" d="M355.97 204.658l1.838.004v1.307h1.343v-1.336l1.884.005v1.331l1.346-.001v-1.335l1.883.001-.002 3.015c0 .47-.381.778-.821.778h-6.611c-.444 0-.854-.356-.856-.789l-.004-2.98z" fill="#FBDF21"/><path d="M355.961 204.668l1.838.003v1.308h1.342v-1.337l1.883.005v1.332l1.347-.002v-1.334h1.883l-.002 3.014c0 .471-.381.779-.822.779h-6.61c-.443 0-.855-.354-.855-.788l-.004-2.98z" stroke="#171B1C" stroke-width=".755" stroke-miterlimit="2.613"/><path fill-rule="evenodd" clip-rule="evenodd" d="M362.895 208.693l.415 9.667-6.448-.022.427-9.669 5.606.024z" fill="#FBDF21"/><path d="M362.895 208.682l.415 9.668-6.449-.023.427-9.669 5.607.024z" stroke="#171B1C" stroke-width=".754" stroke-miterlimit="2.613"/><path fill-rule="evenodd" clip-rule="evenodd" d="M363.971 209.384l1.799.003v1.307h1.313v-1.336l1.844.005v1.331h1.318v-1.335l1.843.001-.003 3.013c-.001.472-.372.779-.802.779l-6.472.001c-.433 0-.835-.356-.837-.789l-.003-2.98z" fill="#FBDF21"/><path d="M363.962 209.395l1.8.003v1.308h1.313v-1.337l1.843.005v1.332l1.318-.002v-1.334l1.843.001-.002 3.014c-.002.471-.372.778-.804.778l-6.469.002c-.435 0-.836-.355-.838-.79l-.004-2.98z" stroke="#171B1C" stroke-width=".755" stroke-miterlimit="2.613"/><path fill-rule="evenodd" clip-rule="evenodd" d="M370.92 213.153l.198 5.211-6.185.003.174-5.214h5.813z" fill="#FBDF21"/><path d="M370.923 213.148l.198 5.211-6.185.002.174-5.214 5.813.001z" stroke="#171B1C" stroke-width=".756" stroke-miterlimit="2.613"/><path fill-rule="evenodd" clip-rule="evenodd" d="M348.074 209.399l1.798.004v1.305h1.314v-1.336l1.844.006v1.33h1.317v-1.334l1.844.001-.003 3.013c-.001.472-.373.778-.805.778h-6.469c-.434 0-.836-.354-.836-.787l-.004-2.98z" fill="#FBDF21"/><path d="M348.065 209.41l1.8.004v1.306h1.312v-1.337l1.844.005v1.332h1.318v-1.335l1.843.001-.003 3.013c0 .471-.372.779-.803.779h-6.469c-.434 0-.837-.355-.838-.788l-.004-2.98z" stroke="#171B1C" stroke-width=".755" stroke-miterlimit="2.613"/><path fill-rule="evenodd" clip-rule="evenodd" d="M355.022 213.169l.197 5.21-6.184.003.175-5.216 5.812.003z" fill="#FBDF21"/><path d="M355.025 213.163l.198 5.21-6.184.003.173-5.215 5.813.002z" stroke="#171B1C" stroke-width=".756" stroke-miterlimit="2.613"/><path fill-rule="evenodd" clip-rule="evenodd" d="M353.902 232.459c.202-8.273 6.072-10.233 6.115-10.261.042-.028 6.34 2.109 6.32 10.339l-12.435-.078z" fill="#FBDF21"/><path fill-rule="evenodd" clip-rule="evenodd" d="M348.833 222.348l-1.021 9.507 6.205.013c.058-7.864 5.955-9.173 6.098-9.145.133-.01 5.977 1.738 6.133 9.147h6.221l-1.125-9.579-22.51.057" fill="#FBDF21"/><path d="M348.857 222.336l-1.022 9.507 6.205.015c.06-7.867 5.957-9.175 6.1-9.146.132-.009 5.976 1.737 6.132 9.146h6.223l-1.125-9.579-22.513.057z" stroke="#171B1C" stroke-width=".755" stroke-miterlimit="2.613"/><path fill-rule="evenodd" clip-rule="evenodd" d="M347.397 231.9h25.394c.535 0 .972.527.972 1.173 0 .645-.437 1.174-.972 1.174h-25.394c-.535 0-.972-.529-.972-1.174 0-.646.437-1.173.972-1.173z" fill="#FBDF21"/><path d="M347.414 231.909h25.397c.535 0 .972.529.972 1.173 0 .646-.437 1.175-.972 1.175h-25.397c-.534 0-.973-.529-.973-1.175 0-.644.439-1.173.973-1.173z" stroke="#171B1C" stroke-width=".755" stroke-miterlimit="2.613"/><path fill-rule="evenodd" clip-rule="evenodd" d="M356.634 231.854c.028-4.966 3.39-6.369 3.407-6.366 0 0 3.511 1.448 3.538 6.366h-6.945z" fill="#FBDF21"/><path d="M356.643 231.854c.027-4.965 3.388-6.37 3.407-6.367.001 0 3.51 1.45 3.538 6.367h-6.945z" stroke="#171B1C" stroke-width=".753" stroke-miterlimit="2.613"/><path fill-rule="evenodd" clip-rule="evenodd" d="M347.932 218.406h24.344c.512 0 .932.475.932 1.055s-.42 1.056-.932 1.056h-24.344c-.512 0-.933-.476-.933-1.056 0-.58.421-1.055.933-1.055z" fill="#FBDF21"/><path d="M347.939 218.403h24.343c.515 0 .935.476.935 1.056 0 .58-.42 1.056-.935 1.056h-24.343c-.514 0-.934-.476-.934-1.056 0-.58.42-1.056.934-1.056z" stroke="#171B1C" stroke-width=".754" stroke-miterlimit="2.613"/><path fill-rule="evenodd" clip-rule="evenodd" d="M348.445 220.52h23.287c.491 0 .893.475.893 1.055 0 .581-.402 1.055-.893 1.055h-23.288c-.49 0-.892-.474-.892-1.055 0-.58.402-1.055.892-1.055" fill="#FBDF21"/><path d="M348.452 220.518h23.287c.491 0 .892.474.892 1.056 0 .58-.401 1.056-.892 1.056h-23.287c-.491 0-.892-.476-.892-1.056 0-.582.401-1.056.892-1.056z" stroke="#171B1C" stroke-width=".754" stroke-miterlimit="2.613"/><path fill-rule="evenodd" clip-rule="evenodd" d="M359.456 211.745c-.04-.94 1.313-.95 1.297 0v2.303h-1.298v-2.303h.001zm7.955 3.331c-.004-.908 1.254-.928 1.239 0v1.777h-1.239v-1.777zm-15.944.016c-.005-.907 1.252-.928 1.238 0v1.779h-1.239v-1.779" fill="#171B1C"/><path fill-rule="evenodd" clip-rule="evenodd" d="M423.712 204.704l1.838.003v1.307h1.343v-1.336l1.884.006v1.33h1.345v-1.336l1.884.003-.004 3.013c0 .471-.379.778-.821.778l-6.61.002c-.443 0-.854-.356-.856-.789l-.003-2.981z" fill="#FBDF21"/><path d="M423.7 204.714l1.838.003v1.306h1.343v-1.335l1.883.005v1.33h1.346v-1.335l1.885.001-.004 3.015c0 .471-.38.778-.821.778h-6.61c-.444 0-.855-.355-.856-.789l-.004-2.979z" stroke="#171B1C" stroke-width=".755" stroke-miterlimit="2.613"/><path fill-rule="evenodd" clip-rule="evenodd" d="M430.637 208.738l.415 9.668-6.448-.023.427-9.667 5.606.022z" fill="#FBDF21"/><path d="M430.636 208.728l.415 9.667-6.448-.022.427-9.669 5.606.024z" stroke="#171B1C" stroke-width=".754" stroke-miterlimit="2.613"/><path fill-rule="evenodd" clip-rule="evenodd" d="M431.713 209.43l1.798.003v1.307h1.314v-1.336l1.843.006v1.33h1.319v-1.334h1.843l-.003 3.014c-.001.471-.372.778-.805.778h-6.467c-.436 0-.839-.354-.839-.789l-.004-2.979" fill="#FBDF21"/><path d="M431.703 209.441l1.798.003v1.308h1.314v-1.337l1.844.005v1.332l1.317-.001v-1.335h1.844l-.003 3.015c0 .471-.373.778-.804.778h-6.468c-.436 0-.838-.355-.838-.789l-.004-2.979z" stroke="#171B1C" stroke-width=".755" stroke-miterlimit="2.613"/><path fill-rule="evenodd" clip-rule="evenodd" d="M438.662 213.2l.197 5.211-6.184.002.174-5.215 5.813.002z" fill="#FBDF21"/><path d="M438.664 213.193l.199 5.212-6.185.003.175-5.215h5.811z" stroke="#171B1C" stroke-width=".756" stroke-miterlimit="2.613"/><path fill-rule="evenodd" clip-rule="evenodd" d="M415.815 209.445l1.799.002v1.308h1.314v-1.337l1.844.005v1.332h1.317v-1.336h1.844l-.003 3.016c0 .469-.374.778-.805.778h-6.469c-.435 0-.836-.354-.836-.789l-.004-2.979" fill="#FBDF21"/><path d="M415.806 209.456l1.799.002v1.307h1.313v-1.336l1.843.006v1.33h1.318v-1.334h1.843l-.002 3.014c0 .47-.373.779-.805.779h-6.468c-.435 0-.837-.355-.837-.789l-.004-2.979z" stroke="#171B1C" stroke-width=".755" stroke-miterlimit="2.613"/><path fill-rule="evenodd" clip-rule="evenodd" d="M422.764 213.215l.197 5.21-6.184.002.175-5.214 5.812.001" fill="#FBDF21"/><path d="M422.768 213.208l.197 5.21-6.185.003.175-5.213h5.813z" stroke="#171B1C" stroke-width=".756" stroke-miterlimit="2.613"/><path fill-rule="evenodd" clip-rule="evenodd" d="M421.643 232.505c.203-8.274 6.073-10.233 6.116-10.261.042-.027 6.339 2.11 6.319 10.339l-12.436-.078" fill="#FBDF21"/><path fill-rule="evenodd" clip-rule="evenodd" d="M416.575 222.393l-1.021 9.507 6.205.014c.057-7.866 5.955-9.174 6.098-9.145.133-.009 5.977 1.738 6.133 9.145h6.221l-1.125-9.578-22.51.056" fill="#FBDF21"/><path d="M416.604 222.382l-1.022 9.506 6.205.015c.058-7.866 5.957-9.174 6.098-9.146.135-.009 5.978 1.739 6.134 9.147h6.221l-1.124-9.58-22.512.058z" stroke="#171B1C" stroke-width=".755" stroke-miterlimit="2.613"/><path fill-rule="evenodd" clip-rule="evenodd" d="M415.139 231.945h25.394c.535 0 .974.529.974 1.174 0 .646-.439 1.174-.974 1.174h-25.394c-.535 0-.973-.528-.973-1.174 0-.645.438-1.174.973-1.174z" fill="#FBDF21"/><path d="M415.16 231.954h25.396c.534 0 .973.53.973 1.175 0 .646-.439 1.174-.973 1.174H415.16c-.536 0-.973-.528-.973-1.174 0-.645.437-1.175.973-1.175z" stroke="#171B1C" stroke-width=".755" stroke-miterlimit="2.613"/><path fill-rule="evenodd" clip-rule="evenodd" d="M424.376 231.899c.027-4.966 3.387-6.368 3.406-6.365.001 0 3.51 1.448 3.539 6.366l-6.945-.001z" fill="#FBDF21"/><path d="M424.386 231.899c.027-4.965 3.389-6.368 3.408-6.366 0 0 3.51 1.449 3.537 6.367l-6.945-.001z" stroke="#171B1C" stroke-width=".753" stroke-miterlimit="2.613"/><path fill-rule="evenodd" clip-rule="evenodd" d="M415.674 218.451h24.344c.514 0 .934.476.934 1.057 0 .58-.42 1.055-.934 1.055h-24.344c-.514 0-.935-.475-.935-1.055 0-.581.421-1.057.935-1.057z" fill="#FBDF21"/><path d="M415.682 218.45h24.344c.513 0 .933.475.933 1.056 0 .58-.42 1.055-.933 1.055h-24.344c-.513 0-.934-.475-.934-1.055 0-.581.421-1.056.934-1.056z" stroke="#171B1C" stroke-width=".754" stroke-miterlimit="2.613"/><path fill-rule="evenodd" clip-rule="evenodd" d="M416.189 220.566h23.284c.492 0 .894.474.894 1.055 0 .58-.402 1.056-.894 1.056h-23.284c-.492 0-.895-.476-.895-1.056 0-.581.403-1.055.895-1.055z" fill="#FBDF21"/><path d="M416.196 220.564h23.286c.49 0 .893.475.893 1.055 0 .581-.403 1.056-.893 1.056h-23.286c-.492 0-.892-.475-.892-1.056 0-.58.4-1.055.892-1.055z" stroke="#171B1C" stroke-width=".754" stroke-miterlimit="2.613"/><path fill-rule="evenodd" clip-rule="evenodd" d="M427.197 211.789c-.04-.939 1.314-.948 1.296 0v2.305h-1.296v-2.305zm7.956 3.332c-.004-.906 1.254-.928 1.239 0v1.779h-1.239v-1.779zm-15.946.017c-.004-.907 1.253-.927 1.239 0v1.778h-1.239v-1.779" fill="#171B1C"/><path fill-rule="evenodd" clip-rule="evenodd" d="M287.5 274.041l1.838.004v1.307h1.343v-1.336l1.883.004v1.332l1.347-.001-.002-1.335h1.886l-.003 3.014c-.001.472-.381.78-.823.78h-6.608c-.446 0-.856-.355-.857-.789l-.004-2.98z" fill="#FBDF21"/><path d="M287.481 274.035l1.838.004v1.307h1.341v-1.336l1.885.004v1.332h1.345v-1.336l1.885.002-.004 3.014c0 .47-.38.778-.821.778h-6.609c-.445 0-.855-.354-.856-.788l-.004-2.981z" stroke="#171B1C" stroke-width=".698" stroke-miterlimit="2.613"/><path fill-rule="evenodd" clip-rule="evenodd" d="M294.425 278.075l.415 9.667-6.448-.023.427-9.667 5.606.023z" fill="#FBDF21"/><path d="M294.425 278.066l.414 9.669-6.448-.023.426-9.668 5.608.022z" stroke="#171B1C" stroke-width=".75" stroke-miterlimit="2.613"/><path fill-rule="evenodd" clip-rule="evenodd" d="M295.501 278.767l1.798.003v1.307h1.315v-1.336l1.843.005v1.331h1.317v-1.335h1.844l-.003 3.014c-.001.471-.373.78-.805.78l-6.468.001c-.434 0-.837-.356-.837-.789l-.004-2.981z" fill="#FBDF21"/><path d="M295.51 278.769l1.798.003v1.307h1.314v-1.336l1.844.005v1.331h1.318v-1.335h1.843l-.003 3.015c0 .471-.373.779-.804.779h-6.468c-.436 0-.838-.355-.838-.789l-.004-2.98z" stroke="#171B1C" stroke-width=".711" stroke-miterlimit="2.613"/><path fill-rule="evenodd" clip-rule="evenodd" d="M302.449 282.537l.198 5.21-6.184.003.174-5.213h5.812z" fill="#FBDF21"/><path d="M302.459 282.54l.197 5.21-6.184.003.175-5.214 5.812.001z" stroke="#171B1C" stroke-width=".699" stroke-miterlimit="2.613"/><path fill-rule="evenodd" clip-rule="evenodd" d="M279.604 278.782l1.799.003v1.306h1.313v-1.336l1.843.006v1.33h1.319l-.002-1.336 1.844.003-.004 3.013c0 .471-.372.778-.801.778h-6.471c-.435 0-.837-.353-.837-.787l-.003-2.98z" fill="#FBDF21"/><path d="M279.611 278.784l1.8.003v1.308h1.314v-1.337l1.843.005v1.332l1.317-.002v-1.335l1.844.002-.004 3.014c0 .47-.371.779-.803.779h-6.469c-.435 0-.838-.356-.838-.79l-.004-2.979z" stroke="#171B1C" stroke-width=".711" stroke-miterlimit="2.613"/><path fill-rule="evenodd" clip-rule="evenodd" d="M286.553 282.551l.196 5.211-6.183.003.174-5.216 5.813.002z" fill="#FBDF21"/><path d="M286.561 282.554l.198 5.211-6.185.002.175-5.214 5.812.001z" stroke="#171B1C" stroke-width=".699" stroke-miterlimit="2.613"/><path fill-rule="evenodd" clip-rule="evenodd" d="M285.432 301.842c.202-8.273 6.073-10.233 6.115-10.261.042-.028 6.341 2.109 6.319 10.338l-12.434-.077z" fill="#FBDF21"/><path fill-rule="evenodd" clip-rule="evenodd" d="M280.364 291.731l-1.022 9.507 6.204.013c.059-7.864 5.956-9.174 6.098-9.145.134-.009 5.977 1.738 6.133 9.147h6.222l-1.125-9.579-22.51.057z" fill="#FBDF21"/><path d="M280.381 291.72l-1.021 9.508 6.204.013c.059-7.866 5.956-9.175 6.099-9.146.134-.009 5.978 1.739 6.133 9.147h6.222l-1.124-9.58-22.513.058z" stroke="#171B1C" stroke-width=".75" stroke-miterlimit="2.613"/><path fill-rule="evenodd" clip-rule="evenodd" d="M278.926 301.283h25.395c.535 0 .973.527.973 1.173s-.438 1.173-.973 1.173h-25.395c-.535 0-.972-.527-.972-1.173s.437-1.173.972-1.173z" fill="#FBDF21"/><path d="M278.941 301.291h25.396c.536 0 .973.527.973 1.173 0 .645-.437 1.173-.973 1.173h-25.396c-.535 0-.974-.528-.974-1.173 0-.646.439-1.173.974-1.173z" stroke="#171B1C" stroke-width=".75" stroke-miterlimit="2.613"/><path fill-rule="evenodd" clip-rule="evenodd" d="M288.163 301.237c.028-4.965 3.39-6.369 3.407-6.366.002 0 3.512 1.448 3.539 6.366h-6.946z" fill="#FBDF21"/><path d="M288.171 301.238c.028-4.967 3.39-6.369 3.407-6.366.001 0 3.511 1.448 3.538 6.366h-6.945z" stroke="#171B1C" stroke-width=".743" stroke-miterlimit="2.613"/><path fill-rule="evenodd" clip-rule="evenodd" d="M279.461 287.789h24.344c.514 0 .934.476.934 1.055 0 .58-.42 1.056-.934 1.056h-24.344c-.512 0-.932-.476-.932-1.056 0-.579.42-1.055.932-1.055z" fill="#FBDF21"/><path d="M279.467 287.787h24.345c.512 0 .933.475.933 1.056 0 .581-.421 1.055-.933 1.055h-24.345c-.513 0-.933-.474-.933-1.055s.42-1.056.933-1.056z" stroke="#171B1C" stroke-width=".75" stroke-miterlimit="2.613"/><path fill-rule="evenodd" clip-rule="evenodd" d="M279.976 289.902h23.285c.492 0 .893.476.893 1.056 0 .582-.401 1.055-.893 1.055h-23.285c-.491 0-.893-.473-.893-1.055 0-.58.402-1.056.893-1.056z" fill="#FBDF21"/><path d="M279.981 289.901h23.286c.49 0 .894.474.894 1.056 0 .58-.404 1.055-.894 1.055h-23.286c-.492 0-.892-.475-.892-1.055 0-.582.4-1.056.892-1.056z" stroke="#171B1C" stroke-width=".75" stroke-miterlimit="2.613"/><path fill-rule="evenodd" clip-rule="evenodd" d="M290.984 281.128c-.039-.942 1.315-.95 1.299 0v2.304h-1.299v-2.304zm7.957 3.331c-.004-.907 1.254-.927 1.239 0v1.778h-1.239v-1.778zm-15.946.016c-.005-.908 1.254-.927 1.238 0v1.777h-1.239v-1.777" fill="#171B1C"/><path fill-rule="evenodd" clip-rule="evenodd" d="M419.717 347.253l1.297 1.302-.923.923.948.95.944-.946 1.328 1.336-.941.94.953.954.944-.946 1.332 1.334-2.134 2.129c-.333.331-.82.282-1.131-.03l-4.675-4.675c-.313-.313-.353-.853-.046-1.162l2.104-2.109z" fill="#FBDF21"/><path d="M419.691 347.262l1.298 1.301-.924.924.948.949.945-.944 1.328 1.335-.941.94.952.952.943-.944 1.333 1.333-2.135 2.129c-.333.332-.819.281-1.13-.03l-4.674-4.674c-.314-.314-.354-.855-.047-1.162l2.104-2.109z" stroke="#171B1C" stroke-width=".755" stroke-miterlimit="2.613"/><path fill-rule="evenodd" clip-rule="evenodd" d="M421.762 355.001l-6.544 7.129-4.544-4.575 7.138-6.534 3.949 3.98" fill="#FBDF21"/><path d="M421.775 354.987l-6.543 7.13-4.543-4.574 7.139-6.536 3.947 3.98z" stroke="#171B1C" stroke-width=".763" stroke-miterlimit="2.613"/><path fill-rule="evenodd" clip-rule="evenodd" d="M422.032 356.25l1.27 1.276-.924.924.928.927.945-.943 1.3 1.307-.94.941.931.932.944-.945 1.303 1.304-2.135 2.129c-.333.333-.813.287-1.118-.017l-4.573-4.574c-.308-.308-.343-.843-.035-1.15l2.104-2.111z" fill="#FBDF21"/><path d="M422.02 356.272l1.27 1.274-.924.923.928.929.946-.944 1.3 1.307-.942.941.932.931.944-.945 1.303 1.305-2.134 2.129c-.332.332-.814.287-1.118-.018l-4.575-4.574c-.308-.307-.341-.842-.034-1.149l2.104-2.109z" stroke="#171B1C" stroke-width=".756" stroke-miterlimit="2.613"/><path fill-rule="evenodd" clip-rule="evenodd" d="M424.279 363.83l-3.545 3.823-4.374-4.37 3.811-3.564 4.109 4.111" fill="#FBDF21"/><path d="M424.283 363.839l-3.545 3.823-4.374-4.369 3.811-3.564 4.108 4.11z" stroke="#171B1C" stroke-width=".756" stroke-miterlimit="2.613"/><path fill-rule="evenodd" clip-rule="evenodd" d="M410.779 345.021l1.271 1.274-.924.923.929.93.946-.945 1.298 1.307-.94.942.931.931.944-.945 1.303 1.305-2.133 2.129c-.333.332-.815.288-1.12-.018l-4.573-4.574c-.308-.307-.341-.842-.035-1.15l2.104-2.109" fill="#FBDF21"/><path d="M410.768 345.041l1.27 1.274-.924.925.929.928.944-.945 1.3 1.308-.942.94.933.932.944-.945 1.303 1.306-2.134 2.128c-.332.333-.813.287-1.118-.018l-4.576-4.574c-.307-.306-.34-.842-.033-1.149l2.104-2.11z" stroke="#171B1C" stroke-width=".756" stroke-miterlimit="2.613"/><path fill-rule="evenodd" clip-rule="evenodd" d="M413.029 352.599l-3.545 3.825-4.376-4.371 3.811-3.564 4.11 4.11z" fill="#FBDF21"/><path d="M413.032 352.609l-3.545 3.824-4.374-4.371 3.811-3.563 4.108 4.11z" stroke="#171B1C" stroke-width=".756" stroke-miterlimit="2.613"/><path fill-rule="evenodd" clip-rule="evenodd" d="M398.595 365.448c5.994-5.707 11.529-2.942 11.58-2.931.049.009 2.99 5.974-2.842 11.777l-8.738-8.846z" fill="#FBDF21"/><path fill-rule="evenodd" clip-rule="evenodd" d="M402.161 354.715l-7.446 6 4.378 4.397c5.604-5.52 10.698-2.276 10.78-2.155.101.088 2.998 5.455-2.132 10.804l4.399 4.398 5.979-7.568-15.958-15.876z" fill="#FBDF21"/><path d="M402.148 354.71l-7.446 5.999 4.378 4.397c5.602-5.52 10.697-2.275 10.777-2.154.102.087 2.998 5.455-2.131 10.803l4.399 4.399 5.979-7.568-15.956-15.876z" stroke="#171B1C" stroke-width=".755" stroke-miterlimit="2.613"/><path fill-rule="evenodd" clip-rule="evenodd" d="M394.391 360.453l17.957 17.955c.377.38.314 1.061-.143 1.519-.456.456-1.14.519-1.517.141l-17.958-17.955c-.377-.38-.313-1.06.143-1.518.457-.456 1.139-.52 1.518-.142z" fill="#FBDF21"/><path d="M394.375 360.472l17.956 17.956c.378.378.314 1.06-.142 1.517-.457.457-1.139.521-1.518.142l-17.957-17.955c-.377-.378-.314-1.062.143-1.518.456-.457 1.139-.52 1.518-.142z" stroke="#171B1C" stroke-width=".76" stroke-miterlimit="2.613"/><path fill-rule="evenodd" clip-rule="evenodd" d="M400.954 366.951c3.531-3.491 6.9-2.106 6.912-2.091 0 0 1.457 3.506-2.001 7.002l-4.911-4.911z" fill="#FBDF21"/><path d="M400.971 366.937c3.533-3.491 6.901-2.107 6.913-2.092 0 0 1.457 3.506-2.002 7.003l-4.911-4.911z" stroke="#171B1C" stroke-width=".752" stroke-miterlimit="2.613"/><path fill-rule="evenodd" clip-rule="evenodd" d="M404.311 351.289l17.214 17.214c.363.362.323.995-.086 1.406-.412.41-1.044.45-1.407.086l-17.215-17.212c-.362-.364-.323-.997.087-1.406.412-.412 1.043-.451 1.407-.088z" fill="#FBDF21"/><path d="M404.318 351.288l17.214 17.213c.364.364.324.997-.085 1.406-.412.411-1.045.45-1.407.088l-17.214-17.214c-.364-.362-.324-.996.086-1.406.411-.411 1.044-.449 1.406-.087z" stroke="#171B1C" stroke-width=".754" stroke-miterlimit="2.613"/><path fill-rule="evenodd" clip-rule="evenodd" d="M403.18 353.148l16.466 16.463c.347.348.295.968-.115 1.379-.412.412-1.031.463-1.379.115l-16.466-16.463c-.347-.348-.294-.969.116-1.379.412-.411 1.03-.463 1.378-.115z" fill="#FBDF21"/><path d="M403.187 353.146l16.466 16.465c.348.348.296.968-.115 1.377-.411.411-1.031.463-1.377.117l-16.467-16.466c-.347-.347-.294-.967.117-1.377.409-.411 1.029-.462 1.376-.116z" stroke="#171B1C" stroke-width=".754" stroke-miterlimit="2.613"/><path fill-rule="evenodd" clip-rule="evenodd" d="M417.17 354.529c.637-.693 1.6.257.918.916l-1.63 1.63-.918-.917 1.63-1.629zm3.27 7.982c.638-.645 1.542.23.876.875l-1.259 1.259-.874-.878 1.257-1.256zm-11.286-11.263c.637-.646 1.541.231.875.875l-1.258 1.257-.876-.874 1.259-1.259" fill="#171B1C"/><path fill-rule="evenodd" clip-rule="evenodd" d="M423.61 274.054l1.837.005v1.306h1.343v-1.336l1.883.006v1.33h1.346v-1.336l1.884.002-.002 3.014c0 .471-.381.778-.821.778h-6.611c-.444 0-.855-.353-.857-.789l-.002-2.979" fill="#FBDF21"/><path d="M423.598 274.063l1.838.004v1.306h1.342v-1.335l1.883.004v1.331h1.347v-1.335l1.884.001-.003 3.014c0 .47-.381.778-.822.778h-6.61c-.443 0-.855-.354-.855-.788l-.004-2.98z" stroke="#171B1C" stroke-width=".755" stroke-miterlimit="2.613"/><path fill-rule="evenodd" clip-rule="evenodd" d="M430.535 278.089l.415 9.668-6.449-.024.427-9.666 5.607.022z" fill="#FBDF21"/><path d="M430.533 278.081l.415 9.667-6.448-.023.426-9.667 5.607.023z" stroke="#171B1C" stroke-width=".754" stroke-miterlimit="2.613"/><path fill-rule="evenodd" clip-rule="evenodd" d="M431.609 278.781l1.8.004v1.306h1.313v-1.336l1.843.006v1.33h1.319v-1.336l1.843.002-.003 3.014c-.001.471-.372.778-.803.778h-6.469c-.435 0-.837-.354-.839-.789l-.004-2.979z" fill="#FBDF21"/><path d="M431.6 278.79l1.799.004v1.306h1.313v-1.335l1.843.004v1.331h1.318v-1.335l1.844.001-.003 3.013c0 .471-.372.779-.803.779l-6.47.001c-.435 0-.836-.355-.837-.789l-.004-2.98z" stroke="#171B1C" stroke-width=".755" stroke-miterlimit="2.613"/><path fill-rule="evenodd" clip-rule="evenodd" d="M438.559 282.551l.197 5.21-6.184.002.174-5.214 5.813.002z" fill="#FBDF21"/><path d="M438.562 282.546l.198 5.211-6.185.003.175-5.215 5.812.001z" stroke="#171B1C" stroke-width=".756" stroke-miterlimit="2.613"/><path fill-rule="evenodd" clip-rule="evenodd" d="M415.713 278.795l1.798.004v1.306h1.314v-1.335l1.844.004v1.331h1.317v-1.335l1.843.001-.002 3.015c-.001.47-.373.777-.803.777l-6.471.001c-.434 0-.836-.356-.836-.789l-.004-2.98z" fill="#FBDF21"/><path d="M415.702 278.804l1.8.004v1.307h1.313v-1.336l1.843.004v1.332h1.318v-1.336l1.843.002-.003 3.013c0 .471-.371.778-.803.778l-6.469.002c-.434 0-.838-.355-.838-.789l-.004-2.981z" stroke="#171B1C" stroke-width=".755" stroke-miterlimit="2.613"/><path fill-rule="evenodd" clip-rule="evenodd" d="M422.661 282.564l.197 5.211-6.184.004.175-5.215h5.812z" fill="#FBDF21"/><path d="M422.664 282.56l.198 5.211-6.184.003.175-5.214h5.811z" stroke="#171B1C" stroke-width=".756" stroke-miterlimit="2.613"/><path fill-rule="evenodd" clip-rule="evenodd" d="M421.541 301.856c.202-8.274 6.072-10.233 6.114-10.26.043-.028 6.341 2.108 6.32 10.338l-12.434-.079" fill="#FBDF21"/><path fill-rule="evenodd" clip-rule="evenodd" d="M416.472 291.744l-1.021 9.507 6.205.014c.057-7.865 5.955-9.173 6.098-9.145.132-.009 5.976 1.739 6.133 9.146l6.221.001-1.124-9.58-22.512.057z" fill="#FBDF21"/><path d="M416.501 291.735l-1.023 9.507 6.206.014c.059-7.865 5.956-9.174 6.099-9.145.133-.01 5.977 1.737 6.133 9.146l6.221.001-1.124-9.58-22.512.057z" stroke="#171B1C" stroke-width=".755" stroke-miterlimit="2.613"/><path fill-rule="evenodd" clip-rule="evenodd" d="M415.037 301.297h25.393c.536 0 .972.527.972 1.173 0 .645-.436 1.174-.972 1.174h-25.393c-.536 0-.974-.529-.974-1.174 0-.646.438-1.173.974-1.173z" fill="#FBDF21"/><path d="M415.058 301.305h25.395c.536 0 .972.528.972 1.173s-.436 1.174-.972 1.174h-25.395c-.536 0-.975-.529-.975-1.174 0-.645.439-1.173.975-1.173z" stroke="#171B1C" stroke-width=".755" stroke-miterlimit="2.613"/><path fill-rule="evenodd" clip-rule="evenodd" d="M424.273 301.25c.027-4.966 3.389-6.368 3.406-6.366.001 0 3.512 1.449 3.539 6.367l-6.945-.001z" fill="#FBDF21"/><path d="M424.283 301.251c.027-4.965 3.389-6.369 3.408-6.366.001 0 3.51 1.448 3.538 6.367l-6.946-.001z" stroke="#171B1C" stroke-width=".753" stroke-miterlimit="2.613"/><path fill-rule="evenodd" clip-rule="evenodd" d="M415.571 287.802h24.344c.512 0 .932.475.932 1.057 0 .58-.42 1.055-.932 1.055h-24.344c-.513 0-.933-.475-.933-1.055 0-.582.42-1.057.933-1.057z" fill="#FBDF21"/><path d="M415.578 287.801h24.345c.513 0 .933.475.933 1.056 0 .58-.42 1.055-.933 1.055h-24.345c-.512 0-.933-.475-.933-1.055 0-.581.421-1.056.933-1.056z" stroke="#171B1C" stroke-width=".754" stroke-miterlimit="2.613"/><path fill-rule="evenodd" clip-rule="evenodd" d="M416.085 289.916h23.285c.492 0 .893.475.893 1.056 0 .58-.401 1.056-.893 1.056h-23.285c-.491 0-.894-.476-.894-1.056 0-.581.403-1.056.894-1.056z" fill="#FBDF21"/><path d="M416.093 289.915h23.286c.491 0 .893.475.893 1.055 0 .581-.402 1.056-.893 1.056h-23.286c-.492 0-.894-.475-.894-1.056 0-.58.402-1.055.894-1.055z" stroke="#171B1C" stroke-width=".754" stroke-miterlimit="2.613"/><path fill-rule="evenodd" clip-rule="evenodd" d="M427.094 281.141c-.039-.94 1.315-.949 1.298 0v2.303h-1.299v-2.303h.001zm7.956 3.331c-.004-.906 1.254-.927 1.239 0v1.778h-1.239v-1.779.001zm-15.945.016c-.004-.906 1.252-.928 1.238 0v1.779h-1.239v-1.779" fill="#171B1C"/><path fill-rule="evenodd" clip-rule="evenodd" d="M294.219 352.995l1.302-1.296.925.923.948-.948-.944-.945 1.336-1.328.941.941.952-.952-.946-.943 1.334-1.332 2.129 2.133c.332.333.281.819-.03 1.13l-4.675 4.675c-.313.315-.855.355-1.161.047l-2.111-2.105z" fill="#FBDF21"/><path d="M294.195 353.011l1.302-1.297.924.923.949-.948-.945-.945 1.336-1.328.941.941.952-.952-.945-.944 1.333-1.331 2.129 2.133c.332.333.281.82-.03 1.131l-4.674 4.674c-.313.314-.855.354-1.162.047l-2.11-2.104z" stroke="#171B1C" stroke-width=".755" stroke-miterlimit="2.613"/><path fill-rule="evenodd" clip-rule="evenodd" d="M301.969 350.952l7.128 6.542-4.575 4.544-6.534-7.138 3.981-3.948z" fill="#FBDF21"/><path d="M301.978 350.958l7.131 6.543-4.577 4.543-6.534-7.138 3.98-3.948z" stroke="#171B1C" stroke-width=".754" stroke-miterlimit="2.613"/><path fill-rule="evenodd" clip-rule="evenodd" d="M303.218 350.68l1.275-1.27.924.925.929-.929-.945-.943 1.307-1.301.941.942.932-.932-.946-.945 1.305-1.302 2.131 2.133c.331.333.286.814-.019 1.119l-4.574 4.574c-.308.307-.843.341-1.15.034l-2.11-2.105z" fill="#FBDF21"/><path d="M303.209 350.671l1.275-1.27.923.924.929-.929-.945-.944 1.307-1.3.942.941.931-.932-.945-.944 1.305-1.302 2.129 2.133c.332.333.287.813-.017 1.118l-4.575 4.575c-.307.307-.843.341-1.149.034l-2.11-2.104z" stroke="#171B1C" stroke-width=".755" stroke-miterlimit="2.613"/><path fill-rule="evenodd" clip-rule="evenodd" d="M310.797 348.433l3.824 3.545-4.37 4.374-3.564-3.81 4.11-4.108" fill="#FBDF21"/><path d="M310.795 348.45l3.824 3.544-4.37 4.374-3.565-3.81 4.111-4.108z" stroke="#171B1C" stroke-width=".756" stroke-miterlimit="2.613"/><path fill-rule="evenodd" clip-rule="evenodd" d="M291.988 361.933l1.273-1.271.925.924.929-.928-.945-.946 1.307-1.299.941.941.932-.932-.945-.944 1.305-1.303 2.13 2.133c.332.333.287.815-.019 1.118l-4.574 4.575c-.307.309-.843.341-1.149.035l-2.11-2.104" fill="#FBDF21"/><path d="M291.979 361.922l1.273-1.27.925.924.928-.928-.944-.945 1.307-1.3.941.941.931-.932-.944-.944 1.305-1.303 2.129 2.134c.332.333.287.814-.019 1.119l-4.573 4.575c-.307.307-.842.34-1.151.034l-2.108-2.105z" stroke="#171B1C" stroke-width=".755" stroke-miterlimit="2.613"/><path fill-rule="evenodd" clip-rule="evenodd" d="M299.566 359.684l3.825 3.544-4.371 4.375-3.564-3.81 4.11-4.109z" fill="#FBDF21"/><path d="M299.564 359.7l3.824 3.545-4.371 4.374-3.563-3.811 4.11-4.108z" stroke="#171B1C" stroke-width=".756" stroke-miterlimit="2.613"/><path fill-rule="evenodd" clip-rule="evenodd" d="M312.416 374.117c-5.708-5.994-2.944-11.529-2.933-11.58.011-.049 5.977-2.99 11.779 2.842l-8.846 8.738z" fill="#FBDF21"/><path fill-rule="evenodd" clip-rule="evenodd" d="M301.682 370.55l6 7.446 4.397-4.377c-5.521-5.603-2.276-10.698-2.154-10.779.087-.101 5.455-2.999 10.804 2.131l4.398-4.399-7.569-5.979-15.876 15.957z" fill="#FBDF21"/><path d="M301.647 370.543l6 7.447 4.397-4.378c-5.521-5.603-2.276-10.699-2.155-10.779.087-.101 5.454-2.997 10.803 2.131l4.398-4.399-7.568-5.979-15.875 15.957z" stroke="#171B1C" stroke-width=".755" stroke-miterlimit="2.613"/><path fill-rule="evenodd" clip-rule="evenodd" d="M307.42 378.32l17.957-17.955c.379-.378 1.062-.314 1.518.142.456.456.52 1.14.142 1.517l-17.957 17.955c-.378.38-1.061.316-1.518-.14-.456-.456-.519-1.14-.142-1.519z" fill="#FBDF21"/><path d="M307.42 378.317l17.956-17.956c.378-.378 1.061-.314 1.517.143.457.456.521 1.139.142 1.517l-17.956 17.955c-.378.379-1.062.315-1.519-.141-.455-.457-.519-1.14-.14-1.518v0z" stroke="#171B1C" stroke-width=".755" stroke-miterlimit="2.613"/><path fill-rule="evenodd" clip-rule="evenodd" d="M313.918 371.757c-3.492-3.53-2.106-6.9-2.091-6.911 0-.001 3.506-1.457 7.004 2.001l-4.913 4.91z" fill="#FBDF21"/><path d="M313.918 371.765c-3.492-3.53-2.107-6.899-2.093-6.91.001-.001 3.507-1.458 7.005 2.001l-4.912 4.909z" stroke="#171B1C" stroke-width=".753" stroke-miterlimit="2.613"/><path fill-rule="evenodd" clip-rule="evenodd" d="M298.257 368.401l17.213-17.214c.363-.362.997-.323 1.406.088.411.41.451 1.042.087 1.406l-17.214 17.212c-.362.364-.996.324-1.405-.085-.411-.412-.451-1.045-.087-1.407z" fill="#FBDF21"/><path d="M298.262 368.399l17.214-17.213c.364-.362.996-.323 1.407.088.409.409.449 1.042.087 1.406l-17.215 17.213c-.363.362-.996.324-1.406-.087-.411-.41-.45-1.043-.087-1.407z" stroke="#171B1C" stroke-width=".754" stroke-miterlimit="2.613"/><path fill-rule="evenodd" clip-rule="evenodd" d="M300.114 369.532l16.466-16.465c.348-.346.966-.296 1.379.115.409.411.46 1.03.115 1.378l-16.467 16.464c-.347.348-.967.297-1.378-.114-.41-.411-.462-1.031-.115-1.378z" fill="#FBDF21"/><path d="M300.12 369.531l16.465-16.465c.348-.347.968-.295 1.379.116.411.411.462 1.031.115 1.377l-16.467 16.465c-.346.348-.966.295-1.377-.116-.411-.41-.462-1.03-.115-1.377v0z" stroke="#171B1C" stroke-width=".754" stroke-miterlimit="2.613"/><path fill-rule="evenodd" clip-rule="evenodd" d="M301.694 355.344c-.693-.636.258-1.599.917-.915l1.63 1.627-.917.919-1.63-1.631zm7.982-3.269c-.644-.639.23-1.543.875-.876l1.258 1.259-.875.874-1.258-1.257zm-11.264 11.285c-.644-.636.23-1.54.876-.874l1.257 1.259-.876.874-1.257-1.259z" fill="#171B1C"/></g></g></svg>